<svg width="18" height="18" viewBox="0 0 18 18" fill="none" xmlns="http://www.w3.org/2000/svg">
<g clip-path="url(#clip0_2485_17122)">
<path d="M6.75 9C9.23528 9 11.25 6.98528 11.25 4.5C11.25 2.01472 9.23528 0 6.75 0C4.26472 0 2.25 2.01472 2.25 4.5C2.25 6.98528 4.26472 9 6.75 9Z" fill="white"/>
<path d="M9.78225 10.5005H3.71775C2.73211 10.5016 1.78717 10.8937 1.09022 11.5907C0.393264 12.2876 0.00119087 13.2326 0 14.2182L0 18.0005H13.5V14.2182C13.4988 13.2326 13.1067 12.2876 12.4098 11.5907C11.7128 10.8937 10.7679 10.5016 9.78225 10.5005Z" fill="white"/>
<path d="M15.75 7.49952V5.24953H14.25V7.49952H12V8.99952H14.25V11.2495H15.75V8.99952H18V7.49952H15.75Z" fill="white"/>
</g>
<defs>
<clipPath id="clip0_2485_17122">
<rect width="18" height="18" fill="white"/>
</clipPath>
</defs>
</svg>
