<svg width="18" height="18" viewBox="0 0 18 18" fill="none" xmlns="http://www.w3.org/2000/svg">
<g clip-path="url(#clip0_2416_1076)">
<path d="M1.5 2.625C1.5 1.1775 2.6775 0 4.125 0C5.5725 0 6.75 1.1775 6.75 2.625C6.75 4.0725 5.5725 5.25 4.125 5.25C2.6775 5.25 1.5 4.0725 1.5 2.625ZM11.856 5.25C13.3035 5.25 14.481 4.0725 14.481 2.625C14.481 1.1775 13.3035 0 11.856 0C10.4085 0 9.231 1.1775 9.231 2.625C9.231 4.0725 10.4085 5.25 11.856 5.25ZM11.0573 6C11.646 6.71325 12 7.6275 12 8.625C12 8.75175 11.9888 8.87625 11.9775 9H15.75V8.25C15.75 7.00725 14.7428 6 13.5 6H11.0573ZM15 13.5V10.5H13.5V13.5H10.5V15H13.5V18H15V15H18V13.5H15ZM7.875 6C6.4275 6 5.25 7.1775 5.25 8.625C5.25 10.0725 6.4275 11.25 7.875 11.25C9.3225 11.25 10.5 10.0725 10.5 8.625C10.5 7.1775 9.3225 6 7.875 6ZM3.75 14.25V16.5H9V12H6C4.7595 12 3.75 13.0095 3.75 14.25ZM3.75 8.625C3.75 7.6275 4.104 6.71325 4.69275 6H2.25C1.00725 6 0 7.00725 0 8.25V10.5H4.20375C3.91575 9.93675 3.75 9.30075 3.75 8.625Z" fill="white"/>
</g>
<defs>
<clipPath id="clip0_2416_1076">
<rect width="18" height="18" fill="white"/>
</clipPath>
</defs>
</svg>
