<svg width="17" height="20" viewBox="0 0 17 20" fill="none" xmlns="http://www.w3.org/2000/svg">
<g clip-path="url(#clip0_2407_991)">
<path d="M2.71211 16H13.1494C13.4707 16 13.7872 15.9226 14.0722 15.7745C14.3572 15.6263 14.6023 15.4116 14.7868 15.1486C14.9712 14.8857 15.0897 14.5821 15.132 14.2637C15.1744 13.9453 15.1394 13.6214 15.0301 13.3193L13.1288 8.06266C12.8041 6.89447 12.1056 5.86479 11.1403 5.13111C10.175 4.39743 8.99593 4.00014 7.78345 4V4C6.52126 3.99998 5.29681 4.43039 4.31225 5.22017C3.3277 6.00995 2.64191 7.11187 2.36811 8.344L0.801446 13.4107C0.709206 13.7098 0.68847 14.0264 0.740906 14.335C0.793341 14.6436 0.917485 14.9356 1.10335 15.1875C1.28921 15.4394 1.5316 15.6441 1.81102 15.7852C2.09044 15.9264 2.39908 15.9999 2.71211 16V16Z" fill="#A3AED0"/>
<path d="M4.73315 17.3333C4.88616 18.0868 5.29497 18.7643 5.89032 19.2509C6.48566 19.7375 7.23092 20.0033 7.99982 20.0033C8.76872 20.0033 9.51399 19.7375 10.1093 19.2509C10.7047 18.7643 11.1135 18.0868 11.2665 17.3333H4.73315Z" fill="#A3AED0"/>
</g>
<circle cx="12" cy="5" r="4.5" fill="#FC9A54" stroke="#13182C"/>
<defs>
<clipPath id="clip0_2407_991">
<rect width="16" height="16" fill="white" transform="translate(0 4)"/>
</clipPath>
</defs>
</svg>
