<svg width="18" height="18" viewBox="0 0 18 18" fill="none" xmlns="http://www.w3.org/2000/svg">
<g clip-path="url(#clip0_2416_6882)">
<path d="M16.4711 9.65625C16.3264 11.3661 15.6016 12.9752 14.4167 14.2164C13.2319 15.4577 11.6583 16.2565 9.95699 16.4804C8.25569 16.7044 6.52896 16.3399 5.06329 15.4475C3.59761 14.5551 2.48108 13.1885 1.89894 11.5743C1.3168 9.96006 1.30404 8.19533 1.86277 6.57287C2.42151 4.95041 3.51816 3.56774 4.97078 2.65426C6.42341 1.74077 8.14468 1.35138 9.84904 1.55069C11.5534 1.74999 13.1384 2.52601 14.3411 3.75H11.9996C11.8007 3.75 11.6099 3.82902 11.4692 3.96967C11.3286 4.11032 11.2496 4.30109 11.2496 4.5C11.2496 4.69891 11.3286 4.88968 11.4692 5.03033C11.6099 5.17098 11.8007 5.25 11.9996 5.25H15.1068C15.4761 5.2498 15.8303 5.103 16.0914 4.84185C16.3526 4.58071 16.4994 4.22657 16.4996 3.85725V0.75C16.4996 0.551088 16.4205 0.360322 16.2799 0.21967C16.1392 0.0790177 15.9485 0 15.7496 0V0C15.5507 0 15.3599 0.0790177 15.2192 0.21967C15.0786 0.360322 14.9996 0.551088 14.9996 0.75V2.3085C13.4911 0.960547 11.572 0.160863 9.55267 0.0387835C7.53336 -0.0832959 5.5319 0.479368 3.872 1.63577C2.21211 2.79218 0.990833 4.47471 0.405699 6.41124C-0.179436 8.34777 -0.0942149 10.4251 0.647579 12.3072C1.38937 14.1892 2.74436 15.7661 4.49341 16.7826C6.24245 17.7992 8.28327 18.196 10.2858 17.9089C12.2883 17.6219 14.1355 16.6677 15.5285 15.2007C16.9215 13.7337 17.7789 11.8397 17.9621 9.825C17.9718 9.72056 17.9596 9.61524 17.9263 9.51576C17.8931 9.41629 17.8394 9.32483 17.7689 9.24721C17.6983 9.1696 17.6124 9.10753 17.5165 9.06497C17.4206 9.02241 17.317 9.00028 17.2121 9C17.0291 8.9978 16.8519 9.06378 16.7149 9.18509C16.5779 9.3064 16.491 9.47436 16.4711 9.65625Z" fill="#A3AED0"/>
</g>
<defs>
<clipPath id="clip0_2416_6882">
<rect width="18" height="18" fill="white"/>
</clipPath>
</defs>
</svg>
