<svg width="24" height="24" viewBox="0 0 24 24" fill="none" xmlns="http://www.w3.org/2000/svg">
<g clip-path="url(#clip0_2416_323)">
<path d="M22 0.999847H10.037V3.99985H8V0.999847H6V3.99985H3.963V0.999847H2C1.46957 0.999847 0.960859 1.21056 0.585786 1.58563C0.210714 1.96071 0 2.46941 0 2.99985L0 4.99985C0 5.53028 0.210714 6.03899 0.585786 6.41406C0.960859 6.78913 1.46957 6.99985 2 6.99985H22C22.5304 6.99985 23.0391 6.78913 23.4142 6.41406C23.7893 6.03899 24 5.53028 24 4.99985V2.99985C24 2.46941 23.7893 1.96071 23.4142 1.58563C23.0391 1.21056 22.5304 0.999847 22 0.999847Z" fill="#A3AED0"/>
<path d="M22 9H10.037V12H8V9H6V12H3.963V9H2C1.46957 9 0.960859 9.21071 0.585786 9.58579C0.210714 9.96086 0 10.4696 0 11L0 13C0 13.5304 0.210714 14.0391 0.585786 14.4142C0.960859 14.7893 1.46957 15 2 15H22C22.5304 15 23.0391 14.7893 23.4142 14.4142C23.7893 14.0391 24 13.5304 24 13V11C24 10.4696 23.7893 9.96086 23.4142 9.58579C23.0391 9.21071 22.5304 9 22 9Z" fill="#A3AED0"/>
<path d="M22 17.0002H10.037V20.0002H8V17.0002H6V20.0002H3.963V17.0002H2C1.46957 17.0002 0.960859 17.2109 0.585786 17.5859C0.210714 17.961 0 18.4697 0 19.0002L0 21.0002C0 21.5306 0.210714 22.0393 0.585786 22.4144C0.960859 22.7894 1.46957 23.0002 2 23.0002H22C22.5304 23.0002 23.0391 22.7894 23.4142 22.4144C23.7893 22.0393 24 21.5306 24 21.0002V19.0002C24 18.4697 23.7893 17.961 23.4142 17.5859C23.0391 17.2109 22.5304 17.0002 22 17.0002Z" fill="#A3AED0"/>
</g>
<defs>
<clipPath id="clip0_2416_323">
<rect width="24" height="24" fill="white"/>
</clipPath>
</defs>
</svg>
