<svg width="21" height="20" viewBox="0 0 21 20" fill="none" xmlns="http://www.w3.org/2000/svg">
<g clip-path="url(#clip0_2407_991)">
<path d="M6.58533 12.3642C6.96104 12.7384 7.46972 12.9485 8 12.9485C8.53027 12.9485 9.03895 12.7384 9.41466 12.3642L15.854 5.9242C15.7058 5.55352 15.45 5.23569 15.1195 5.01161C14.7891 4.78753 14.3992 4.66747 14 4.66687H2C1.60077 4.66747 1.21086 4.78753 0.880445 5.01161C0.550033 5.23569 0.294242 5.55352 0.145996 5.9242L6.58533 12.3642Z" fill="#A3AED0"/>
<path d="M10.3573 13.3069C9.73158 13.931 8.88383 14.2816 8 14.2816C7.11617 14.2816 6.26842 13.931 5.64267 13.3069L0 7.66687V19.3335H16V7.66687L10.3573 13.3069Z" fill="#A3AED0"/>
</g>
<circle cx="16" cy="5" r="4.5" fill="#4CCE82" stroke="#13182C"/>
<defs>
<clipPath id="clip0_2407_991">
<rect width="16" height="16" fill="white" transform="translate(0 4)"/>
</clipPath>
</defs>
</svg>
