<svg width="24" height="24" viewBox="0 0 24 24" fill="none" xmlns="http://www.w3.org/2000/svg">
<g clip-path="url(#clip0_2407_965)">
<path d="M2 3.5C2 1.57 3.57 0 5.5 0C7.43 0 9 1.57 9 3.5C9 5.43 7.43 7 5.5 7C3.57 7 2 5.43 2 3.5ZM15.808 7C17.738 7 19.308 5.43 19.308 3.5C19.308 1.57 17.738 0 15.808 0C13.878 0 12.308 1.57 12.308 3.5C12.308 5.43 13.878 7 15.808 7ZM14.743 8C15.528 8.951 16 10.17 16 11.5C16 11.669 15.985 11.835 15.97 12H21V11C21 9.343 19.657 8 18 8H14.743ZM20 18V14H18V18H14V20H18V24H20V20H24V18H20ZM10.5 8C8.57 8 7 9.57 7 11.5C7 13.43 8.57 15 10.5 15C12.43 15 14 13.43 14 11.5C14 9.57 12.43 8 10.5 8ZM5 19V22H12V16H8C6.346 16 5 17.346 5 19ZM5 11.5C5 10.17 5.472 8.951 6.257 8H3C1.343 8 0 9.343 0 11V14H5.605C5.221 13.249 5 12.401 5 11.5Z" fill="#A3AED0"/>
</g>
<defs>
<clipPath id="clip0_2407_965">
<rect width="24" height="24" fill="white"/>
</clipPath>
</defs>
</svg>
