<svg width="177" height="40" viewBox="0 0 177 40" fill="none" xmlns="http://www.w3.org/2000/svg">
<g id="Traced Image" clip-path="url(#clip0_2486_2828)">
<path id="Vector" fill-rule="evenodd" clip-rule="evenodd" d="M4.31329 4.4983L0.0175781 9.00001L3.00901 9.02516L6.00044 9.0503V24.5252V40H8.6671H11.3338V24.5252V9.0503L14.3262 9.02516L17.3185 9.00001L13.0359 4.52382C10.6803 2.06192 8.72072 0.0361072 8.6811 0.0221072C8.64148 0.00801198 6.67596 2.0223 4.31329 4.4983ZM27.5522 4.49849L23.256 9.00001L26.2473 9.02516L29.2385 9.0503V24.5252V40H31.9052H34.5719V24.5252V9.0503L37.5612 9.02516L40.5505 9.00001L36.2692 4.52382C33.9144 2.06192 31.9564 0.0362025 31.9182 0.0222977C31.8799 0.00839293 29.9152 2.02268 27.5522 4.49849ZM65.5684 11.6697C65.0155 11.8741 64.5583 12.2866 64.2436 12.8647C64.0155 13.2838 63.9692 13.4815 63.9682 14.0414C63.9668 14.8125 64.1152 15.2273 64.5831 15.7601C65.0511 16.2932 65.7089 16.5693 66.5132 16.5705C67.381 16.5717 67.8277 16.4255 68.3434 15.9716C68.891 15.4896 69.157 14.9609 69.2142 14.2409C69.3 13.161 68.8779 12.3439 67.9826 11.8567C67.5679 11.6309 67.3444 11.5777 66.7159 11.5551C66.2123 11.537 65.8221 11.576 65.5684 11.6697ZM16.0594 17.2062L11.7084 21.7619L14.4735 21.7872L17.2385 21.8124V30.9062V40H20.2862H23.3338V30.9061V21.8123L26.239 21.7871L29.1442 21.7619L25.185 17.6191C23.0074 15.3405 21.0422 13.2904 20.818 13.0633L20.4103 12.6505L16.0594 17.2062ZM90.4766 23.4744V34.1905H92.6152H94.7537L94.7819 29.6429C94.8098 25.131 94.8117 25.091 95.0322 24.5446C95.1545 24.2416 95.392 23.8131 95.56 23.5922C96.7114 22.0779 99.4545 22.0303 100.392 23.5084C100.985 24.4429 100.987 24.4584 101.025 29.5476L101.061 34.1905H103.197H105.334L105.331 29.6905C105.328 23.8065 105.242 22.9554 104.496 21.4286C104.067 20.5522 103.163 19.6127 102.316 19.1643C100.183 18.0354 97.0722 18.2929 95.2385 19.7499L94.81 20.0905L94.7624 16.45L94.7147 12.8095L92.5957 12.7839L90.4766 12.7583V23.4744ZM172.191 23.4744V34.1905H174.334H176.477L176.453 23.5L176.429 12.8095L174.31 12.7839L172.191 12.7583V23.4744ZM43.5243 24.0953V34.1905H45.7147H47.9052V30.0953V26H52.1433H56.3814V30.0953V34.1905H58.6195H60.8576V24.0953V14H58.6195H56.3814V17.9524V21.9048H52.1433H47.9052V17.9524V14H45.7147H43.5243V24.0953ZM108.858 24.0953V34.1905H115.762H122.667V32.2857V30.381H118H113.334V22.1905V14H111.096H108.858V24.0953ZM76.6195 18.6102C74.3468 19.1288 72.4406 20.7575 71.5687 22.9258C71.167 23.9248 71.0188 24.9441 71.0744 26.3256C71.134 27.8047 71.2808 28.4098 71.8739 29.6191C72.2494 30.3848 72.4505 30.6561 73.1828 31.3848C74.651 32.8457 76.1084 33.4423 78.2385 33.4546C79.9877 33.4646 81.2588 33.0484 82.2781 32.1321L82.7624 31.6967L82.7612 32.4435C82.7593 33.7095 82.4283 34.6241 81.7119 35.3435C80.6319 36.4279 78.3146 36.6591 75.9968 35.9136C75.1466 35.6403 74.0341 35.0795 73.8128 34.813C73.7461 34.7325 73.6358 34.6667 73.5678 34.6667C73.4999 34.6667 73.0733 35.3845 72.62 36.2618L71.7958 37.857L72.16 38.1628C73.004 38.8713 74.845 39.5724 76.6166 39.8597C77.8689 40.0629 80.2101 40.0427 81.2917 39.8194C84.4967 39.158 86.3262 37.229 86.8943 33.9118C87.0265 33.1398 87.0481 32.009 87.0481 25.8404V18.6667H85.0481H83.0481V19.5999V20.5332L82.4868 19.9874C81.925 19.4411 81.114 18.9634 80.2943 18.6963C79.6759 18.4947 77.3632 18.4405 76.6195 18.6102ZM128.905 18.6707C127.377 19.0554 125.842 20.0314 124.899 21.217C124.359 21.8965 123.595 23.4519 123.37 24.3333C123.111 25.3448 123.135 27.6881 123.414 28.7092C124.021 30.9277 125.387 32.6024 127.381 33.5756C128.682 34.2103 129.656 34.4166 131.381 34.4229C133.124 34.4292 133.954 34.2632 135.221 33.6544C135.882 33.3365 136.28 33.0632 136.789 32.5786L137.47 31.9289L136.346 30.6311C135.728 29.9173 135.203 29.3333 135.18 29.3333C135.157 29.3333 134.917 29.5078 134.647 29.7212C134.005 30.2287 133.566 30.4461 132.837 30.618C132.147 30.7806 130.999 30.8008 130.392 30.6609C129.244 30.3962 128.242 29.6236 127.78 28.6467C127.343 27.7233 126.811 27.8095 132.94 27.8095H138.355L138.419 27.0208C138.537 25.5637 138.206 23.7376 137.606 22.5401C136.658 20.6475 135.2 19.3995 133.191 18.7589C132.209 18.4457 129.98 18.3998 128.905 18.6707ZM160.572 18.6186C158.283 19.1308 156.503 20.5264 155.469 22.6191C154.801 23.9721 154.638 24.7285 154.638 26.4762C154.638 28.1925 154.802 28.9721 155.429 30.2381C156.405 32.2079 158.25 33.6453 160.524 34.2073C161.749 34.5101 163.965 34.5112 165.175 34.2095C166.547 33.8675 167.973 33.0348 168.655 32.1772C168.88 31.8944 168.88 31.8929 168.693 31.6849C168.59 31.5701 168.078 30.9803 167.556 30.3742L166.606 29.2723L166.189 29.6314C165.301 30.3961 164.26 30.7589 162.953 30.7593C161.22 30.76 159.874 29.9936 159.234 28.6422C159.08 28.3152 158.953 27.9941 158.953 27.9286C158.953 27.8348 160.1 27.8095 164.373 27.8095H169.793L169.861 26.9976C169.997 25.3562 169.547 23.3248 168.743 21.9524C168.177 20.9866 166.998 19.8545 166.048 19.3645C164.765 18.7025 164.149 18.5517 162.572 18.5135C161.601 18.49 161.007 18.5212 160.572 18.6186ZM64.4766 26.4286V34.1905H66.6195H68.7623V26.4286V18.6667H66.6195H64.4766V26.4286ZM138.287 18.6905C138.287 18.7035 139.649 22.1857 141.313 26.4286L144.338 34.1429H146.572H148.805L151.828 26.4762C153.49 22.2595 154.852 18.7766 154.854 18.7362C154.856 18.6959 153.931 18.6745 152.798 18.6886L150.739 18.7143L148.732 23.8333C147.628 26.6489 146.699 28.9524 146.667 28.9524C146.635 28.9524 145.733 26.6387 144.662 23.8109L142.715 18.6692L140.5 18.668C139.283 18.6673 138.287 18.6774 138.287 18.6905ZM130.129 21.998C128.862 22.2673 127.727 23.4369 127.466 24.7441L127.405 25.0476H130.905H134.405L134.345 24.7381C134.151 23.7405 133.294 22.6655 132.348 22.2322C131.787 21.9754 130.751 21.8661 130.129 21.998ZM161.466 22.0334C160.204 22.3547 159.173 23.4436 158.906 24.7381L158.842 25.0476H162.338H165.834L165.774 24.75C165.567 23.7139 164.752 22.6765 163.807 22.2454C163.157 21.9488 162.154 21.858 161.466 22.0334ZM78.3029 22.2924C76.7584 22.5963 75.6811 23.7279 75.4177 25.3229C75.1992 26.6456 75.6088 27.9087 76.5288 28.7494C77.9693 30.066 80.4322 30.0221 81.7987 28.6554C83.1391 27.3151 83.2044 24.8408 81.9366 23.4308C81.3787 22.8102 80.8505 22.5051 80.0351 22.3323C79.3144 22.1796 78.922 22.1706 78.3029 22.2924Z" fill="#A3AED0"/>
</g>
<defs>
<clipPath id="clip0_2486_2828">
<rect width="176.476" height="40" fill="white"/>
</clipPath>
</defs>
</svg>
