<svg width="542" height="542" viewBox="0 0 542 542" fill="none" xmlns="http://www.w3.org/2000/svg">
<g clip-path="url(#clip0_2403_471)">
<path d="M243.152 302.205L208.417 291.56C202.4 289.718 197.15 293.34 196.729 299.083L194.078 335.38C193.906 337.716 196.561 340.358 199.991 341.41L219.813 347.484C223.247 348.536 227.006 347.86 228.283 345.861L248.114 314.828C251.252 309.92 249.172 304.047 243.155 302.205H243.152Z" fill="white"/>
<path d="M240.756 296.477L204.598 285.397C198.335 283.478 193.062 287.524 192.84 293.779L191.453 332.776C191.364 335.255 194.143 338.021 197.657 339.097L217.932 345.31C221.443 346.385 225.244 345.639 226.491 343.513L246.124 310.107C249.273 304.746 247.015 298.396 240.756 296.477Z" fill="#5177FF"/>
<path d="M221.126 346.445C220.027 346.445 218.871 346.279 217.74 345.932L197.464 339.719C193.631 338.543 190.704 335.483 190.801 332.75L192.188 293.752C192.303 290.494 193.749 287.645 196.152 285.933C198.563 284.215 201.632 283.801 204.791 284.769L240.948 295.849C244.118 296.821 246.467 298.903 247.56 301.71C248.639 304.48 248.322 307.661 246.69 310.436L227.057 343.841C226.082 345.5 223.76 346.445 221.129 346.445H221.126ZM201.502 285.566C199.813 285.566 198.24 286.049 196.907 286.996C194.836 288.471 193.592 290.95 193.491 293.8L192.105 332.797C192.028 334.932 194.605 337.476 197.846 338.472L218.122 344.685C221.354 345.678 224.859 345.002 225.928 343.181L245.561 309.775C246.989 307.347 247.273 304.58 246.34 302.184C245.395 299.756 243.345 297.952 240.563 297.099L204.405 286.019C203.416 285.717 202.441 285.566 201.499 285.566H201.502Z" fill="white"/>
<path d="M190.064 277.048L188.926 277.226C186.698 277.572 185.22 279.974 185.626 282.595L189.181 305.427L198.391 304L194.836 281.168C194.431 278.55 192.295 276.704 190.064 277.051V277.048Z" fill="#13182C"/>
<path d="M189.178 306.079C188.861 306.079 188.583 305.848 188.532 305.528L184.977 282.696C184.518 279.725 186.242 276.983 188.822 276.583L189.96 276.405C191.231 276.21 192.508 276.598 193.557 277.501C194.576 278.381 195.257 279.645 195.479 281.067L199.034 303.899C199.061 304.071 199.019 304.246 198.916 304.385C198.812 304.524 198.658 304.619 198.489 304.645L189.279 306.073C189.246 306.079 189.211 306.082 189.178 306.082V306.079ZM190.162 277.694L189.024 277.871C187.155 278.162 185.919 280.235 186.269 282.495L189.723 304.681L197.645 303.452L194.191 281.265C194.019 280.152 193.491 279.166 192.706 278.487C191.954 277.836 191.05 277.551 190.165 277.691L190.162 277.694Z" fill="white"/>
<path d="M199.858 305.22C199.357 301.989 196.329 299.773 193.094 300.274C189.862 300.774 187.646 303.801 188.147 307.036C188.648 310.267 191.675 312.482 194.91 311.982C198.143 311.481 200.359 308.454 199.858 305.22Z" fill="#13182C"/>
<path d="M194.001 312.704C190.813 312.704 188.008 310.379 187.504 307.136C187.235 305.401 187.658 303.665 188.695 302.246C189.732 300.828 191.261 299.901 192.997 299.631C196.575 299.071 199.947 301.539 200.504 305.119C201.061 308.703 198.596 312.071 195.011 312.624C194.671 312.678 194.333 312.701 194.001 312.701V312.704ZM194.007 300.857C193.74 300.857 193.468 300.878 193.195 300.92C191.803 301.136 190.579 301.879 189.75 303.017C188.917 304.154 188.58 305.546 188.796 306.935C189.24 309.805 191.942 311.783 194.813 311.336C197.683 310.892 199.659 308.191 199.215 305.321C198.812 302.723 196.561 300.857 194.01 300.857H194.007Z" fill="white"/>
<path d="M237.512 310.581L238.587 310.996C240.69 311.81 243.066 310.738 243.89 308.605L252.558 286.126L243.863 282.764L235.195 305.244C234.371 307.376 235.408 309.766 237.512 310.578V310.581Z" fill="#13182C"/>
<path d="M240.045 311.925C239.473 311.925 238.901 311.819 238.353 311.609L237.278 311.194C234.842 310.252 233.634 307.48 234.588 305.016L243.256 282.536C243.318 282.373 243.443 282.243 243.6 282.175C243.76 282.104 243.937 282.101 244.1 282.163L252.792 285.524C253.127 285.655 253.296 286.031 253.166 286.369L244.497 308.848C244.035 310.042 243.143 310.987 241.985 311.508C241.363 311.789 240.702 311.928 240.042 311.928L240.045 311.925ZM244.239 283.614L235.805 305.484C235.112 307.279 235.983 309.292 237.749 309.974L238.824 310.388C239.677 310.72 240.61 310.69 241.452 310.311C242.296 309.932 242.945 309.242 243.283 308.371L251.717 286.502L244.242 283.611L244.239 283.614Z" fill="white"/>
<path d="M243.179 281.043C241.982 284.138 243.487 287.601 246.538 288.779C249.59 289.958 253.035 288.409 254.232 285.314C255.429 282.219 253.924 278.757 250.872 277.578C247.821 276.399 244.376 277.951 243.179 281.043Z" fill="#13182C"/>
<path d="M248.642 289.828C247.863 289.828 247.072 289.686 246.301 289.39C244.66 288.756 243.368 287.512 242.666 285.889C241.964 284.269 241.929 282.465 242.569 280.806C243.893 277.383 247.726 275.659 251.107 276.968C254.49 278.277 256.164 282.127 254.839 285.551C253.814 288.199 251.296 289.828 248.642 289.828ZM243.789 281.277C243.274 282.613 243.3 284.064 243.866 285.367C244.432 286.668 245.463 287.663 246.775 288.169C249.489 289.218 252.561 287.832 253.625 285.077C254.688 282.323 253.349 279.231 250.638 278.182C247.928 277.137 244.856 278.52 243.789 281.274V281.277Z" fill="white"/>
<path d="M225.851 305.051L226.921 305.481C229.012 306.325 231.539 304.945 232.567 302.403L241.496 280.226L232.852 276.743L223.923 298.92C222.897 301.465 223.763 304.21 225.854 305.051H225.851Z" fill="#13182C"/>
<path d="M228.197 306.378C227.682 306.378 227.169 306.283 226.678 306.085L225.611 305.652C224.414 305.17 223.523 304.163 223.096 302.815C222.687 301.512 222.764 300.043 223.315 298.672L232.244 276.494C232.309 276.334 232.434 276.204 232.594 276.136C232.754 276.068 232.934 276.068 233.094 276.13L241.739 279.613C242.074 279.749 242.234 280.128 242.101 280.463L233.171 302.64C232.247 304.93 230.212 306.375 228.197 306.375V306.378ZM233.213 277.59L224.527 299.16C224.088 300.25 224.02 301.408 224.34 302.424C224.645 303.393 225.267 304.109 226.097 304.444L227.163 304.877C228.92 305.587 231.071 304.364 231.96 302.161L240.646 280.59L233.213 277.593V277.59Z" fill="white"/>
<path d="M232.46 274.382C230.704 277.14 231.515 280.803 234.274 282.56C237.032 284.316 240.696 283.504 242.453 280.747C244.21 277.99 243.398 274.326 240.64 272.57C237.882 270.813 234.217 271.625 232.46 274.382Z" fill="#13182C"/>
<path d="M237.446 284.138C236.238 284.138 235.017 283.807 233.924 283.111C232.443 282.166 231.418 280.703 231.036 278.988C230.656 277.273 230.967 275.514 231.909 274.033C233.859 270.976 237.932 270.073 240.993 272.019C244.05 273.968 244.953 278.04 243.007 281.097C241.754 283.063 239.624 284.138 237.449 284.138H237.446ZM237.467 272.297C235.722 272.297 234.016 273.159 233.012 274.735C232.253 275.922 232.007 277.332 232.309 278.706C232.615 280.081 233.435 281.254 234.623 282.012C237.076 283.573 240.341 282.85 241.902 280.398C243.463 277.948 242.74 274.684 240.29 273.121C239.414 272.564 238.436 272.297 237.467 272.297Z" fill="white"/>
<path d="M225.786 245.514L224.767 244.978C222.77 243.93 220.288 244.72 219.224 246.746L210.203 263.963C209.009 266.24 209.886 269.054 212.164 270.251C214.445 271.447 217.263 270.568 218.46 268.287L227.478 251.076C228.541 249.05 227.783 246.56 225.786 245.511V245.514Z" fill="#13182C"/>
<path d="M214.324 271.441C213.474 271.441 212.632 271.234 211.859 270.831C209.267 269.472 208.266 266.255 209.622 263.664L218.643 246.447C219.873 244.107 222.752 243.192 225.066 244.404L226.085 244.94C228.399 246.154 229.279 249.045 228.049 251.384L219.031 268.592C218.374 269.851 217.263 270.775 215.906 271.198C215.385 271.361 214.848 271.441 214.318 271.441H214.324ZM222.895 245.171C221.647 245.171 220.43 245.855 219.805 247.051L210.784 264.268C209.759 266.223 210.517 268.648 212.469 269.673C213.42 270.171 214.505 270.271 215.527 269.952C216.549 269.632 217.387 268.936 217.882 267.988L226.9 250.777C227.795 249.074 227.158 246.974 225.484 246.095L224.465 245.559C223.964 245.295 223.428 245.171 222.895 245.171Z" fill="white"/>
<path d="M203.217 294.54L204.308 294.91C206.444 295.636 208.867 294.194 209.723 291.682L217.162 269.804L208.34 266.8L200.901 288.679C200.045 291.187 201.084 293.811 203.22 294.537L203.217 294.54Z" fill="#13182C"/>
<path d="M205.451 295.754C204.992 295.754 204.539 295.68 204.097 295.529L203.007 295.159C200.533 294.318 199.31 291.318 200.282 288.471L207.72 266.593C207.777 266.43 207.895 266.294 208.052 266.217C208.209 266.14 208.387 266.128 208.55 266.184L217.372 269.187C217.713 269.303 217.897 269.673 217.781 270.017L210.342 291.895C209.877 293.255 208.988 294.383 207.83 295.073C207.072 295.523 206.26 295.754 205.454 295.754H205.451ZM203.428 293.924L204.518 294.294C205.368 294.584 206.304 294.46 207.161 293.951C208.049 293.42 208.74 292.541 209.104 291.475L216.332 270.215L208.745 267.633L201.517 288.892C200.779 291.057 201.635 293.314 203.428 293.924Z" fill="white"/>
<path d="M218.469 271.059C219.565 267.976 217.956 264.591 214.872 263.495C211.788 262.399 208.402 264.007 207.306 267.091C206.21 270.174 207.818 273.559 210.902 274.655C213.986 275.751 217.372 274.142 218.469 271.059Z" fill="#13182C"/>
<path d="M212.893 275.653C212.149 275.653 211.406 275.526 210.686 275.271C207.267 274.054 205.478 270.286 206.692 266.871C207.282 265.216 208.479 263.889 210.067 263.137C211.655 262.381 213.441 262.293 215.094 262.879C218.51 264.093 220.302 267.864 219.088 271.278C218.498 272.934 217.301 274.261 215.713 275.013C214.819 275.44 213.859 275.653 212.893 275.653ZM212.884 263.803C212.111 263.803 211.344 263.975 210.624 264.315C209.353 264.92 208.393 265.983 207.919 267.31C207.448 268.637 207.519 270.067 208.123 271.338C208.728 272.608 209.791 273.568 211.118 274.042C212.446 274.513 213.877 274.442 215.148 273.837C216.418 273.233 217.378 272.17 217.852 270.843C218.827 268.106 217.39 265.085 214.653 264.111C214.075 263.907 213.477 263.803 212.884 263.803Z" fill="white"/>
<path d="M214.97 299.593C217.357 300.549 220.071 299.391 221.031 297.004L229.474 275.958C229.631 275.567 229.442 275.126 229.051 274.969L221.81 272.066C221.419 271.909 220.978 272.099 220.821 272.49L212.377 293.536C211.421 295.923 212.579 298.636 214.967 299.596L214.97 299.593Z" fill="#13182C"/>
<path d="M216.706 300.582C216.036 300.582 215.367 300.455 214.727 300.197C213.408 299.67 212.378 298.66 211.818 297.357C211.261 296.051 211.243 294.608 211.773 293.29L220.216 272.244C220.356 271.894 220.625 271.619 220.972 271.471C221.318 271.323 221.701 271.32 222.053 271.459L229.294 274.362C229.643 274.501 229.919 274.77 230.067 275.117C230.215 275.463 230.218 275.848 230.079 276.198L221.635 297.244C221.108 298.562 220.098 299.593 218.791 300.153C218.122 300.44 217.414 300.582 216.703 300.582H216.706ZM221.535 272.665C221.49 272.665 221.443 272.691 221.425 272.73L212.982 293.776C212.585 294.768 212.597 295.858 213.017 296.841C213.438 297.825 214.217 298.586 215.21 298.986C216.202 299.382 217.292 299.371 218.276 298.95C219.259 298.529 220.021 297.751 220.421 296.758L228.864 275.712C228.882 275.665 228.852 275.591 228.805 275.573L221.564 272.67C221.564 272.67 221.544 272.665 221.532 272.665H221.535Z" fill="white"/>
<path d="M221.446 269.65C219.748 272.445 220.637 276.088 223.434 277.785C226.23 279.483 229.874 278.594 231.572 275.798C233.269 273.002 232.38 269.359 229.584 267.662C226.787 265.965 223.143 266.854 221.446 269.65Z" fill="#13182C"/>
<path d="M226.497 279.299C225.333 279.299 224.157 278.991 223.093 278.345C221.591 277.433 220.536 275.991 220.119 274.285C219.701 272.579 219.973 270.81 220.886 269.309C221.798 267.807 223.241 266.753 224.948 266.335C226.657 265.918 228.423 266.19 229.925 267.102C233.023 268.983 234.013 273.038 232.132 276.136C230.896 278.17 228.722 279.296 226.5 279.296L226.497 279.299ZM226.518 267.452C226.1 267.452 225.676 267.502 225.259 267.603C223.89 267.938 222.735 268.785 222.003 269.987C221.271 271.19 221.052 272.605 221.387 273.974C221.721 275.342 222.566 276.497 223.771 277.229C226.254 278.736 229.504 277.945 231.015 275.46C231.747 274.258 231.963 272.842 231.631 271.474C231.296 270.106 230.449 268.951 229.246 268.219C228.411 267.713 227.472 267.452 226.518 267.452Z" fill="white"/>
<path d="M211.184 329.471C199.624 326.166 187.16 333.452 182.622 346.163L150.967 438.182C145.943 452.256 152.561 467.349 165.359 471.01L175.044 473.779C187.842 477.44 201.443 468.128 204.625 453.527L226.595 358.736C229.468 345.547 222.743 332.776 211.184 329.468V329.471Z" fill="#13182C"/>
<path d="M180.729 475.23C178.756 475.23 176.789 474.958 174.863 474.407L165.179 471.638C159.331 469.964 154.493 465.895 151.554 460.179C148.129 453.515 147.691 445.417 150.351 437.963L182.006 345.95C186.639 332.972 199.532 325.455 211.364 328.843C223.197 332.225 230.167 345.417 227.235 358.875L205.262 453.672C203.576 461.399 198.922 468.039 192.49 471.884C188.787 474.096 184.752 475.227 180.732 475.227L180.729 475.23ZM205.57 329.338C196.11 329.338 186.929 336.037 183.235 346.38L151.581 438.392C149.039 445.518 149.45 453.236 152.712 459.581C155.485 464.974 160.039 468.809 165.534 470.382L175.219 473.151C180.714 474.724 186.609 473.877 191.812 470.764C197.935 467.103 202.37 460.771 203.979 453.388L225.952 358.591C228.737 345.811 222.169 333.295 210.997 330.099C209.202 329.586 207.377 329.338 205.564 329.338H205.57Z" fill="white"/>
<path d="M85.6645 346.415H105.454C109.162 346.415 112.167 343.41 112.167 339.704V309.823C112.167 306.116 109.162 303.111 105.454 303.111H85.6645C81.9569 303.111 78.9514 306.116 78.9514 309.823V339.704C78.9514 343.41 81.9569 346.415 85.6645 346.415Z" fill="#5177FF"/>
<path d="M105.454 347.067H85.6615C81.5998 347.067 78.2966 343.764 78.2966 339.704V309.823C78.2966 305.762 81.5998 302.46 85.6615 302.46H105.454C109.516 302.46 112.819 305.762 112.819 309.823V339.704C112.819 343.764 109.516 347.067 105.454 347.067ZM85.6615 303.766C82.3197 303.766 79.6001 306.485 79.6001 309.826V339.707C79.6001 343.048 82.3197 345.766 85.6615 345.766H105.454C108.796 345.766 111.515 343.048 111.515 339.707V309.826C111.515 306.485 108.796 303.766 105.454 303.766H85.6615Z" fill="white"/>
<path d="M53.6009 332.652H160.51C172.831 332.652 182.462 344.753 181.244 358.709L170.736 479.294C169.64 491.861 160.353 501.433 149.261 501.433H64.8526C53.7579 501.433 44.4704 491.858 43.3773 479.294L32.8692 358.709C31.6516 344.753 41.2828 332.652 53.6039 332.652H53.6009Z" fill="#13182C"/>
<path d="M149.264 502.087H64.8526C53.3669 502.087 43.8543 492.314 42.7255 479.35L32.2175 358.765C31.5657 351.287 33.9328 344.007 38.7143 338.791C42.7315 334.411 48.0196 331.997 53.6039 331.997H160.513C166.097 331.997 171.385 334.411 175.402 338.791C180.181 344.004 182.551 351.284 181.899 358.765L171.391 479.35C170.262 492.311 160.75 502.087 149.264 502.087ZM53.601 333.306C48.3869 333.306 43.4425 335.569 39.6741 339.677C35.1415 344.62 32.8959 351.539 33.515 358.653L44.0231 479.238C45.0926 491.52 54.0453 500.781 64.8497 500.781H149.264C160.065 500.781 169.021 491.52 170.09 479.238L180.599 358.653C181.218 351.539 178.975 344.62 174.439 339.677C170.671 335.569 165.727 333.306 160.513 333.306H53.601Z" fill="white"/>
<path d="M103.825 315.788C121.135 315.788 135.168 301.758 135.168 284.452V254.349C135.168 237.044 121.135 223.014 103.825 223.014H87.2877C69.9777 223.014 55.9442 237.044 55.9442 254.349V267.92C55.9442 294.356 77.381 315.788 103.825 315.788Z" fill="#13182C"/>
<path d="M103.825 316.439C77.0611 316.439 55.2896 294.673 55.2896 267.917V254.346C55.2896 236.706 69.643 222.356 87.2878 222.356H103.825C121.469 222.356 135.823 236.706 135.823 254.346V284.449C135.823 302.089 121.469 316.439 103.825 316.439ZM87.2878 223.662C70.3658 223.662 56.596 237.426 56.596 254.346V267.917C56.596 293.951 77.781 315.133 103.825 315.133C120.747 315.133 134.516 301.37 134.516 284.449V254.346C134.516 237.429 120.747 223.662 103.825 223.662H87.2878Z" fill="white"/>
<path d="M101.416 320.648H120.868C130.082 320.648 137.547 312.423 137.547 302.276V293.207H141.182C144.236 293.207 146.174 289.603 144.708 286.653L139.111 271.995C138.08 269.291 137.547 266.389 137.547 263.456V255.128C137.547 246.444 131.157 239.404 123.271 239.404H109.089C90.8251 239.404 76.0214 255.711 76.0214 275.825V292.68C76.0214 308.126 87.3886 320.648 101.413 320.648H101.416Z" fill="#13182C"/>
<path d="M120.868 321.299H101.416C87.0538 321.299 75.3726 308.46 75.3726 292.68V275.825C75.3726 255.383 90.4992 238.75 109.092 238.75H123.274C131.506 238.75 138.202 246.095 138.202 255.125V263.453C138.202 266.32 138.714 269.116 139.722 271.758L145.318 286.416C146.124 288.027 146.032 290.044 145.054 291.62C144.174 293.041 142.764 293.856 141.182 293.856H138.202V302.273C138.202 312.764 130.425 321.299 120.868 321.299ZM109.092 240.056C91.2191 240.056 76.679 256.102 76.679 275.825V292.68C76.679 307.74 87.7767 319.993 101.416 319.993H120.868C129.705 319.993 136.895 312.044 136.895 302.273V293.204C136.895 292.843 137.189 292.553 137.547 292.553H141.182C142.299 292.553 143.306 291.963 143.943 290.936C144.684 289.742 144.752 288.211 144.121 286.943L138.501 272.226C137.435 269.433 136.895 266.483 136.895 263.453V255.125C136.895 246.814 130.784 240.056 123.274 240.056H109.092Z" fill="white"/>
<path d="M138.942 293.859H133.702C133.34 293.859 133.05 293.566 133.05 293.207C133.05 292.849 133.343 292.556 133.702 292.556H138.942C139.304 292.556 139.594 292.849 139.594 293.207C139.594 293.566 139.301 293.859 138.942 293.859Z" fill="white"/>
<path d="M67.3351 295.731H84.5267C87.5045 295.731 89.9185 293.317 89.9185 290.34V260.575C89.9185 257.598 87.5045 255.184 84.5267 255.184H67.3351C64.3573 255.184 61.9433 257.598 61.9433 260.575V290.34C61.9433 293.317 64.3573 295.731 67.3351 295.731Z" fill="white"/>
<path d="M65.1014 297.765H82.2929C85.2707 297.765 87.6847 295.352 87.6847 292.375V262.609C87.6847 259.632 85.2707 257.219 82.2929 257.219H65.1014C62.1236 257.219 59.7096 259.632 59.7096 262.609V292.375C59.7096 295.352 62.1236 297.765 65.1014 297.765Z" fill="#FC9A54"/>
<path d="M82.2929 298.42H65.1014C61.7686 298.42 59.0579 295.71 59.0579 292.378V262.612C59.0579 259.28 61.7686 256.57 65.1014 256.57H82.2929C85.6258 256.57 88.3365 259.28 88.3365 262.612V292.378C88.3365 295.71 85.6258 298.42 82.2929 298.42ZM65.1014 257.874C62.4885 257.874 60.3643 260 60.3643 262.609V292.375C60.3643 294.987 62.4885 297.111 65.1014 297.111H82.2929C84.9059 297.111 87.03 294.984 87.03 292.375V262.609C87.03 259.997 84.9029 257.874 82.2929 257.874H65.1014Z" fill="white"/>
<path d="M148.325 500.316H65.4125C61.8833 500.316 59.0223 503.177 59.0223 506.705V518.309C59.0223 521.837 61.8833 524.697 65.4125 524.697H148.325C151.854 524.697 154.715 521.837 154.715 518.309V506.705C154.715 503.177 151.854 500.316 148.325 500.316Z" fill="#13182C"/>
<path d="M148.325 525.352H65.4125C61.5287 525.352 58.3706 522.195 58.3706 518.312V506.708C58.3706 502.825 61.5287 499.668 65.4125 499.668H148.325C152.209 499.668 155.367 502.825 155.367 506.708V518.312C155.367 522.195 152.209 525.352 148.325 525.352ZM65.4125 500.971C62.2486 500.971 59.6741 503.545 59.6741 506.708V518.312C59.6741 521.475 62.2486 524.049 65.4125 524.049H148.325C151.489 524.049 154.063 521.475 154.063 518.312V506.708C154.063 503.545 151.489 500.971 148.325 500.971H65.4125Z" fill="white"/>
<path d="M157.639 529.946L223.78 538.627C228.775 539.281 234.048 535.12 235.559 529.33L264.177 419.751C265.691 413.961 262.868 408.736 257.873 408.079L191.732 399.398C186.737 398.743 181.464 402.904 179.953 408.695L151.335 518.273C149.821 524.064 152.644 529.288 157.639 529.946Z" fill="white"/>
<path d="M159.855 532.599L225.996 541.28C230.991 541.935 236.264 537.774 237.775 531.983L266.393 422.405C267.907 416.614 265.084 411.39 260.089 410.732L193.948 402.051C188.953 401.397 183.679 405.558 182.169 411.348L153.551 520.927C152.04 526.717 154.86 531.942 159.855 532.599Z" fill="#13182C"/>
<path d="M227.03 542C226.657 542 226.284 541.976 225.913 541.926L159.772 533.245C157.455 532.943 155.456 531.696 154.14 529.741C152.508 527.319 152.066 524.046 152.923 520.761L181.541 411.183C183.131 405.093 188.734 400.704 194.037 401.403L260.178 410.084C262.492 410.386 264.494 411.633 265.81 413.587C267.442 416.01 267.886 419.283 267.027 422.567L238.409 532.146C236.931 537.809 231.978 542 227.03 542ZM159.941 531.954L226.082 540.635C230.748 541.242 235.713 537.294 237.144 531.817L265.762 422.239C266.524 419.318 266.147 416.431 264.725 414.319C263.62 412.678 261.944 411.636 260.006 411.381L193.865 402.7C189.187 402.09 184.231 406.041 182.803 411.517L154.185 521.096C153.42 524.016 153.8 526.904 155.222 529.016C156.327 530.656 158.003 531.702 159.941 531.954Z" fill="white"/>
<path d="M183.73 511.687L183.531 476.69C183.496 470.631 178.652 466.846 173.251 468.11L139.105 476.11C136.904 476.625 135.239 479.824 135.26 483.28L135.373 503.248C135.393 506.708 137.094 509.969 139.301 510.567L173.548 519.873C178.963 521.345 183.765 517.743 183.733 511.684L183.73 511.687Z" fill="white"/>
<path d="M188.31 507.836L188.103 471.41C188.067 465.101 182.829 461.414 177.011 463.01L140.744 472.953C138.439 473.584 136.694 476.936 136.715 480.473L136.83 500.9C136.851 504.436 138.631 507.715 140.945 508.251L177.316 516.692C183.152 518.045 188.345 514.145 188.31 507.836Z" fill="#5177FF"/>
<path d="M179.597 517.61C178.797 517.61 177.983 517.518 177.168 517.329L140.797 508.888C138.228 508.292 136.199 504.786 136.178 500.906L136.063 480.479C136.039 476.605 138.021 473.024 140.572 472.325L176.839 462.382C179.876 461.55 182.921 462.059 185.19 463.783C187.472 465.51 188.737 468.22 188.754 471.41L188.962 507.836C188.979 511.038 187.738 513.801 185.463 515.617C183.825 516.926 181.766 517.613 179.594 517.613L179.597 517.61ZM179.683 463.294C178.865 463.294 178.024 463.41 177.183 463.638L140.915 473.581C138.939 474.123 137.349 477.212 137.366 480.467L137.482 500.894C137.5 504.143 139.12 507.155 141.09 507.614L177.461 516.055C180.098 516.665 182.717 516.132 184.645 514.592C186.601 513.031 187.667 510.632 187.652 507.839L187.445 471.413C187.43 468.637 186.346 466.298 184.396 464.82C183.069 463.816 181.425 463.294 179.677 463.294H179.683Z" fill="white"/>
<path d="M210.268 484.05L210.277 482.94C210.295 480.766 208.523 478.992 206.319 478.974L183.102 478.811L183.031 487.788L206.248 487.951C208.452 487.969 210.254 486.221 210.271 484.047L210.268 484.05Z" fill="#13182C"/>
<path d="M206.281 488.606H206.242L183.025 488.443C182.85 488.443 182.684 488.372 182.566 488.247C182.444 488.123 182.376 487.957 182.376 487.782L182.447 478.805C182.45 478.444 182.74 478.139 183.105 478.157L206.322 478.319C208.882 478.34 210.95 480.413 210.929 482.943L210.92 484.053C210.911 485.28 210.416 486.429 209.531 487.291C208.657 488.141 207.504 488.606 206.278 488.606H206.281ZM183.688 487.143L206.251 487.3C207.134 487.314 207.987 486.971 208.624 486.355C209.258 485.739 209.611 484.921 209.617 484.045L209.625 482.934C209.64 481.124 208.156 479.64 206.316 479.626L183.754 479.469L183.691 487.14L183.688 487.143Z" fill="white"/>
<path d="M181.707 488.997C184.903 489.023 187.513 486.488 187.54 483.337C187.566 480.185 184.995 477.609 181.798 477.585C178.602 477.558 175.992 480.094 175.965 483.245C175.939 486.396 178.51 488.973 181.707 488.997Z" fill="#13182C"/>
<path d="M181.757 489.651H181.704C179.985 489.636 178.374 488.964 177.168 487.756C175.959 486.544 175.302 484.942 175.313 483.242C175.328 481.542 176.01 479.948 177.239 478.758C178.451 477.582 180.053 476.936 181.751 476.936H181.807C183.526 476.951 185.137 477.623 186.343 478.832C187.552 480.043 188.209 481.645 188.197 483.346C188.183 485.046 187.501 486.639 186.272 487.83C185.06 489.005 183.457 489.651 181.76 489.651H181.757ZM181.751 478.239C180.394 478.239 179.117 478.755 178.149 479.694C177.174 480.641 176.632 481.903 176.62 483.251C176.608 484.598 177.132 485.872 178.092 486.831C179.055 487.794 180.341 488.333 181.715 488.345H181.757C183.114 488.345 184.394 487.83 185.359 486.891C186.334 485.946 186.876 484.681 186.888 483.334C186.9 481.986 186.375 480.713 185.416 479.753C184.453 478.787 183.167 478.251 181.792 478.239H181.748H181.751Z" fill="white"/>
<path d="M210.787 496.422L210.796 495.311C210.813 493.137 208.683 491.36 206.041 491.339L183.004 491.167L182.933 500.145L205.97 500.316C208.612 500.337 210.769 498.593 210.787 496.422Z" fill="#13182C"/>
<path d="M206.017 500.968H205.964L182.927 500.796C182.755 500.796 182.589 500.725 182.468 500.601C182.346 500.476 182.278 500.31 182.281 500.139L182.352 491.162C182.355 490.803 182.646 490.513 183.004 490.513H183.01L206.05 490.685C209.048 490.708 211.471 492.785 211.45 495.314L211.441 496.425C211.421 498.939 208.994 500.968 206.02 500.968H206.017ZM183.588 499.496L205.973 499.662H206.017C208.274 499.662 210.117 498.211 210.132 496.413L210.141 495.302C210.156 493.492 208.313 492.006 206.035 491.988L183.65 491.819L183.588 499.49V499.496Z" fill="white"/>
<path d="M181.523 501.35C184.675 501.377 187.252 498.841 187.276 495.69C187.3 492.539 184.767 489.965 181.615 489.938C178.463 489.912 175.885 492.447 175.861 495.598C175.835 498.75 178.371 501.323 181.523 501.35Z" fill="#13182C"/>
<path d="M181.567 502.002H181.517C179.819 501.987 178.226 501.314 177.035 500.103C175.844 498.892 175.195 497.289 175.207 495.592C175.233 492.103 178.083 489.284 181.567 489.284H181.621C183.318 489.299 184.912 489.971 186.103 491.182C187.294 492.394 187.946 493.996 187.931 495.693C187.904 499.182 185.054 502.002 181.57 502.002H181.567ZM181.526 500.695C182.862 500.678 184.151 500.189 185.11 499.244C186.073 498.299 186.609 497.032 186.618 495.684C186.63 494.334 186.115 493.06 185.167 492.1C184.219 491.141 182.954 490.602 181.603 490.593H181.561C180.225 490.593 178.969 491.108 178.018 492.044C177.055 492.992 176.519 494.257 176.51 495.607C176.498 496.958 177.014 498.231 177.962 499.191C178.91 500.153 180.175 500.69 181.526 500.701V500.695Z" fill="white"/>
<path d="M209.96 471.706L209.969 470.595C209.987 468.421 207.931 466.644 205.374 466.624L183.105 466.458L183.034 475.435L205.303 475.601C207.857 475.621 209.942 473.877 209.96 471.703V471.706Z" fill="#13182C"/>
<path d="M205.35 476.258H205.3L183.031 476.092C182.859 476.092 182.693 476.021 182.571 475.897C182.45 475.772 182.382 475.606 182.385 475.435L182.456 466.458C182.459 466.099 182.749 465.809 183.108 465.809H183.114L205.38 465.975C208.289 465.999 210.641 468.075 210.621 470.604L210.612 471.715C210.603 472.962 210.031 474.12 209 474.982C208.014 475.808 206.719 476.258 205.347 476.258H205.35ZM183.694 474.792L205.309 474.952C206.384 474.958 207.403 474.614 208.165 473.978C208.894 473.367 209.299 472.559 209.308 471.703L209.317 470.592C209.332 468.783 207.56 467.296 205.371 467.278L183.757 467.118L183.694 474.789V474.792Z" fill="white"/>
<path d="M181.647 476.643C184.799 476.67 187.377 474.134 187.4 470.983C187.427 467.832 184.891 465.255 181.739 465.231C178.587 465.205 176.01 467.74 175.986 470.891C175.959 474.043 178.495 476.616 181.647 476.643Z" fill="#13182C"/>
<path d="M181.692 477.298H181.641C179.944 477.283 178.35 476.611 177.159 475.399C175.968 474.188 175.316 472.586 175.331 470.888C175.346 469.191 176.018 467.598 177.23 466.407C178.442 465.217 180.068 464.559 181.742 464.58C183.439 464.595 185.033 465.267 186.224 466.478C187.415 467.69 188.064 469.292 188.052 470.989C188.025 474.478 185.176 477.298 181.692 477.298ZM181.65 475.992C184.447 476.027 186.722 473.764 186.746 470.98C186.758 469.63 186.242 468.356 185.294 467.397C184.346 466.434 183.081 465.898 181.73 465.889C180.373 465.868 179.105 466.392 178.145 467.34C177.183 468.288 176.646 469.553 176.638 470.903C176.626 472.254 177.141 473.527 178.089 474.487C179.037 475.45 180.302 475.986 181.653 475.997L181.65 475.992Z" fill="white"/>
<path d="M209.837 507.481L209.825 508.947C209.808 511.021 208.112 512.689 206.039 512.673L182.721 512.486L182.793 503.509L206.111 503.696C208.184 503.713 209.853 505.408 209.837 507.481Z" fill="#13182C"/>
<path d="M206.073 513.336H206.038L182.723 513.15C182.361 513.147 182.071 512.85 182.074 512.492L182.145 503.515C182.145 503.34 182.216 503.177 182.34 503.056C182.462 502.938 182.628 502.869 182.8 502.869H182.806L206.121 503.056C207.3 503.065 208.402 503.533 209.228 504.374C210.055 505.212 210.505 506.326 210.496 507.502L210.484 508.965C210.464 511.384 208.491 513.339 206.073 513.339V513.336ZM183.383 511.849L206.047 512.03H206.073C207.774 512.03 209.163 510.653 209.178 508.95L209.19 507.487C209.196 506.657 208.879 505.876 208.298 505.283C207.717 504.691 206.938 504.362 206.109 504.356L183.446 504.176L183.383 511.846V511.849Z" fill="white"/>
<path d="M181.422 513.703C184.574 513.73 187.152 511.195 187.175 508.044C187.199 504.892 184.666 502.316 181.514 502.292C178.362 502.265 175.787 504.8 175.761 507.952C175.734 511.103 178.27 513.677 181.422 513.703Z" fill="#13182C"/>
<path d="M181.469 514.355H181.416C179.716 514.34 178.125 513.668 176.934 512.457C175.743 511.245 175.091 509.643 175.106 507.946C175.121 506.249 175.793 504.655 177.005 503.465C178.217 502.274 179.822 501.643 181.517 501.637C183.214 501.652 184.808 502.324 185.999 503.536C187.19 504.747 187.839 506.349 187.827 508.046C187.8 511.535 184.95 514.355 181.469 514.355ZM181.466 502.943C180.13 502.943 178.874 503.459 177.923 504.395C176.961 505.342 176.424 506.607 176.415 507.958C176.407 509.308 176.919 510.582 177.867 511.541C178.815 512.504 180.08 513.04 181.431 513.049C182.77 513.061 184.056 512.545 185.016 511.598C185.975 510.65 186.515 509.385 186.524 508.035C186.535 506.684 186.02 505.411 185.072 504.451C184.124 503.488 182.859 502.952 181.508 502.943H181.466Z" fill="white"/>
<path d="M149.625 489.983C151.557 478.565 143.25 467.411 130.588 464.423L39.0757 443.945C25.057 440.64 11.308 448.584 9.16901 461.227L7.55147 470.794C5.41253 483.437 15.7814 495.459 30.1081 496.949L123.241 507.86C136.178 509.202 147.694 501.4 149.625 489.983Z" fill="#13182C"/>
<path d="M126.088 508.663C125.125 508.663 124.154 508.612 123.173 508.512L30.0341 497.597C22.4471 496.81 15.5829 493.06 11.2102 487.308C7.45668 482.371 5.93098 476.468 6.90861 470.687L8.52615 461.121C9.50378 455.339 12.89 450.266 18.0566 446.839C24.0794 442.844 31.7938 441.561 39.2268 443.312L130.733 463.789C143.671 466.84 152.25 478.393 150.271 490.092C148.437 500.923 138.101 508.663 126.091 508.663H126.088ZM32.6648 443.851C27.667 443.851 22.8203 445.246 18.7795 447.926C13.915 451.151 10.7332 455.914 9.81485 461.337L8.19731 470.903C7.27893 476.326 8.71871 481.871 12.25 486.518C16.4065 491.982 22.9388 495.548 30.1763 496.3L123.315 507.214C135.832 508.512 147.116 500.9 148.979 489.876C150.846 478.856 142.699 467.953 130.437 465.063L38.9306 444.585C36.8479 444.093 34.7415 443.854 32.6618 443.854L32.6648 443.851Z" fill="white"/>
<path d="M50.4238 376.968C61.8844 365.51 61.8844 346.934 50.4238 335.476C38.9631 324.018 20.3818 324.018 8.92117 335.476C-2.53946 346.934 -2.53948 365.51 8.92115 376.968C20.3818 388.425 38.9631 388.425 50.4238 376.968Z" fill="white"/>
<path d="M34.6349 389.227C50.8426 389.227 63.9816 376.092 63.9816 359.888C63.9816 343.684 50.8426 330.549 34.6349 330.549C18.4271 330.549 5.28809 343.684 5.28809 359.888C5.28809 376.092 18.4271 389.227 34.6349 389.227Z" fill="#5177FF"/>
<path d="M34.7001 389.882C33.2988 389.882 31.8916 389.784 30.4785 389.585C22.5419 388.475 15.5147 384.343 10.6888 377.946C5.86283 371.551 3.81573 363.661 4.92668 355.727C7.21967 339.348 22.4115 327.889 38.7943 330.182C46.7309 331.292 53.758 335.424 58.5839 341.821C63.4099 348.216 65.457 356.106 64.3461 364.04C63.2351 371.975 59.1024 379 52.7033 383.825C47.4448 387.791 41.1732 389.879 34.7001 389.879V389.882ZM6.2213 355.91C4.02903 371.575 14.9933 386.102 30.6592 388.294C38.2492 389.357 45.7977 387.4 51.9183 382.785C58.0359 378.171 61.9908 371.451 63.0514 363.863C64.112 356.275 62.1567 348.728 57.5411 342.612C52.9255 336.496 46.2035 332.542 38.6136 331.482C22.9477 329.29 8.41357 340.249 6.2213 355.913V355.91Z" fill="white"/>
<path d="M34.6615 372.653C34.066 372.653 33.4676 372.612 32.8662 372.529C25.8954 371.554 21.0161 365.089 21.9938 358.12C22.4678 354.743 24.2245 351.755 26.9471 349.7C29.6697 347.647 33.0262 346.776 36.4035 347.247C39.7808 347.718 42.7729 349.477 44.8259 352.199C46.879 354.921 47.75 358.28 47.2789 361.656C46.8049 365.033 45.0481 368.024 42.3256 370.076C40.0889 371.765 37.4196 372.653 34.6645 372.653H34.6615ZM23.2854 358.3C22.8618 361.33 23.6439 364.345 25.4866 366.789C27.3293 369.232 30.0163 370.811 33.0469 371.234C36.0746 371.658 39.0935 370.876 41.5375 369.034C43.9816 367.192 45.5606 364.505 45.9843 361.475C46.4079 358.446 45.6258 355.431 43.7831 352.987C41.9404 350.544 39.2534 348.965 36.2228 348.542C33.1921 348.121 30.1762 348.9 27.7322 350.742C25.2881 352.584 23.7091 355.271 23.2854 358.3Z" fill="white"/>
<path d="M30.3955 488.218C43.5046 488.301 54.463 476.619 55.5058 461.449L61.5642 373.1C62.7166 356.304 51.3435 341.931 36.8271 341.836L25.8421 341.765C11.3257 341.673 -0.231116 355.899 0.705042 372.709L5.63172 461.129C6.47604 476.311 17.2863 488.135 30.3955 488.218Z" fill="#13182C"/>
<path d="M30.5318 488.869C30.4844 488.869 30.437 488.869 30.3896 488.869C17.0019 488.783 5.83913 476.613 4.98 461.165L0.0533167 372.745C-0.453275 363.667 2.60405 354.945 8.43726 348.82C13.2099 343.809 19.4164 341.066 25.8451 341.111L36.8301 341.182C43.2825 341.223 49.4297 344.04 54.1372 349.113C59.8904 355.315 62.8352 364.073 62.213 373.145L56.1517 461.494C55.097 476.877 43.8543 488.872 30.5288 488.872L30.5318 488.869ZM30.3985 487.563C30.4429 487.563 30.4873 487.563 30.5318 487.563C43.1758 487.563 53.8439 476.101 54.8512 461.402L60.9125 373.053C61.5109 364.34 58.6936 355.937 53.1833 349.999C48.7217 345.192 42.9122 342.523 36.8242 342.485L25.8391 342.414C25.7947 342.414 25.7473 342.414 25.7029 342.414C19.6623 342.414 13.8735 345.002 9.38527 349.717C3.79795 355.585 0.873936 363.949 1.35979 372.668L6.28647 461.088C7.11005 475.849 17.7011 487.48 30.4014 487.56L30.3985 487.563Z" fill="white"/>
<path d="M42.4083 471.977C49.8509 464.537 49.8509 452.473 42.4083 445.033C34.9657 437.592 22.8989 437.592 15.4563 445.033C8.01375 452.473 8.01374 464.537 15.4563 471.977C22.8989 479.418 34.9657 479.418 42.4083 471.977Z" fill="white"/>
<path d="M45.6311 474.359C53.0737 466.919 53.0737 454.855 45.6311 447.414C38.1885 439.974 26.1217 439.974 18.6791 447.414C11.2365 454.855 11.2365 466.919 18.6791 474.359C26.1217 481.8 38.1885 481.8 45.6311 474.359Z" fill="#4CCE82"/>
<path d="M32.1967 480.594C31.2754 480.594 30.3511 480.529 29.4238 480.402C24.2098 479.673 19.5912 476.957 16.4213 472.754C13.2514 468.552 11.9064 463.369 12.6352 458.156C14.1401 447.396 24.1209 439.858 34.8867 441.372C45.6496 442.876 53.1803 452.857 51.6753 463.617C50.9465 468.83 48.2299 473.447 44.0261 476.616C40.5718 479.223 36.4509 480.594 32.1967 480.594ZM13.9268 458.337C13.2454 463.203 14.5016 468.045 17.4611 471.969C20.4207 475.894 24.7341 478.429 29.6016 479.11C34.469 479.794 39.3127 478.536 43.2381 475.577C47.1634 472.615 49.6993 468.306 50.3807 463.44C51.0621 458.573 49.806 453.731 46.8464 449.807C43.8869 445.882 39.5734 443.347 34.706 442.666C29.8386 441.988 24.9948 443.241 21.0695 446.199C17.1441 449.158 14.6082 453.47 13.9268 458.337Z" fill="white"/>
<path d="M32.173 469.405C31.7761 469.405 31.3732 469.378 30.9732 469.322C26.3221 468.67 23.0662 464.358 23.718 459.705C24.3698 455.055 28.6862 451.8 33.3373 452.452C37.9885 453.103 41.2443 457.415 40.5925 462.068C40.2785 464.322 39.1024 466.318 37.2864 467.687C35.7933 468.812 34.0128 469.408 32.173 469.408V469.405ZM25.0097 459.886C24.4586 463.825 27.2138 467.476 31.1539 468.027C33.0618 468.294 34.9608 467.802 36.4983 466.641C38.0359 465.48 39.0313 463.792 39.2979 461.885C39.8489 457.946 37.0938 454.294 33.1536 453.743C29.2105 453.195 25.5607 455.946 25.0097 459.886Z" fill="white"/>
<path d="M467.952 172.981H455.044V348.109H467.952V172.981Z" fill="#5177FF"/>
<path d="M533.311 348.761H455.044C454.682 348.761 454.392 348.467 454.392 348.109V173.633H447.024C446.752 173.633 446.509 173.464 446.414 173.212C446.319 172.957 446.39 172.67 446.592 172.492L493.746 130.832C493.995 130.613 494.363 130.613 494.611 130.832L541.781 172.492C541.985 172.67 542.056 172.957 541.958 173.212C541.861 173.467 541.618 173.635 541.348 173.635H533.966V348.112C533.966 348.473 533.672 348.764 533.314 348.764L533.311 348.761ZM455.699 347.455H532.659V172.981C532.659 172.62 532.952 172.329 533.311 172.329H539.621L494.176 132.192L448.749 172.329H455.044C455.405 172.329 455.696 172.623 455.696 172.981V347.458L455.699 347.455Z" fill="white"/>
<path d="M374.191 230.779H361.283V348.109H374.191V230.779Z" fill="#FC9A54"/>
<path d="M439.547 348.761H361.28C360.918 348.761 360.628 348.467 360.628 348.109V230.779C360.628 230.418 360.921 230.128 361.28 230.128H439.547C439.908 230.128 440.199 230.421 440.199 230.779V348.109C440.199 348.47 439.905 348.761 439.547 348.761ZM361.935 347.455H438.895V231.431H361.935V347.455Z" fill="white"/>
<path d="M280.29 310.661H267.383V348.109H280.29V310.661Z" fill="#4CCE82"/>
<path d="M345.786 348.761H267.519C267.158 348.761 266.867 348.467 266.867 348.109V310.661C266.867 310.299 267.16 310.009 267.519 310.009H345.786C346.147 310.009 346.438 310.302 346.438 310.661V348.109C346.438 348.47 346.144 348.761 345.786 348.761ZM268.174 347.455H345.134V311.312H268.174V347.455Z" fill="white"/>
<path d="M322.797 367.947V377.984C322.797 392.882 310.704 404.96 295.79 404.96C280.877 404.96 268.784 392.882 268.784 377.984V367.947H322.8H322.797Z" fill="#13182C"/>
<path d="M295.79 405.614C280.539 405.614 268.129 393.22 268.129 377.984V367.947C268.129 367.586 268.423 367.295 268.781 367.295C269.139 367.295 269.433 367.589 269.433 367.947V377.984C269.433 392.5 281.256 404.308 295.787 404.308C310.319 404.308 322.142 392.5 322.142 377.984V367.947C322.142 367.586 322.435 367.295 322.794 367.295C323.152 367.295 323.446 367.589 323.446 367.947V377.984C323.446 393.22 311.038 405.614 295.784 405.614H295.79Z" fill="white"/>
<path d="M295.79 394.923C310.706 394.923 322.797 382.845 322.797 367.947C322.797 353.049 310.706 340.971 295.79 340.971C280.875 340.971 268.784 353.049 268.784 367.947C268.784 382.845 280.875 394.923 295.79 394.923Z" fill="#13182C"/>
<path d="M295.79 395.577C280.539 395.577 268.129 383.182 268.129 367.947C268.129 352.712 280.539 340.317 295.79 340.317C311.041 340.317 323.451 352.712 323.451 367.947C323.451 383.182 311.044 395.577 295.79 395.577ZM295.79 341.623C281.259 341.623 269.436 353.431 269.436 367.947C269.436 382.462 281.259 394.271 295.79 394.271C310.322 394.271 322.145 382.462 322.145 367.947C322.145 353.431 310.322 341.623 295.79 341.623Z" fill="white"/>
<path d="M276.362 371.291C276.039 371.291 275.761 371.054 275.716 370.728C275.589 369.813 275.527 368.877 275.527 367.947C275.527 360.865 279.31 354.204 285.404 350.564C285.712 350.378 286.115 350.481 286.298 350.79C286.482 351.098 286.381 351.5 286.073 351.684C280.373 355.09 276.833 361.321 276.833 367.947C276.833 368.818 276.892 369.694 277.011 370.55C277.061 370.909 276.81 371.237 276.454 371.285C276.424 371.288 276.395 371.291 276.365 371.291H276.362Z" fill="white"/>
<path d="M285.066 385.001C284.945 385.001 284.82 384.965 284.711 384.894C281.061 382.51 278.234 378.953 276.747 374.874C276.623 374.537 276.798 374.161 277.138 374.036C277.476 373.915 277.852 374.087 277.977 374.427C279.369 378.242 282.015 381.571 285.427 383.801C285.73 384 285.816 384.402 285.617 384.705C285.493 384.897 285.282 385.001 285.069 385.001H285.066Z" fill="white"/>
<path d="M295.79 388.188C292.914 388.188 290.132 387.598 287.528 386.434C287.199 386.286 287.051 385.901 287.199 385.572C287.347 385.244 287.729 385.093 288.061 385.244C290.496 386.331 293.097 386.884 295.79 386.884C302.803 386.884 309.214 383.043 312.523 376.859C312.692 376.542 313.089 376.421 313.406 376.592C313.723 376.761 313.844 377.158 313.672 377.475C310.138 384.086 303.286 388.191 295.79 388.191V388.188Z" fill="white"/>
<path d="M314.801 373.426C314.748 373.426 314.694 373.42 314.641 373.405C314.291 373.317 314.081 372.961 314.167 372.612C314.552 371.095 314.748 369.523 314.748 367.944C314.748 362.885 312.774 358.132 309.196 354.554C308.941 354.299 308.941 353.885 309.196 353.63C309.45 353.375 309.865 353.375 310.12 353.63C313.948 357.453 316.054 362.536 316.054 367.941C316.054 369.629 315.847 371.306 315.435 372.929C315.361 373.225 315.094 373.42 314.801 373.42V373.426Z" fill="white"/>
<path d="M306.752 352.356C306.627 352.356 306.5 352.321 306.387 352.244C303.253 350.129 299.588 349.01 295.79 349.01C294.123 349.01 292.469 349.226 290.873 349.652C290.523 349.747 290.165 349.54 290.073 349.19C289.981 348.841 290.185 348.482 290.535 348.391C292.241 347.934 294.01 347.703 295.79 347.703C299.852 347.703 303.769 348.9 307.119 351.16C307.418 351.361 307.495 351.767 307.294 352.066C307.167 352.253 306.962 352.353 306.752 352.353V352.356Z" fill="white"/>
<path d="M312.529 399.564C312.167 399.564 311.877 399.27 311.877 398.912V391.274C311.877 390.912 312.17 390.622 312.529 390.622C312.887 390.622 313.18 390.915 313.18 391.274V398.912C313.18 399.273 312.887 399.564 312.529 399.564Z" fill="white"/>
<path d="M308.508 402.072C308.147 402.072 307.857 401.779 307.857 401.421V396.291C307.857 395.93 308.15 395.639 308.508 395.639C308.867 395.639 309.16 395.933 309.16 396.291V401.421C309.16 401.782 308.867 402.072 308.508 402.072Z" fill="white"/>
<path d="M303.988 404.08C303.626 404.08 303.336 403.787 303.336 403.429V398.299C303.336 397.938 303.629 397.647 303.988 397.647C304.346 397.647 304.639 397.941 304.639 398.299V403.429C304.639 403.79 304.346 404.08 303.988 404.08Z" fill="white"/>
<path d="M290.683 367.337C290.44 367.337 290.209 367.203 290.096 366.972C289.67 366.105 289.453 365.169 289.453 364.191C289.453 360.702 292.295 357.862 295.79 357.862C298.24 357.862 300.492 359.296 301.532 361.511C301.686 361.837 301.544 362.228 301.218 362.379C300.892 362.533 300.501 362.391 300.35 362.065C299.526 360.306 297.737 359.168 295.79 359.168C293.017 359.168 290.76 361.422 290.76 364.191C290.76 364.967 290.932 365.708 291.27 366.398C291.429 366.721 291.296 367.112 290.97 367.272C290.878 367.319 290.781 367.34 290.683 367.34V367.337Z" fill="white"/>
<path d="M295.79 378.393C293.942 378.393 292.191 377.59 290.985 376.189C290.751 375.917 290.781 375.505 291.053 375.268C291.326 375.031 291.738 375.064 291.975 375.336C292.932 376.45 294.324 377.087 295.79 377.087C298.563 377.087 300.821 374.833 300.821 372.064C300.821 371.246 300.619 370.435 300.24 369.718C300.071 369.398 300.193 369.004 300.513 368.835C300.833 368.667 301.227 368.788 301.395 369.108C301.875 370.014 302.127 371.036 302.127 372.064C302.127 375.553 299.286 378.393 295.79 378.393Z" fill="white"/>
<path d="M295.524 382.468C295.171 382.468 294.881 382.187 294.872 381.832L294.771 377.756C294.762 377.395 295.047 377.096 295.408 377.087H295.426C295.778 377.087 296.069 377.368 296.078 377.724L296.178 381.799C296.187 382.16 295.903 382.459 295.541 382.468H295.524Z" fill="white"/>
<path d="M295.79 359.165C295.447 359.165 295.156 358.896 295.139 358.549L294.872 353.695C294.851 353.334 295.127 353.029 295.488 353.008C295.841 352.975 296.158 353.263 296.175 353.624L296.442 358.478C296.463 358.84 296.187 359.145 295.826 359.165C295.814 359.165 295.802 359.165 295.79 359.165Z" fill="white"/>
<path d="M298.729 369.01C298.688 369.01 298.643 369.007 298.599 368.998L292.434 367.757C292.081 367.686 291.85 367.343 291.921 366.987C291.992 366.635 292.336 366.401 292.692 366.475L298.857 367.716C299.209 367.787 299.44 368.131 299.369 368.486C299.307 368.797 299.034 369.01 298.729 369.01Z" fill="white"/>
<path d="M424.213 367.947V377.984C424.213 392.882 412.12 404.96 397.206 404.96C382.293 404.96 370.2 392.882 370.2 377.984V367.947H424.216H424.213Z" fill="#13182C"/>
<path d="M397.207 405.615C381.955 405.615 369.545 393.22 369.545 377.984V367.947C369.545 367.586 369.839 367.295 370.197 367.295C370.556 367.295 370.849 367.589 370.849 367.947V377.984C370.849 392.5 382.672 404.308 397.204 404.308C411.735 404.308 423.558 392.5 423.558 377.984V367.947C423.558 367.586 423.851 367.295 424.21 367.295C424.568 367.295 424.862 367.589 424.862 367.947V377.984C424.862 393.22 412.452 405.615 397.201 405.615H397.207Z" fill="#999999"/>
<path d="M397.206 394.923C412.122 394.923 424.213 382.845 424.213 367.947C424.213 353.049 412.122 340.971 397.206 340.971C382.291 340.971 370.2 353.049 370.2 367.947C370.2 382.845 382.291 394.923 397.206 394.923Z" fill="#13182C"/>
<path d="M397.207 395.577C381.955 395.577 369.545 383.182 369.545 367.947C369.545 352.712 381.955 340.317 397.207 340.317C412.458 340.317 424.868 352.712 424.868 367.947C424.868 383.182 412.458 395.577 397.207 395.577ZM397.207 341.623C382.675 341.623 370.852 353.431 370.852 367.947C370.852 382.462 382.675 394.271 397.207 394.271C411.738 394.271 423.561 382.462 423.561 367.947C423.561 353.431 411.738 341.623 397.207 341.623Z" fill="#999999"/>
<path d="M377.778 371.291C377.458 371.291 377.177 371.054 377.132 370.728C377.005 369.813 376.943 368.877 376.943 367.947C376.943 360.865 380.726 354.204 386.82 350.564C387.128 350.378 387.531 350.482 387.715 350.79C387.898 351.098 387.798 351.5 387.489 351.684C381.79 355.09 378.249 361.322 378.249 367.947C378.249 368.818 378.309 369.694 378.427 370.55C378.477 370.909 378.226 371.237 377.87 371.285C377.841 371.288 377.811 371.291 377.781 371.291H377.778Z" fill="#999999"/>
<path d="M386.482 385.001C386.361 385.001 386.236 384.965 386.127 384.894C382.477 382.51 379.651 378.95 378.163 374.875C378.039 374.534 378.214 374.161 378.554 374.036C378.892 373.915 379.268 374.087 379.393 374.427C380.785 378.242 383.431 381.571 386.844 383.801C387.146 384 387.232 384.402 387.033 384.705C386.909 384.897 386.698 385.001 386.485 385.001H386.482Z" fill="#999999"/>
<path d="M397.207 388.188C394.33 388.188 391.551 387.598 388.944 386.434C388.615 386.286 388.467 385.901 388.615 385.572C388.763 385.244 389.146 385.093 389.477 385.244C391.916 386.331 394.517 386.884 397.207 386.884C404.219 386.884 410.63 383.043 413.939 376.859C414.108 376.542 414.505 376.421 414.822 376.592C415.139 376.761 415.26 377.158 415.088 377.475C411.554 384.086 404.702 388.191 397.207 388.191V388.188Z" fill="#999999"/>
<path d="M416.217 373.426C416.164 373.426 416.11 373.42 416.057 373.405C415.708 373.317 415.497 372.961 415.583 372.612C415.968 371.095 416.164 369.526 416.164 367.944C416.164 362.885 414.191 358.132 410.612 354.554C410.357 354.299 410.357 353.885 410.612 353.63C410.867 353.375 411.282 353.375 411.536 353.63C415.364 357.453 417.47 362.536 417.47 367.941C417.47 369.629 417.263 371.309 416.851 372.929C416.777 373.225 416.51 373.42 416.217 373.42V373.426Z" fill="#999999"/>
<path d="M408.171 352.356C408.046 352.356 407.919 352.321 407.806 352.244C404.672 350.129 401.007 349.01 397.207 349.01C395.539 349.01 393.886 349.226 392.289 349.652C391.939 349.747 391.581 349.54 391.489 349.19C391.397 348.841 391.601 348.482 391.951 348.391C393.657 347.934 395.426 347.703 397.207 347.703C401.268 347.703 405.185 348.9 408.535 351.16C408.834 351.361 408.911 351.767 408.71 352.066C408.583 352.253 408.378 352.353 408.168 352.353L408.171 352.356Z" fill="#999999"/>
<path d="M413.945 399.564C413.583 399.564 413.293 399.27 413.293 398.912V391.274C413.293 390.912 413.586 390.622 413.945 390.622C414.303 390.622 414.596 390.915 414.596 391.274V398.912C414.596 399.273 414.303 399.564 413.945 399.564Z" fill="#999999"/>
<path d="M409.925 402.072C409.563 402.072 409.273 401.779 409.273 401.421V396.291C409.273 395.93 409.566 395.639 409.925 395.639C410.283 395.639 410.576 395.933 410.576 396.291V401.421C410.576 401.782 410.283 402.072 409.925 402.072Z" fill="#999999"/>
<path d="M405.404 404.08C405.042 404.08 404.752 403.787 404.752 403.429V398.299C404.752 397.938 405.045 397.647 405.404 397.647C405.762 397.647 406.056 397.941 406.056 398.299V403.429C406.056 403.79 405.762 404.08 405.404 404.08Z" fill="#999999"/>
<path d="M392.099 367.337C391.856 367.337 391.625 367.204 391.513 366.973C391.086 366.102 390.87 365.166 390.87 364.191C390.87 360.702 393.711 357.862 397.206 357.862C399.656 357.862 401.908 359.296 402.948 361.511C403.102 361.837 402.96 362.225 402.634 362.379C402.308 362.533 401.917 362.391 401.766 362.065C400.939 360.306 399.153 359.168 397.206 359.168C394.434 359.168 392.176 361.422 392.176 364.191C392.176 364.967 392.348 365.708 392.686 366.398C392.846 366.721 392.712 367.112 392.386 367.272C392.295 367.319 392.197 367.34 392.099 367.34V367.337Z" fill="#999999"/>
<path d="M397.207 378.393C395.358 378.393 393.607 377.59 392.401 376.19C392.167 375.917 392.197 375.505 392.469 375.268C392.742 375.032 393.154 375.064 393.391 375.337C394.348 376.45 395.74 377.087 397.207 377.087C399.979 377.087 402.237 374.833 402.237 372.064C402.237 371.246 402.035 370.435 401.656 369.718C401.487 369.398 401.609 369.004 401.926 368.835C402.243 368.667 402.64 368.788 402.809 369.105C403.289 370.008 403.54 371.033 403.54 372.064C403.54 375.553 400.699 378.393 397.204 378.393H397.207Z" fill="#999999"/>
<path d="M396.94 382.468C396.587 382.468 396.297 382.187 396.288 381.832L396.187 377.756C396.178 377.395 396.463 377.096 396.824 377.087H396.842C397.195 377.087 397.485 377.368 397.494 377.724L397.595 381.799C397.603 382.16 397.319 382.46 396.958 382.468H396.94Z" fill="#999999"/>
<path d="M397.206 359.165C396.863 359.165 396.572 358.896 396.555 358.549L396.288 353.695C396.267 353.334 396.543 353.029 396.904 353.008C397.257 352.975 397.574 353.263 397.592 353.624L397.858 358.478C397.879 358.84 397.603 359.145 397.242 359.165C397.23 359.165 397.218 359.165 397.206 359.165Z" fill="#999999"/>
<path d="M400.145 369.01C400.104 369.01 400.059 369.007 400.015 368.998L393.85 367.757C393.497 367.686 393.266 367.343 393.337 366.987C393.409 366.632 393.755 366.401 394.108 366.475L400.273 367.716C400.625 367.787 400.856 368.131 400.785 368.486C400.723 368.797 400.45 369.01 400.145 369.01Z" fill="#999999"/>
<path d="M424.213 343.145V353.183C424.213 368.08 412.12 380.158 397.206 380.158C382.293 380.158 370.2 368.08 370.2 353.183V343.145H424.216H424.213Z" fill="#13182C"/>
<path d="M397.207 380.813C381.955 380.813 369.545 368.418 369.545 353.183V343.145C369.545 342.784 369.839 342.494 370.197 342.494C370.556 342.494 370.849 342.787 370.849 343.145V353.183C370.849 367.698 382.672 379.507 397.204 379.507C411.735 379.507 423.558 367.698 423.558 353.183V343.145C423.558 342.784 423.851 342.494 424.21 342.494C424.568 342.494 424.862 342.787 424.862 343.145V353.183C424.862 368.418 412.452 380.813 397.201 380.813H397.207Z" fill="white"/>
<path d="M397.206 370.121C412.122 370.121 424.213 358.043 424.213 343.145C424.213 328.247 412.122 316.17 397.206 316.17C382.291 316.17 370.2 328.247 370.2 343.145C370.2 358.043 382.291 370.121 397.206 370.121Z" fill="#13182C"/>
<path d="M397.207 370.775C381.955 370.775 369.545 358.38 369.545 343.145C369.545 327.91 381.955 315.515 397.207 315.515C412.458 315.515 424.868 327.91 424.868 343.145C424.868 358.38 412.458 370.775 397.207 370.775ZM397.207 316.821C382.675 316.821 370.852 328.63 370.852 343.145C370.852 357.661 382.675 369.469 397.207 369.469C411.738 369.469 423.561 357.661 423.561 343.145C423.561 328.63 411.738 316.821 397.207 316.821Z" fill="white"/>
<path d="M377.778 346.489C377.458 346.489 377.177 346.252 377.132 345.926C377.005 345.011 376.943 344.075 376.943 343.145C376.943 336.064 380.726 329.403 386.82 325.763C387.128 325.579 387.531 325.68 387.715 325.988C387.898 326.296 387.798 326.699 387.489 326.882C381.79 330.288 378.249 336.52 378.249 343.145C378.249 344.016 378.309 344.893 378.427 345.749C378.477 346.107 378.226 346.436 377.87 346.483C377.841 346.489 377.811 346.489 377.781 346.489H377.778Z" fill="white"/>
<path d="M386.482 360.199C386.361 360.199 386.236 360.164 386.127 360.092C382.477 357.708 379.651 354.151 378.163 350.073C378.039 349.732 378.214 349.359 378.554 349.235C378.892 349.113 379.268 349.285 379.393 349.626C380.785 353.44 383.431 356.769 386.844 359C387.146 359.198 387.232 359.601 387.033 359.903C386.909 360.095 386.698 360.199 386.485 360.199H386.482Z" fill="white"/>
<path d="M397.207 363.386C394.33 363.386 391.551 362.796 388.944 361.633C388.615 361.484 388.467 361.099 388.615 360.771C388.763 360.442 389.146 360.291 389.477 360.442C391.916 361.529 394.517 362.083 397.207 362.083C404.219 362.083 410.63 358.241 413.939 352.057C414.108 351.74 414.505 351.622 414.822 351.791C415.139 351.959 415.26 352.356 415.088 352.673C411.554 359.284 404.702 363.389 397.207 363.389V363.386Z" fill="white"/>
<path d="M416.217 348.624C416.164 348.624 416.11 348.619 416.057 348.604C415.708 348.515 415.497 348.16 415.583 347.81C415.968 346.294 416.164 344.724 416.164 343.142C416.164 338.084 414.191 333.33 410.612 329.752C410.357 329.498 410.357 329.083 410.612 328.828C410.867 328.573 411.282 328.573 411.536 328.828C415.364 332.652 417.47 337.734 417.47 343.139C417.47 344.828 417.263 346.507 416.851 348.127C416.777 348.423 416.51 348.619 416.217 348.619V348.624Z" fill="white"/>
<path d="M408.171 327.555C408.046 327.555 407.919 327.519 407.806 327.442C404.672 325.327 401.007 324.208 397.207 324.208C395.539 324.208 393.886 324.424 392.289 324.851C391.939 324.948 391.581 324.738 391.489 324.389C391.397 324.039 391.601 323.681 391.951 323.589C393.657 323.133 395.426 322.902 397.207 322.902C401.268 322.902 405.185 324.098 408.535 326.358C408.834 326.56 408.911 326.965 408.71 327.264C408.583 327.451 408.378 327.552 408.168 327.552L408.171 327.555Z" fill="white"/>
<path d="M413.945 374.762C413.583 374.762 413.293 374.469 413.293 374.11V366.472C413.293 366.111 413.586 365.82 413.945 365.82C414.303 365.82 414.596 366.114 414.596 366.472V374.11C414.596 374.472 414.303 374.762 413.945 374.762Z" fill="white"/>
<path d="M409.925 377.271C409.563 377.271 409.273 376.977 409.273 376.619V371.489C409.273 371.128 409.566 370.838 409.925 370.838C410.283 370.838 410.576 371.131 410.576 371.489V376.619C410.576 376.98 410.283 377.271 409.925 377.271Z" fill="white"/>
<path d="M405.404 379.279C405.042 379.279 404.752 378.985 404.752 378.627V373.497C404.752 373.136 405.045 372.846 405.404 372.846C405.762 372.846 406.056 373.139 406.056 373.497V378.627C406.056 378.988 405.762 379.279 405.404 379.279Z" fill="white"/>
<path d="M392.099 342.535C391.856 342.535 391.625 342.402 391.513 342.171C391.086 341.3 390.87 340.364 390.87 339.39C390.87 335.901 393.711 333.06 397.206 333.06C399.656 333.06 401.908 334.494 402.948 336.709C403.102 337.035 402.96 337.423 402.634 337.577C402.308 337.731 401.917 337.589 401.766 337.263C400.939 335.504 399.153 334.367 397.206 334.367C394.434 334.367 392.176 336.621 392.176 339.39C392.176 340.166 392.348 340.906 392.686 341.596C392.846 341.919 392.712 342.31 392.386 342.47C392.295 342.517 392.197 342.538 392.099 342.538V342.535Z" fill="white"/>
<path d="M397.207 353.591C395.358 353.591 393.607 352.789 392.401 351.388C392.167 351.115 392.197 350.704 392.469 350.467C392.742 350.23 393.154 350.262 393.391 350.535C394.348 351.648 395.74 352.285 397.207 352.285C399.979 352.285 402.237 350.031 402.237 347.262C402.237 346.433 402.041 345.642 401.656 344.916C401.487 344.597 401.609 344.203 401.926 344.034C402.243 343.865 402.64 343.986 402.809 344.303C403.289 345.207 403.54 346.231 403.54 347.262C403.54 350.751 400.699 353.591 397.204 353.591H397.207Z" fill="white"/>
<path d="M396.94 357.667C396.587 357.667 396.297 357.385 396.288 357.03L396.187 352.955C396.178 352.593 396.463 352.294 396.824 352.285H396.842C397.195 352.285 397.485 352.567 397.494 352.922L397.595 356.997C397.603 357.359 397.319 357.658 396.958 357.667H396.94Z" fill="white"/>
<path d="M397.206 334.364C396.863 334.364 396.572 334.094 396.555 333.748L396.288 328.893C396.267 328.532 396.543 328.227 396.904 328.206C397.257 328.156 397.574 328.461 397.592 328.822L397.858 333.677C397.879 334.038 397.603 334.343 397.242 334.364C397.23 334.364 397.218 334.364 397.206 334.364Z" fill="white"/>
<path d="M400.145 344.209C400.104 344.209 400.059 344.206 400.015 344.197L393.85 342.956C393.497 342.885 393.266 342.541 393.337 342.186C393.409 341.833 393.755 341.602 394.108 341.673L400.273 342.914C400.625 342.985 400.856 343.329 400.785 343.684C400.723 343.995 400.45 344.209 400.145 344.209Z" fill="white"/>
<path d="M520.086 367.947V377.984C520.086 392.882 507.993 404.96 493.08 404.96C478.166 404.96 466.073 392.882 466.073 377.984V367.947H520.089H520.086Z" fill="#13182C"/>
<path d="M493.08 405.614C477.829 405.614 465.419 393.22 465.419 377.984V367.947C465.419 367.586 465.712 367.295 466.07 367.295C466.429 367.295 466.722 367.589 466.722 367.947V377.984C466.722 392.5 478.546 404.308 493.077 404.308C507.608 404.308 519.431 392.5 519.431 377.984V367.947C519.431 367.586 519.725 367.295 520.083 367.295C520.442 367.295 520.735 367.589 520.735 367.947V377.984C520.735 393.22 508.325 405.614 493.074 405.614H493.08Z" fill="#999999"/>
<path d="M493.08 394.923C507.995 394.923 520.086 382.845 520.086 367.947C520.086 353.049 507.995 340.971 493.08 340.971C478.165 340.971 466.073 353.049 466.073 367.947C466.073 382.845 478.165 394.923 493.08 394.923Z" fill="#13182C"/>
<path d="M493.08 395.577C477.829 395.577 465.419 383.182 465.419 367.947C465.419 352.712 477.826 340.317 493.08 340.317C508.334 340.317 520.741 352.712 520.741 367.947C520.741 383.182 508.331 395.577 493.08 395.577ZM493.08 341.623C478.549 341.623 466.725 353.431 466.725 367.947C466.725 382.462 478.549 394.271 493.08 394.271C507.611 394.271 519.434 382.462 519.434 367.947C519.434 353.431 507.611 341.623 493.08 341.623Z" fill="#999999"/>
<path d="M473.655 371.291C473.332 371.291 473.053 371.054 473.009 370.728C472.881 369.813 472.819 368.877 472.819 367.947C472.819 360.865 476.602 354.204 482.696 350.564C483.004 350.378 483.407 350.481 483.591 350.79C483.775 351.098 483.674 351.5 483.366 351.684C477.666 355.09 474.126 361.321 474.126 367.947C474.126 368.818 474.185 369.694 474.303 370.55C474.354 370.909 474.102 371.237 473.746 371.285C473.717 371.288 473.687 371.291 473.657 371.291H473.655Z" fill="#999999"/>
<path d="M482.355 385.001C482.234 385.001 482.11 384.965 482 384.894C478.35 382.51 475.524 378.95 474.037 374.874C473.912 374.534 474.087 374.161 474.428 374.036C474.765 373.915 475.142 374.087 475.266 374.427C476.659 378.242 479.304 381.571 482.717 383.801C483.019 384 483.105 384.402 482.906 384.705C482.782 384.897 482.572 385.001 482.358 385.001H482.355Z" fill="#999999"/>
<path d="M493.08 388.188C490.203 388.188 487.421 387.598 484.817 386.434C484.489 386.286 484.34 385.901 484.489 385.572C484.637 385.244 485.022 385.093 485.351 385.244C487.786 386.331 490.387 386.884 493.08 386.884C500.092 386.884 506.503 383.043 509.812 376.859C509.981 376.542 510.378 376.421 510.695 376.592C511.012 376.761 511.133 377.158 510.962 377.475C507.427 384.086 500.575 388.191 493.08 388.191V388.188Z" fill="#999999"/>
<path d="M512.09 373.426C512.037 373.426 511.984 373.42 511.93 373.405C511.581 373.317 511.37 372.961 511.456 372.612C511.842 371.095 512.037 369.526 512.037 367.944C512.037 362.885 510.064 358.132 506.485 354.554C506.23 354.299 506.23 353.885 506.485 353.63C506.74 353.375 507.155 353.375 507.41 353.63C511.237 357.453 513.344 362.536 513.344 367.941C513.344 369.629 513.136 371.309 512.724 372.929C512.65 373.225 512.384 373.42 512.09 373.42V373.426Z" fill="#999999"/>
<path d="M504.044 352.356C503.92 352.356 503.792 352.321 503.68 352.244C500.545 350.129 496.881 349.01 493.08 349.01C491.412 349.01 489.759 349.226 488.162 349.652C487.812 349.747 487.454 349.54 487.362 349.19C487.27 348.841 487.475 348.482 487.824 348.391C489.531 347.934 491.299 347.703 493.08 347.703C497.141 347.703 501.058 348.9 504.409 351.16C504.708 351.361 504.785 351.767 504.583 352.066C504.456 352.253 504.252 352.353 504.041 352.353L504.044 352.356Z" fill="#999999"/>
<path d="M509.818 399.564C509.457 399.564 509.166 399.27 509.166 398.912V391.274C509.166 390.912 509.46 390.622 509.818 390.622C510.177 390.622 510.47 390.915 510.47 391.274V398.912C510.47 399.273 510.177 399.564 509.818 399.564Z" fill="#999999"/>
<path d="M505.798 402.072C505.436 402.072 505.146 401.779 505.146 401.421V396.291C505.146 395.93 505.439 395.639 505.798 395.639C506.156 395.639 506.45 395.933 506.45 396.291V401.421C506.45 401.782 506.156 402.072 505.798 402.072Z" fill="#999999"/>
<path d="M501.277 404.08C500.916 404.08 500.625 403.787 500.625 403.429V398.299C500.625 397.938 500.919 397.647 501.277 397.647C501.636 397.647 501.929 397.941 501.929 398.299V403.429C501.929 403.79 501.636 404.08 501.277 404.08Z" fill="#999999"/>
<path d="M487.975 367.337C487.732 367.337 487.501 367.203 487.389 366.972C486.962 366.102 486.746 365.166 486.746 364.191C486.746 360.702 489.587 357.862 493.083 357.862C495.533 357.862 497.784 359.296 498.824 361.511C498.978 361.837 498.836 362.228 498.51 362.379C498.184 362.533 497.796 362.391 497.642 362.065C496.819 360.306 495.029 359.168 493.083 359.168C490.31 359.168 488.052 361.422 488.052 364.191C488.052 364.967 488.224 365.708 488.562 366.398C488.722 366.721 488.589 367.112 488.263 367.272C488.171 367.319 488.073 367.34 487.975 367.34V367.337Z" fill="#999999"/>
<path d="M493.08 378.393C491.231 378.393 489.48 377.59 488.275 376.189C488.041 375.917 488.07 375.505 488.343 375.268C488.615 375.031 489.027 375.064 489.264 375.336C490.221 376.45 491.613 377.087 493.08 377.087C495.853 377.087 498.11 374.833 498.11 372.064C498.11 371.246 497.909 370.435 497.53 369.718C497.361 369.398 497.482 369.004 497.799 368.835C498.116 368.667 498.513 368.788 498.682 369.105C499.162 370.008 499.414 371.033 499.414 372.064C499.414 375.553 496.573 378.393 493.077 378.393H493.08Z" fill="#999999"/>
<path d="M492.813 382.468C492.461 382.468 492.17 382.187 492.161 381.832L492.058 377.756C492.049 377.395 492.333 377.096 492.695 377.087H492.712C493.065 377.087 493.355 377.368 493.364 377.724L493.468 381.799C493.477 382.16 493.192 382.459 492.831 382.468H492.813Z" fill="#999999"/>
<path d="M493.08 359.165C492.736 359.165 492.446 358.896 492.428 358.549L492.161 353.695C492.141 353.334 492.416 353.026 492.778 353.008C493.136 352.975 493.444 353.263 493.465 353.624L493.732 358.478C493.752 358.84 493.477 359.148 493.115 359.165C493.104 359.165 493.092 359.165 493.08 359.165Z" fill="#999999"/>
<path d="M496.019 369.01C495.977 369.01 495.933 369.007 495.888 368.998L489.723 367.757C489.371 367.686 489.14 367.343 489.211 366.987C489.282 366.635 489.628 366.401 489.981 366.475L496.146 367.716C496.499 367.787 496.73 368.131 496.659 368.486C496.596 368.797 496.324 369.01 496.019 369.01Z" fill="#999999"/>
<path d="M520.086 343.145V353.183C520.086 368.08 507.993 380.158 493.08 380.158C478.166 380.158 466.073 368.08 466.073 353.183V343.145H520.089H520.086Z" fill="#13182C"/>
<path d="M493.08 380.813C477.829 380.813 465.419 368.418 465.419 353.183V343.145C465.419 342.784 465.712 342.494 466.07 342.494C466.429 342.494 466.722 342.787 466.722 343.145V353.183C466.722 367.698 478.546 379.507 493.077 379.507C507.608 379.507 519.431 367.698 519.431 353.183V343.145C519.431 342.784 519.725 342.494 520.083 342.494C520.442 342.494 520.735 342.787 520.735 343.145V353.183C520.735 368.418 508.325 380.813 493.074 380.813H493.08Z" fill="#999999"/>
<path d="M493.08 370.121C507.995 370.121 520.086 358.043 520.086 343.145C520.086 328.247 507.995 316.17 493.08 316.17C478.165 316.17 466.073 328.247 466.073 343.145C466.073 358.043 478.165 370.121 493.08 370.121Z" fill="#13182C"/>
<path d="M493.08 370.775C477.829 370.775 465.419 358.38 465.419 343.145C465.419 327.91 477.826 315.515 493.08 315.515C508.334 315.515 520.741 327.91 520.741 343.145C520.741 358.38 508.331 370.775 493.08 370.775ZM493.08 316.821C478.549 316.821 466.725 328.63 466.725 343.145C466.725 357.661 478.549 369.469 493.08 369.469C507.611 369.469 519.434 357.661 519.434 343.145C519.434 328.63 507.611 316.821 493.08 316.821Z" fill="#999999"/>
<path d="M473.655 346.489C473.332 346.489 473.053 346.252 473.009 345.926C472.881 345.011 472.819 344.075 472.819 343.145C472.819 336.064 476.602 329.403 482.696 325.763C483.004 325.579 483.407 325.68 483.591 325.988C483.775 326.296 483.674 326.699 483.366 326.882C477.666 330.288 474.126 336.52 474.126 343.145C474.126 344.016 474.185 344.893 474.303 345.749C474.354 346.107 474.102 346.436 473.746 346.483C473.717 346.489 473.687 346.489 473.657 346.489H473.655Z" fill="#999999"/>
<path d="M482.355 360.199C482.234 360.199 482.11 360.164 482 360.092C478.35 357.708 475.524 354.151 474.037 350.073C473.912 349.732 474.087 349.359 474.428 349.235C474.765 349.113 475.142 349.285 475.266 349.626C476.659 353.44 479.304 356.769 482.717 359C483.019 359.198 483.105 359.601 482.906 359.903C482.782 360.095 482.572 360.199 482.358 360.199H482.355Z" fill="#999999"/>
<path d="M493.08 363.386C490.203 363.386 487.421 362.796 484.817 361.633C484.489 361.484 484.34 361.099 484.489 360.771C484.637 360.442 485.022 360.291 485.351 360.442C487.786 361.529 490.387 362.083 493.08 362.083C500.092 362.083 506.503 358.241 509.812 352.057C509.981 351.74 510.378 351.622 510.695 351.791C511.012 351.959 511.133 352.356 510.962 352.673C507.427 359.284 500.575 363.389 493.08 363.389V363.386Z" fill="#999999"/>
<path d="M512.09 348.624C512.037 348.624 511.984 348.619 511.93 348.604C511.581 348.515 511.37 348.16 511.456 347.81C511.842 346.294 512.037 344.724 512.037 343.142C512.037 338.084 510.064 333.33 506.485 329.752C506.23 329.498 506.23 329.083 506.485 328.828C506.74 328.573 507.155 328.573 507.41 328.828C511.237 332.652 513.344 337.734 513.344 343.139C513.344 344.828 513.136 346.507 512.724 348.127C512.65 348.423 512.384 348.619 512.09 348.619V348.624Z" fill="#999999"/>
<path d="M504.044 327.555C503.92 327.555 503.792 327.519 503.68 327.442C500.545 325.327 496.881 324.208 493.08 324.208C491.412 324.208 489.759 324.424 488.162 324.851C487.812 324.948 487.454 324.738 487.362 324.389C487.27 324.039 487.475 323.681 487.824 323.589C489.531 323.133 491.299 322.902 493.08 322.902C497.141 322.902 501.058 324.098 504.409 326.358C504.708 326.56 504.785 326.965 504.583 327.264C504.456 327.451 504.252 327.552 504.041 327.552L504.044 327.555Z" fill="#999999"/>
<path d="M509.818 374.762C509.457 374.762 509.166 374.469 509.166 374.11V366.472C509.166 366.111 509.46 365.82 509.818 365.82C510.177 365.82 510.47 366.114 510.47 366.472V374.11C510.47 374.472 510.177 374.762 509.818 374.762Z" fill="#999999"/>
<path d="M505.798 377.271C505.436 377.271 505.146 376.977 505.146 376.619V371.489C505.146 371.128 505.439 370.838 505.798 370.838C506.156 370.838 506.45 371.131 506.45 371.489V376.619C506.45 376.98 506.156 377.271 505.798 377.271Z" fill="#999999"/>
<path d="M501.277 379.279C500.916 379.279 500.625 378.985 500.625 378.627V373.497C500.625 373.136 500.919 372.846 501.277 372.846C501.636 372.846 501.929 373.139 501.929 373.497V378.627C501.929 378.988 501.636 379.279 501.277 379.279Z" fill="#999999"/>
<path d="M487.975 342.535C487.732 342.535 487.501 342.402 487.389 342.171C486.962 341.3 486.746 340.364 486.746 339.39C486.746 335.901 489.587 333.06 493.083 333.06C495.533 333.06 497.784 334.494 498.824 336.709C498.978 337.035 498.836 337.426 498.51 337.577C498.184 337.731 497.796 337.589 497.642 337.263C496.819 335.504 495.029 334.367 493.083 334.367C490.31 334.367 488.052 336.621 488.052 339.39C488.052 340.166 488.224 340.906 488.562 341.596C488.722 341.919 488.589 342.31 488.263 342.47C488.171 342.517 488.073 342.538 487.975 342.538V342.535Z" fill="#999999"/>
<path d="M493.08 353.591C491.231 353.591 489.48 352.789 488.275 351.388C488.041 351.115 488.07 350.704 488.343 350.467C488.615 350.23 489.027 350.262 489.264 350.535C490.221 351.648 491.613 352.285 493.08 352.285C495.853 352.285 498.11 350.031 498.11 347.262C498.11 346.433 497.915 345.642 497.53 344.916C497.361 344.597 497.482 344.203 497.799 344.034C498.116 343.865 498.513 343.986 498.682 344.303C499.162 345.207 499.414 346.231 499.414 347.262C499.414 350.751 496.573 353.591 493.077 353.591H493.08Z" fill="#999999"/>
<path d="M492.813 357.667C492.461 357.667 492.17 357.385 492.161 357.03L492.058 352.955C492.049 352.593 492.333 352.294 492.695 352.285H492.712C493.065 352.285 493.355 352.567 493.364 352.922L493.468 356.997C493.477 357.359 493.192 357.658 492.831 357.667H492.813Z" fill="#999999"/>
<path d="M493.08 334.364C492.736 334.364 492.446 334.094 492.428 333.748L492.161 328.893C492.141 328.532 492.416 328.224 492.778 328.206C493.136 328.156 493.444 328.461 493.465 328.822L493.732 333.677C493.752 334.038 493.477 334.346 493.115 334.364C493.104 334.364 493.092 334.364 493.08 334.364Z" fill="#999999"/>
<path d="M496.019 344.209C495.977 344.209 495.933 344.206 495.888 344.197L489.723 342.956C489.371 342.885 489.14 342.541 489.211 342.186C489.282 341.833 489.628 341.602 489.981 341.673L496.146 342.914C496.499 342.985 496.73 343.329 496.659 343.684C496.596 343.995 496.324 344.209 496.019 344.209Z" fill="#999999"/>
<path d="M520.086 318.539V328.576C520.086 343.474 507.993 355.552 493.08 355.552C478.166 355.552 466.073 343.474 466.073 328.576V318.539H520.089H520.086Z" fill="#13182C"/>
<path d="M493.08 356.204C477.829 356.204 465.419 343.809 465.419 328.573V318.536C465.419 318.175 465.712 317.885 466.07 317.885C466.429 317.885 466.722 318.178 466.722 318.536V328.573C466.722 343.089 478.546 354.897 493.077 354.897C507.608 354.897 519.431 343.089 519.431 328.573V318.536C519.431 318.175 519.725 317.885 520.083 317.885C520.442 317.885 520.735 318.178 520.735 318.536V328.573C520.735 343.809 508.325 356.204 493.074 356.204H493.08Z" fill="white"/>
<path d="M493.08 345.515C507.995 345.515 520.086 333.437 520.086 318.539C520.086 303.641 507.995 291.563 493.08 291.563C478.165 291.563 466.073 303.641 466.073 318.539C466.073 333.437 478.165 345.515 493.08 345.515Z" fill="#13182C"/>
<path d="M493.08 346.169C477.829 346.169 465.419 333.774 465.419 318.539C465.419 303.304 477.826 290.909 493.08 290.909C508.334 290.909 520.741 303.304 520.741 318.539C520.741 333.774 508.331 346.169 493.08 346.169ZM493.08 292.215C478.549 292.215 466.725 304.024 466.725 318.539C466.725 333.055 478.549 344.863 493.08 344.863C507.611 344.863 519.434 333.055 519.434 318.539C519.434 304.024 507.611 292.215 493.08 292.215Z" fill="white"/>
<path d="M473.655 321.883C473.332 321.883 473.053 321.646 473.009 321.32C472.881 320.405 472.819 319.469 472.819 318.539C472.819 311.458 476.602 304.797 482.696 301.157C483.004 300.973 483.407 301.074 483.591 301.382C483.775 301.69 483.674 302.092 483.366 302.276C477.666 305.682 474.126 311.914 474.126 318.539C474.126 319.41 474.185 320.286 474.303 321.142C474.354 321.501 474.102 321.83 473.746 321.877C473.717 321.88 473.687 321.883 473.657 321.883H473.655Z" fill="white"/>
<path d="M482.355 335.593C482.234 335.593 482.11 335.557 482 335.486C478.35 333.102 475.524 329.542 474.037 325.467C473.912 325.126 474.087 324.753 474.428 324.628C474.765 324.507 475.142 324.679 475.266 325.019C476.656 328.834 479.304 332.163 482.717 334.393C483.019 334.592 483.105 334.995 482.906 335.297C482.782 335.489 482.572 335.593 482.358 335.593H482.355Z" fill="white"/>
<path d="M493.08 338.78C490.203 338.78 487.421 338.19 484.817 337.026C484.489 336.878 484.34 336.493 484.489 336.164C484.637 335.836 485.022 335.688 485.351 335.836C487.786 336.923 490.387 337.476 493.08 337.476C500.092 337.476 506.503 333.635 509.812 327.451C509.981 327.134 510.378 327.013 510.695 327.184C511.012 327.353 511.133 327.75 510.962 328.067C507.427 334.678 500.575 338.783 493.08 338.783V338.78Z" fill="white"/>
<path d="M512.09 324.018C512.037 324.018 511.984 324.012 511.93 323.998C511.581 323.909 511.37 323.553 511.456 323.204C511.842 321.687 512.037 320.118 512.037 318.536C512.037 313.477 510.064 308.724 506.485 305.146C506.23 304.891 506.23 304.477 506.485 304.222C506.74 303.967 507.155 303.967 507.41 304.222C511.237 308.046 513.344 313.128 513.344 318.533C513.344 320.221 513.136 321.901 512.724 323.521C512.65 323.817 512.384 324.012 512.09 324.012V324.018Z" fill="white"/>
<path d="M504.044 302.948C503.92 302.948 503.792 302.913 503.68 302.836C500.545 300.721 496.881 299.602 493.08 299.602C491.412 299.602 489.759 299.818 488.162 300.244C487.812 300.339 487.454 300.132 487.362 299.782C487.27 299.433 487.475 299.074 487.824 298.983C489.531 298.526 491.299 298.295 493.08 298.295C497.141 298.295 501.058 299.492 504.409 301.752C504.708 301.953 504.785 302.359 504.583 302.658C504.456 302.845 504.252 302.945 504.041 302.945L504.044 302.948Z" fill="white"/>
<path d="M509.818 350.156C509.457 350.156 509.166 349.863 509.166 349.504V341.866C509.166 341.504 509.46 341.214 509.818 341.214C510.177 341.214 510.47 341.507 510.47 341.866V349.504C510.47 349.865 510.177 350.156 509.818 350.156Z" fill="white"/>
<path d="M505.798 352.664C505.436 352.664 505.146 352.371 505.146 352.013V346.883C505.146 346.522 505.439 346.231 505.798 346.231C506.156 346.231 506.45 346.525 506.45 346.883V352.013C506.45 352.374 506.156 352.664 505.798 352.664Z" fill="white"/>
<path d="M501.277 354.672C500.916 354.672 500.625 354.379 500.625 354.021V348.891C500.625 348.53 500.919 348.239 501.277 348.239C501.636 348.239 501.929 348.533 501.929 348.891V354.021C501.929 354.382 501.636 354.672 501.277 354.672Z" fill="white"/>
<path d="M487.975 317.929C487.732 317.929 487.501 317.796 487.389 317.565C486.962 316.694 486.746 315.758 486.746 314.784C486.746 311.295 489.587 308.454 493.083 308.454C495.533 308.454 497.784 309.888 498.824 312.103C498.978 312.429 498.836 312.82 498.51 312.971C498.184 313.125 497.796 312.983 497.642 312.657C496.819 310.898 495.029 309.76 493.083 309.76C490.31 309.76 488.052 312.014 488.052 314.784C488.052 315.56 488.224 316.3 488.562 316.99C488.722 317.313 488.589 317.704 488.263 317.864C488.171 317.908 488.073 317.932 487.975 317.932V317.929Z" fill="white"/>
<path d="M493.08 328.985C491.231 328.985 489.48 328.183 488.275 326.782C488.041 326.509 488.07 326.094 488.343 325.861C488.618 325.627 489.03 325.656 489.264 325.929C490.221 327.042 491.613 327.679 493.08 327.679C495.853 327.679 498.11 325.425 498.11 322.656C498.11 321.838 497.909 321.027 497.53 320.31C497.361 319.99 497.482 319.596 497.799 319.428C498.116 319.259 498.513 319.38 498.682 319.697C499.162 320.6 499.414 321.625 499.414 322.656C499.414 326.145 496.573 328.985 493.077 328.985H493.08Z" fill="white"/>
<path d="M492.813 333.06C492.461 333.06 492.17 332.779 492.161 332.424L492.058 328.348C492.049 327.987 492.333 327.688 492.695 327.679H492.712C493.065 327.679 493.355 327.96 493.364 328.316L493.468 332.391C493.477 332.752 493.192 333.052 492.831 333.06H492.813Z" fill="white"/>
<path d="M493.08 309.757C492.736 309.757 492.446 309.488 492.428 309.141L492.161 304.287C492.141 303.926 492.416 303.618 492.778 303.6C493.136 303.564 493.444 303.855 493.465 304.216L493.732 309.07C493.752 309.432 493.477 309.74 493.115 309.757C493.104 309.757 493.092 309.757 493.08 309.757Z" fill="white"/>
<path d="M496.019 319.602C495.977 319.602 495.933 319.599 495.888 319.59L489.723 318.349C489.371 318.278 489.14 317.935 489.211 317.579C489.282 317.227 489.628 316.996 489.981 317.067L496.146 318.308C496.499 318.379 496.73 318.723 496.659 319.078C496.596 319.389 496.324 319.602 496.019 319.602Z" fill="white"/>
<path d="M477.965 0.654541H170.544V30.8436H477.965V0.654541Z" fill="#5177FF"/>
<path d="M461.976 22.3079C465.658 22.3079 468.642 19.3243 468.642 15.6439C468.642 11.9636 465.658 8.98001 461.976 8.98001C458.295 8.98001 455.311 11.9636 455.311 15.6439C455.311 19.3243 458.295 22.3079 461.976 22.3079Z" fill="#13182C"/>
<path d="M440.057 22.3079C443.738 22.3079 446.722 19.3243 446.722 15.6439C446.722 11.9636 443.738 8.98001 440.057 8.98001C436.375 8.98001 433.391 11.9636 433.391 15.6439C433.391 19.3243 436.375 22.3079 440.057 22.3079Z" fill="#13182C"/>
<path d="M418.134 22.3079C421.815 22.3079 424.8 19.3243 424.8 15.6439C424.8 11.9636 421.815 8.98001 418.134 8.98001C414.452 8.98001 411.468 11.9636 411.468 15.6439C411.468 19.3243 414.452 22.3079 418.134 22.3079Z" fill="#13182C"/>
<path d="M477.965 145.276C477.604 145.276 477.313 144.983 477.313 144.624V1.30613H171.198V206.973H415.192C415.553 206.973 415.844 207.266 415.844 207.624C415.844 207.983 415.551 208.276 415.192 208.276H170.544C170.182 208.276 169.892 207.983 169.892 207.624V0.651585C169.892 0.290251 170.185 0 170.544 0H477.965C478.326 0 478.617 0.293213 478.617 0.651585V144.624C478.617 144.986 478.323 145.276 477.965 145.276Z" fill="white"/>
<path d="M379.239 100.975C389.522 102.254 397.672 110.399 398.952 120.682H456.768C455.308 78.5337 421.399 44.6365 379.242 43.1764V100.975H379.239Z" fill="#FC9A54"/>
<path d="M424.702 163.086C433.311 152.773 438.661 139.646 439.159 125.285H394.238C393.877 128.182 392.813 130.856 391.225 133.142L424.702 163.086Z" fill="#999999"/>
<path d="M365.117 109.789C367.7 107.535 370.944 106.019 374.523 105.574V60.6655C357.684 61.249 342.536 68.4934 331.64 79.8458L365.117 109.789Z" fill="#4CCE82"/>
<path d="M388.286 136.418C385.191 139.107 381.147 140.739 376.721 140.739C372.979 140.739 369.513 139.572 366.657 137.588L336.706 171.056C347.546 180.104 361.496 185.551 376.721 185.551C394.422 185.551 410.399 178.188 421.766 166.364L388.286 136.421V136.418Z" fill="#5177FF"/>
<path d="M333.432 168.118L363.386 134.644C360.699 131.546 359.067 127.506 359.067 123.084C359.067 119.364 360.219 115.917 362.187 113.071L328.707 83.1244C319.68 93.9526 314.247 107.885 314.247 123.084C314.247 140.778 321.609 156.753 333.432 168.118Z" fill="#13182C"/>
<path d="M333.432 168.772C333.263 168.772 333.101 168.707 332.979 168.589C320.477 156.573 313.592 140.414 313.592 123.084C313.592 108.35 318.783 94.0089 328.203 82.7068C328.316 82.5706 328.482 82.4876 328.657 82.4728C328.832 82.4551 329.006 82.5173 329.14 82.6387L362.619 112.585C362.865 112.804 362.909 113.171 362.72 113.444C360.756 116.287 359.716 119.622 359.716 123.087C359.716 127.175 361.194 131.128 363.875 134.218C364.091 134.466 364.089 134.837 363.869 135.079L333.915 168.553C333.797 168.686 333.631 168.763 333.453 168.769C333.444 168.769 333.435 168.769 333.429 168.769L333.432 168.772ZM328.778 84.0663C319.822 95.0543 314.899 108.883 314.899 123.087C314.899 139.83 321.464 155.462 333.4 167.179L362.524 134.635C359.87 131.377 358.415 127.299 358.415 123.09C358.415 119.551 359.42 116.139 361.33 113.186L328.778 84.0722V84.0663Z" fill="white"/>
<path d="M220.498 107.337C206.491 107.337 195.097 95.9399 195.097 81.9279C195.097 67.9158 206.491 56.519 220.498 56.519C234.505 56.519 245.899 67.9158 245.899 81.9279C245.899 95.9399 234.505 107.337 220.498 107.337ZM220.498 57.8252C207.211 57.8252 196.404 68.6385 196.404 81.9279C196.404 95.2172 207.211 106.031 220.498 106.031C233.785 106.031 244.592 95.2172 244.592 81.9279C244.592 68.6385 233.785 57.8252 220.498 57.8252Z" fill="white"/>
<path d="M220.498 83.5983C227.59 83.5983 234.078 86.1958 239.058 90.4933C235.817 97.5037 228.725 102.37 220.498 102.37C212.271 102.37 205.176 97.5037 201.938 90.4933C206.918 86.1958 213.406 83.5983 220.498 83.5983Z" fill="white"/>
<path d="M220.498 80.0738C224.331 80.0738 227.439 76.9656 227.439 73.1315C227.439 69.2973 224.331 66.1891 220.498 66.1891C216.664 66.1891 213.557 69.2973 213.557 73.1315C213.557 76.9656 216.664 80.0738 220.498 80.0738Z" fill="white"/>
<path d="M305.688 65.973H260.371C260.009 65.973 259.719 65.6798 259.719 65.3214C259.719 64.963 260.012 64.6698 260.371 64.6698H305.688C306.05 64.6698 306.34 64.963 306.34 65.3214C306.34 65.6798 306.047 65.973 305.688 65.973Z" fill="#999999"/>
<path d="M305.688 74.8997H260.371C260.009 74.8997 259.719 74.6065 259.719 74.2481C259.719 73.8897 260.012 73.5965 260.371 73.5965H305.688C306.05 73.5965 306.34 73.8897 306.34 74.2481C306.34 74.6065 306.047 74.8997 305.688 74.8997Z" fill="#999999"/>
<path d="M305.688 83.7968H260.371C260.009 83.7968 259.719 83.5036 259.719 83.1452C259.719 82.7868 260.012 82.4936 260.371 82.4936H305.688C306.05 82.4936 306.34 82.7868 306.34 83.1452C306.34 83.5036 306.047 83.7968 305.688 83.7968Z" fill="#999999"/>
<path d="M287.202 92.3089H260.371C260.009 92.3089 259.719 92.0156 259.719 91.6573C259.719 91.2989 260.012 91.0057 260.371 91.0057H287.202C287.564 91.0057 287.854 91.2989 287.854 91.6573C287.854 92.0156 287.561 92.3089 287.202 92.3089Z" fill="#999999"/>
<path d="M207.095 159.419H196.827V180.536H207.095V159.419Z" fill="#13182C"/>
<path d="M224.408 141.358H214.14V180.539H224.408V141.358Z" fill="#13182C"/>
<path d="M241.724 147.611H231.456V180.536H241.724V147.611Z" fill="#13182C"/>
<path d="M259.037 136.777H248.769V180.536H259.037V136.777Z" fill="#13182C"/>
<path d="M276.35 134.309H266.082V180.536H276.35V134.309Z" fill="#13182C"/>
<path d="M293.666 147.611H283.398V180.536H293.666V147.611Z" fill="#13182C"/>
<path d="M62.3019 124.257C62.136 124.257 61.9672 124.192 61.8398 124.065C61.585 123.81 61.585 123.395 61.8398 123.141L116.294 68.7007C116.415 68.5793 116.581 68.5082 116.756 68.5082H161.552C161.914 68.5082 162.204 68.8014 162.204 69.1598C162.204 69.5182 161.911 69.8114 161.552 69.8114H117.026L62.7641 124.059C62.6367 124.186 62.4708 124.251 62.3019 124.251V124.257Z" fill="#999999"/>
<path d="M61.5583 129.713C64.451 129.713 66.796 127.368 66.796 124.476C66.796 121.584 64.451 119.24 61.5583 119.24C58.6656 119.24 56.3206 121.584 56.3206 124.476C56.3206 127.368 58.6656 129.713 61.5583 129.713Z" fill="#999999"/>
<path d="M32.1137 289.846C31.7523 289.846 31.462 289.552 31.462 289.194V116.459C31.462 116.284 31.5301 116.118 31.6545 115.997L104.542 43.129C104.663 43.0075 104.829 42.9365 105.004 42.9365H161.555C161.917 42.9365 162.207 43.2297 162.207 43.588C162.207 43.9464 161.914 44.2396 161.555 44.2396H105.273L32.7655 116.728V289.194C32.7655 289.555 32.4722 289.846 32.1137 289.846Z" fill="#999999"/>
<path d="M32.1137 294.43C35.0064 294.43 37.3515 292.086 37.3515 289.194C37.3515 286.302 35.0064 283.958 32.1137 283.958C29.221 283.958 26.876 286.302 26.876 289.194C26.876 292.086 29.221 294.43 32.1137 294.43Z" fill="#999999"/>
<path d="M161.552 31.4952H63.9845C63.6231 31.4952 63.3328 31.202 63.3328 30.8436C63.3328 30.4853 63.6261 30.192 63.9845 30.192H161.552C161.914 30.192 162.204 30.4853 162.204 30.8436C162.204 31.202 161.911 31.4952 161.552 31.4952Z" fill="#999999"/>
<path d="M62.3018 36.08C65.1946 36.08 67.5396 33.7356 67.5396 30.8436C67.5396 27.9517 65.1946 25.6073 62.3018 25.6073C59.4091 25.6073 57.0641 27.9517 57.0641 30.8436C57.0641 33.7356 59.4091 36.08 62.3018 36.08Z" fill="#999999"/>
<path d="M104.651 171.556C104.485 171.556 104.316 171.491 104.189 171.364C103.934 171.109 103.934 170.694 104.189 170.44L161.087 113.556C161.342 113.302 161.757 113.302 162.012 113.556C162.266 113.811 162.266 114.226 162.012 114.48L105.113 171.364C104.986 171.491 104.82 171.556 104.651 171.556Z" fill="#999999"/>
<path d="M104.651 176.138C107.544 176.138 109.889 173.794 109.889 170.902C109.889 168.01 107.544 165.665 104.651 165.665C101.758 165.665 99.4135 168.01 99.4135 170.902C99.4135 173.794 101.758 176.138 104.651 176.138Z" fill="#999999"/>
<path d="M130.458 173.274C130.292 173.274 130.123 173.209 129.996 173.082C129.741 172.827 129.741 172.412 129.996 172.158L161.09 141.074C161.345 140.819 161.76 140.819 162.015 141.074C162.269 141.329 162.269 141.743 162.015 141.998L130.92 173.082C130.792 173.209 130.627 173.274 130.458 173.274Z" fill="#999999"/>
<path d="M130.458 177.859C133.35 177.859 135.695 175.515 135.695 172.623C135.695 169.731 133.35 167.386 130.458 167.386C127.565 167.386 125.22 169.731 125.22 172.623C125.22 175.515 127.565 177.859 130.458 177.859Z" fill="#999999"/>
<path d="M318.889 483.944H264.586C264.225 483.944 263.934 483.651 263.934 483.292C263.934 482.934 264.228 482.641 264.586 482.641H318.62L364.776 436.497C365.031 436.242 365.445 436.242 365.7 436.497C365.955 436.751 365.955 437.166 365.7 437.421L319.351 483.757C319.23 483.879 319.064 483.95 318.889 483.95V483.944Z" fill="#999999"/>
<path d="M365.238 442.192C368.131 442.192 370.476 439.848 370.476 436.956C370.476 434.064 368.131 431.719 365.238 431.719C362.345 431.719 360 434.064 360 436.956C360 439.848 362.345 442.192 365.238 442.192Z" fill="#999999"/>
<path d="M411.468 517.613H256.217C255.856 517.613 255.565 517.32 255.565 516.961C255.565 516.603 255.858 516.31 256.217 516.31H411.199L447.67 479.848V404.966C447.67 404.604 447.963 404.314 448.322 404.314C448.68 404.314 448.974 404.607 448.974 404.966V480.117C448.974 480.292 448.906 480.458 448.781 480.579L411.924 517.426C411.803 517.548 411.637 517.619 411.462 517.619L411.468 517.613Z" fill="#999999"/>
<path d="M448.325 410.196C451.218 410.196 453.563 407.852 453.563 404.96C453.563 402.068 451.218 399.724 448.325 399.724C445.432 399.724 443.087 402.068 443.087 404.96C443.087 407.852 445.432 410.196 448.325 410.196Z" fill="#999999"/>
<path d="M440.057 528.66H254.422C254.06 528.66 253.77 528.367 253.77 528.009C253.77 527.65 254.063 527.357 254.422 527.357H439.784L488.251 478.903V443.199C488.251 442.838 488.544 442.547 488.903 442.547C489.261 442.547 489.554 442.841 489.554 443.199V479.172C489.554 479.347 489.486 479.513 489.362 479.634L440.513 528.471C440.391 528.592 440.225 528.663 440.051 528.663L440.057 528.66Z" fill="#999999"/>
<path d="M488.769 447.428C491.662 447.428 494.007 445.084 494.007 442.192C494.007 439.3 491.662 436.956 488.769 436.956C485.876 436.956 483.531 439.3 483.531 442.192C483.531 445.084 485.876 447.428 488.769 447.428Z" fill="#999999"/>
</g>
<defs>
<clipPath id="clip0_2403_471">
<rect width="542" height="542" fill="white"/>
</clipPath>
</defs>
</svg>
