<svg width="87" height="40" viewBox="0 0 87 40" fill="none" xmlns="http://www.w3.org/2000/svg">
<g clip-path="url(#clip0_2486_2825)">
<path d="M20.3 28.1L17.5 31C17.1 31.5 16.5 31.4 16 31L6.1 20.9V30.3C6.1 30.9 5.7 31.3 5 31.3H1C0.4 31.3 0 30.9 0 30.3V1C0 0.4 0.4 0 1 0H5C5.7 0 6.1 0.4 6.1 1V10.6H19.6C20.2 10.6 20.6 11 20.6 11.6V15.7C20.6 16.3 20.2 16.7 19.6 16.7H10.4L20.3 26.7C20.7 27.1 20.7 27.6 20.3 28.1ZM42.5 20.9C42.5 21.3 42.4 21.8 42.4 22.2C42.3 22.8 41.9 23.1 41.3 23.1H27.9C28.6 24.9 30.3 26.1 32.6 26.1C34.1 26.1 35.4 25.5 36.3 24.5C36.7 24 37.1 23.9 37.7 24.2L40.8 26.1C41.3 26.5 41.5 27 41.1 27.5C39.2 30.1 36.1 31.7 32.5 31.7C26.3 31.7 21.8 27.1 21.8 21C21.8 14.8 26.1 10.1 32.1 10.1C38.3 10.1 42.5 14.7 42.5 20.9ZM36.5 18.7C35.9 16.8 34.3 15.7 32.2 15.7C29.9 15.7 28.3 16.8 27.8 18.7H36.5ZM62.7 18.3V30.3C62.7 30.9 62.4 31.3 61.7 31.3H57.8C57.2 31.3 56.8 30.9 56.8 30.3V29.1C55.2 30.9 53.4 31.7 51.1 31.7C46.6 31.7 43.6 29.2 43.6 25.3C43.6 21.2 46.6 18.6 51 18.6H56.8V18.1C56.8 16.7 55.4 15.7 53.4 15.7C52.1 15.7 50.8 16.2 50.2 16.9C49.8 17.3 49.6 17.6 49 17.6H45.2C44.5 17.6 44.1 17.2 44.2 16.6C45 12.7 48.3 10.1 53.3 10.1C59 10.1 62.7 13.4 62.7 18.3ZM56.8 23.6V22.9H51.9C50.3 22.9 49.6 23.8 49.6 24.9C49.6 26 50.5 26.9 52.6 26.9C55.1 26.9 56.8 25.5 56.8 23.6ZM86.5 21C86.5 27 82.3 31.7 76.7 31.7C74.4 31.7 72.4 30.9 71.2 29.4V39C71.2 39.6 70.8 40 70.1 40H66.1C65.5 40 65.1 39.6 65.1 39V11.6C65.1 11 65.5 10.6 66.1 10.6H70C70.7 10.6 71 11 71 11.6V12.8C72.3 11.1 74.3 10.1 76.6 10.1C82.2 10.1 86.5 14.9 86.5 21ZM80.4 21C80.4 18.2 78.5 16.1 75.8 16.1C72.9 16.1 70.9 18.2 70.9 21C70.9 23.7 72.9 25.8 75.8 25.8C78.5 25.8 80.4 23.7 80.4 21Z" fill="#A3AED0"/>
</g>
<defs>
<clipPath id="clip0_2486_2825">
<rect width="87" height="40" fill="white"/>
</clipPath>
</defs>
</svg>
