<svg width="18" height="18" viewBox="0 0 18 18" fill="none" xmlns="http://www.w3.org/2000/svg">
<g clip-path="url(#clip0_2485_18521)">
<path d="M5.62922 17.9997C4.27153 17.9988 2.95998 17.5069 1.93656 16.6148C0.913149 15.7226 0.246949 14.4904 0.0608936 13.1456C-0.125161 11.8007 0.181485 10.4339 0.924248 9.29739C1.66701 8.16089 2.79576 7.3314 4.10222 6.96196C5.05182 6.69003 6.05694 6.6776 7.01297 6.92596L12.944 0.996459C13.2588 0.679422 13.6335 0.42806 14.0463 0.256956C14.459 0.0858523 14.9017 -0.00158753 15.3485 -0.000290965V-0.000290965C16.0516 0.000304859 16.7258 0.279903 17.2231 0.77712C17.7203 1.27434 17.9999 1.94854 18.0005 2.65171C18.0016 3.09855 17.9142 3.54119 17.7433 3.95404C17.5723 4.36689 17.3212 4.74175 17.0045 5.05696L16.5005 5.56096C16.2185 5.84104 15.8374 5.99868 15.44 5.99971H14.2505V6.74971C14.2505 7.14753 14.0924 7.52907 13.8111 7.81037C13.5298 8.09167 13.1483 8.24971 12.7505 8.24971H12.0005V9.43921C12.001 9.63626 11.9624 9.83146 11.887 10.0135C11.8116 10.1955 11.7007 10.3608 11.561 10.4997L11.0735 10.9872C11.3232 11.9428 11.311 12.948 11.0382 13.8972C10.7313 14.9787 10.1085 15.944 9.24958 16.6694C8.3907 17.3948 7.33484 17.8473 6.21722 17.969C6.02188 17.9893 5.82562 17.9995 5.62922 17.9997V17.9997ZM5.62922 8.24971C4.86133 8.24897 4.10848 8.46258 3.45541 8.8665C2.80234 9.27042 2.27498 9.84862 1.9327 10.536C1.59041 11.2234 1.44679 11.9927 1.518 12.7572C1.58921 13.5218 1.87242 14.2513 2.33576 14.8637C2.7991 15.476 3.42416 15.9469 4.14059 16.2233C4.85702 16.4996 5.63637 16.5706 6.39091 16.428C7.14546 16.2855 7.84524 15.9352 8.41148 15.4165C8.97772 14.8978 9.38794 14.2314 9.59597 13.4922C9.82997 12.6796 9.80374 11.8141 9.52097 11.0172C9.47482 10.8841 9.46709 10.7407 9.49866 10.6034C9.53023 10.4661 9.59982 10.3405 9.69947 10.241L10.5005 9.43921V8.24971C10.5005 7.85189 10.6585 7.47035 10.9398 7.18905C11.2211 6.90775 11.6026 6.74971 12.0005 6.74971H12.7505V5.99971C12.7505 5.60188 12.9085 5.22035 13.1898 4.93905C13.4711 4.65774 13.8526 4.49971 14.2505 4.49971H15.44L15.944 3.99571C16.1209 3.81957 16.2612 3.61011 16.3568 3.37942C16.4523 3.14873 16.5011 2.90139 16.5005 2.65171C16.5003 2.34637 16.3789 2.05358 16.1631 1.83761C15.9473 1.62163 15.6546 1.50011 15.3492 1.49971C15.0994 1.4991 14.8519 1.54803 14.621 1.64368C14.3902 1.73933 14.1807 1.8798 14.0045 2.05696L7.75622 8.30446C7.65651 8.40412 7.53072 8.47366 7.39329 8.5051C7.25586 8.53654 7.11235 8.5286 6.97922 8.48221C6.54427 8.32907 6.08659 8.25047 5.62547 8.24971H5.62922ZM3.75047 13.4997C3.75047 13.648 3.79446 13.7931 3.87687 13.9164C3.95928 14.0397 4.07641 14.1359 4.21346 14.1926C4.3505 14.2494 4.5013 14.2642 4.64679 14.2353C4.79227 14.2064 4.92591 14.1349 5.0308 14.03C5.13569 13.9252 5.20712 13.7915 5.23606 13.646C5.265 13.5005 5.25015 13.3497 5.19338 13.2127C5.13662 13.0757 5.04049 12.9585 4.91715 12.8761C4.79381 12.7937 4.64881 12.7497 4.50047 12.7497C4.30156 12.7497 4.11079 12.8287 3.97014 12.9694C3.82949 13.11 3.75047 13.3008 3.75047 13.4997Z" fill="#A3AED0"/>
</g>
<defs>
<clipPath id="clip0_2485_18521">
<rect width="18" height="18" fill="white"/>
</clipPath>
</defs>
</svg>
