<svg width="24" height="24" viewBox="0 0 24 24" fill="none" xmlns="http://www.w3.org/2000/svg">
<g clip-path="url(#clip0_2406_490)">
<path d="M0 21V3C0 1.34531 1.34531 0 3 0H12V5.18906H7.18594C6.07969 5.18906 5.18437 6.08437 5.18437 7.19062V16.8141C5.18437 17.9203 6.07969 18.8156 7.18594 18.8156H12V24H3C1.34531 24 0 22.6547 0 21Z" fill="#A3AED0"/>
<path d="M23.9297 12L23.5172 12.4125L22.9313 12.9984L22.5187 13.4156L17.7422 18.1875L16.3266 16.7766L20.1 12.9984H9.14062V11.0016H20.1L16.3266 7.22344L17.7422 5.8125L23.5172 11.5875L23.9297 12Z" fill="#A3AED0"/>
</g>
<defs>
<clipPath id="clip0_2406_490">
<rect width="24" height="24" fill="white"/>
</clipPath>
</defs>
</svg>
