<svg width="650" height="241" viewBox="0 0 650 241" fill="none" xmlns="http://www.w3.org/2000/svg">
<path d="M60.1593 137.412C74.489 132.129 108.212 122.52 128.465 126.342C153.782 131.12 163.225 155.404 182.32 146.645C201.415 137.886 240.493 82.4312 271.475 101.78C302.457 121.128 315.867 176.544 349.969 135.378C384.071 94.2126 379.593 74.0799 410.342 76.0005C441.09 77.9211 492.067 87.9515 508.94 69.3742C531 42 539 38.5 564.611 23.5477" stroke="#5177FF" stroke-width="2" stroke-linecap="round"/>
<path d="M64.0131 174.756C78.3432 169.478 96.1374 146.009 116.39 149.826C141.706 154.597 155.147 196.521 174.242 187.769C193.338 179.017 242.779 132.464 275.33 139.144C315.565 147.401 313.264 196.842 347.368 155.713C381.472 114.584 405.433 136.383 436.181 138.299C466.929 140.216 495.923 125.315 512.797 106.755C526 92.2317 544.873 96.1106 552.296 111.116" stroke="#4CCE82" stroke-width="2" stroke-linecap="round"/>
<path d="M227 59C227 55.6863 229.686 53 233 53H273.495C276.809 53 279.495 55.6863 279.495 59V76.3599C279.495 79.2713 277.135 81.6316 274.224 81.6316H262.251C259.022 81.6316 255.99 83.1858 254.105 85.8075C253.684 86.3936 252.812 86.3936 252.39 85.8075C250.505 83.1858 247.474 81.6316 244.244 81.6316H232.272C229.36 81.6316 227 79.2713 227 76.3599V59Z" fill="#5177FF"/>
<path d="M246.594 72.2069V70.5459L242.656 70.5349V69.0609L246.198 64.0669H248.299V69.1159H249.553V70.5459H248.299V72.2069H246.594ZM244.328 69.1159H246.594V65.8929L244.328 69.1159ZM253.64 72.3169C253.082 72.3169 252.569 72.2252 252.1 72.0419C251.638 71.8512 251.264 71.5836 250.978 71.2389C250.699 70.8869 250.56 70.4652 250.56 69.9739C250.56 69.5926 250.633 69.2736 250.78 69.0169C250.926 68.7602 251.095 68.5586 251.286 68.4119C251.476 68.2579 251.645 68.1516 251.792 68.0929C251.946 68.0269 252.023 67.9939 252.023 67.9939V67.9279C252.023 67.9279 251.957 67.8986 251.825 67.8399C251.7 67.7812 251.553 67.6859 251.385 67.5539C251.223 67.4219 251.08 67.2459 250.956 67.0259C250.831 66.7986 250.769 66.5236 250.769 66.2009C250.769 65.7462 250.893 65.3539 251.143 65.0239C251.399 64.6866 251.744 64.4262 252.177 64.2429C252.617 64.0522 253.104 63.9569 253.64 63.9569C254.182 63.9569 254.67 64.0522 255.103 64.2429C255.543 64.4262 255.887 64.6866 256.137 65.0239C256.393 65.3539 256.522 65.7426 256.522 66.1899C256.522 66.5199 256.456 66.7986 256.324 67.0259C256.199 67.2459 256.052 67.4219 255.884 67.5539C255.722 67.6859 255.576 67.7812 255.444 67.8399C255.319 67.8986 255.257 67.9279 255.257 67.9279V67.9939C255.264 67.9939 255.341 68.0269 255.488 68.0929C255.634 68.1516 255.803 68.2579 255.994 68.4119C256.184 68.5586 256.353 68.7602 256.5 69.0169C256.646 69.2736 256.72 69.5926 256.72 69.9739C256.72 70.4652 256.58 70.8869 256.302 71.2389C256.023 71.5836 255.649 71.8512 255.18 72.0419C254.718 72.2252 254.204 72.3169 253.64 72.3169ZM253.64 67.3669C254.006 67.3669 254.311 67.2679 254.553 67.0699C254.802 66.8646 254.927 66.6116 254.927 66.3109C254.927 66.0029 254.806 65.7499 254.564 65.5519C254.322 65.3539 254.014 65.2549 253.64 65.2549C253.273 65.2549 252.969 65.3539 252.727 65.5519C252.485 65.7499 252.364 66.0029 252.364 66.3109C252.364 66.6189 252.485 66.8719 252.727 67.0699C252.969 67.2679 253.273 67.3669 253.64 67.3669ZM253.64 70.9969C253.962 70.9969 254.23 70.9382 254.443 70.8209C254.663 70.6962 254.824 70.5422 254.927 70.3589C255.037 70.1756 255.092 69.9812 255.092 69.7759C255.092 69.5852 255.037 69.4019 254.927 69.2259C254.824 69.0426 254.663 68.8922 254.443 68.7749C254.23 68.6576 253.962 68.5989 253.64 68.5989C253.317 68.5989 253.049 68.6576 252.837 68.7749C252.624 68.8922 252.463 69.0426 252.353 69.2259C252.243 69.4019 252.188 69.5852 252.188 69.7759C252.188 69.9812 252.243 70.1756 252.353 70.3589C252.463 70.5422 252.624 70.6962 252.837 70.8209C253.057 70.9382 253.324 70.9969 253.64 70.9969ZM260.954 72.3169C260.412 72.3169 259.928 72.2069 259.502 71.9869C259.084 71.7669 258.729 71.4662 258.435 71.0849C258.142 70.6962 257.918 70.2489 257.764 69.7429C257.618 69.2369 257.544 68.7016 257.544 68.1369C257.544 67.5649 257.618 67.0259 257.764 66.5199C257.918 66.0139 258.142 65.5702 258.435 65.1889C258.729 64.8002 259.084 64.4996 259.502 64.2869C259.928 64.0669 260.412 63.9569 260.954 63.9569C261.497 63.9569 261.977 64.0669 262.395 64.2869C262.821 64.4996 263.18 64.8002 263.473 65.1889C263.767 65.5702 263.987 66.0139 264.133 66.5199C264.287 67.0259 264.364 67.5649 264.364 68.1369C264.364 68.7016 264.287 69.2369 264.133 69.7429C263.987 70.2489 263.767 70.6962 263.473 71.0849C263.18 71.4662 262.821 71.7669 262.395 71.9869C261.977 72.2069 261.497 72.3169 260.954 72.3169ZM260.954 70.8099C261.438 70.8099 261.834 70.5862 262.142 70.1389C262.458 69.6916 262.615 69.0242 262.615 68.1369C262.615 67.2496 262.458 66.5822 262.142 66.1349C261.834 65.6876 261.438 65.4639 260.954 65.4639C260.47 65.4639 260.071 65.6876 259.755 66.1349C259.447 66.5822 259.293 67.2496 259.293 68.1369C259.293 69.0242 259.447 69.6916 259.755 70.1389C260.071 70.5862 260.47 70.8099 260.954 70.8099Z" fill="white"/>
<path d="M44.0221 238.12C43.7261 238.12 43.4581 238.104 43.2181 238.072C42.9861 238.04 42.8701 238.024 42.8701 238.024V236.812C42.8701 236.812 42.9741 236.824 43.1821 236.848C43.3901 236.864 43.6021 236.872 43.8181 236.872C44.4101 236.872 44.8821 236.728 45.2341 236.44C45.5861 236.152 45.7621 235.644 45.7621 234.916V229.12H47.1661V234.928C47.1661 235.56 47.0501 236.116 46.8181 236.596C46.5861 237.076 46.2381 237.452 45.7741 237.724C45.3181 237.988 44.7341 238.12 44.0221 238.12ZM48.1028 238L51.1988 229.12H52.9988L56.1068 238H54.6308L53.9468 236.008H50.2628L49.5788 238H48.1028ZM50.6828 234.76H53.5268L52.1108 230.62L50.6828 234.76ZM57.2596 238V229.12H58.5316L62.8876 235.504V229.12H64.2916V238H63.0076L58.6516 231.676V238H57.2596Z" fill="#A3AED0"/>
<path d="M92.2553 238V229.12H98.2313V230.344H93.6593V233.068H97.6793V234.28H93.6593V238H92.2553ZM99.6559 238V229.12H105.452V230.344H101.06V232.876H104.9V234.088H101.06V236.776H105.512V238H99.6559ZM106.939 238V229.12H110.587C111.155 229.12 111.639 229.224 112.039 229.432C112.447 229.632 112.755 229.9 112.963 230.236C113.179 230.572 113.287 230.94 113.287 231.34C113.287 231.764 113.207 232.112 113.047 232.384C112.895 232.648 112.719 232.852 112.519 232.996C112.319 233.14 112.147 233.24 112.003 233.296V233.368C112.203 233.424 112.431 233.532 112.687 233.692C112.943 233.844 113.163 234.068 113.347 234.364C113.539 234.652 113.635 235.028 113.635 235.492C113.635 235.908 113.535 236.308 113.335 236.692C113.135 237.076 112.815 237.392 112.375 237.64C111.943 237.88 111.375 238 110.671 238H106.939ZM110.455 230.32H108.343V232.888H110.455C110.967 232.888 111.339 232.756 111.571 232.492C111.803 232.228 111.919 231.932 111.919 231.604C111.919 231.276 111.803 230.98 111.571 230.716C111.339 230.452 110.967 230.32 110.455 230.32ZM110.563 233.992H108.343V236.8H110.563C110.955 236.8 111.275 236.736 111.523 236.608C111.771 236.472 111.951 236.296 112.063 236.08C112.175 235.864 112.231 235.636 112.231 235.396C112.231 235.156 112.175 234.932 112.063 234.724C111.951 234.508 111.771 234.332 111.523 234.196C111.275 234.06 110.955 233.992 110.563 233.992Z" fill="#A3AED0"/>
<path d="M141.681 238V229.12H143.541L145.953 234.172L148.401 229.12H150.237V238H148.857V231.208L146.613 235.792H145.305L143.061 231.184V238H141.681ZM151.392 238L154.488 229.12H156.288L159.396 238H157.92L157.236 236.008H153.552L152.868 238H151.392ZM153.972 234.76H156.816L155.4 230.62L153.972 234.76ZM160.549 238V229.12H163.849C164.481 229.12 165.013 229.244 165.445 229.492C165.885 229.732 166.217 230.052 166.441 230.452C166.665 230.844 166.777 231.272 166.777 231.736C166.777 232.296 166.617 232.804 166.297 233.26C165.985 233.716 165.525 234.036 164.917 234.22L167.053 238H165.481L163.465 234.376H161.953V238H160.549ZM163.825 230.344H161.953V233.2H163.825C164.329 233.2 164.709 233.056 164.965 232.768C165.221 232.472 165.349 232.14 165.349 231.772C165.349 231.404 165.221 231.076 164.965 230.788C164.709 230.492 164.329 230.344 163.825 230.344Z" fill="#A3AED0"/>
<path d="M195.003 238L198.099 229.12H199.899L203.007 238H201.531L200.847 236.008H197.163L196.479 238H195.003ZM197.583 234.76H200.427L199.011 230.62L197.583 234.76ZM204.16 238V229.12H207.496C208.192 229.12 208.772 229.264 209.236 229.552C209.7 229.832 210.048 230.196 210.28 230.644C210.512 231.084 210.628 231.548 210.628 232.036C210.628 232.524 210.512 232.992 210.28 233.44C210.048 233.888 209.7 234.256 209.236 234.544C208.772 234.824 208.192 234.964 207.496 234.964H205.564V238H204.16ZM207.496 230.344H205.564V233.74H207.496C207.88 233.74 208.2 233.66 208.456 233.5C208.712 233.332 208.904 233.12 209.032 232.864C209.16 232.6 209.224 232.328 209.224 232.048C209.224 231.76 209.16 231.488 209.032 231.232C208.904 230.968 208.712 230.756 208.456 230.596C208.2 230.428 207.88 230.344 207.496 230.344ZM211.795 238V229.12H215.095C215.727 229.12 216.259 229.244 216.691 229.492C217.131 229.732 217.463 230.052 217.687 230.452C217.911 230.844 218.023 231.272 218.023 231.736C218.023 232.296 217.863 232.804 217.543 233.26C217.231 233.716 216.771 234.036 216.163 234.22L218.299 238H216.727L214.711 234.376H213.199V238H211.795ZM215.071 230.344H213.199V233.2H215.071C215.575 233.2 215.955 233.056 216.211 232.768C216.467 232.472 216.595 232.14 216.595 231.772C216.595 231.404 216.467 231.076 216.211 230.788C215.955 230.492 215.575 230.344 215.071 230.344Z" fill="#A3AED0"/>
<path d="M246.697 238V229.12H248.557L250.969 234.172L253.417 229.12H255.253V238H253.873V231.208L251.629 235.792H250.321L248.077 231.184V238H246.697ZM256.407 238L259.503 229.12H261.303L264.411 238H262.935L262.251 236.008H258.567L257.883 238H256.407ZM258.987 234.76H261.831L260.415 230.62L258.987 234.76ZM267.017 238V234.88L263.909 229.12H265.445L267.713 233.452L269.993 229.12H271.529L268.409 234.88V238H267.017Z" fill="#A3AED0"/>
<path d="M300.028 238.12C299.732 238.12 299.464 238.104 299.224 238.072C298.992 238.04 298.876 238.024 298.876 238.024V236.812C298.876 236.812 298.98 236.824 299.188 236.848C299.396 236.864 299.608 236.872 299.824 236.872C300.416 236.872 300.888 236.728 301.24 236.44C301.592 236.152 301.768 235.644 301.768 234.916V229.12H303.172V234.928C303.172 235.56 303.056 236.116 302.824 236.596C302.592 237.076 302.244 237.452 301.78 237.724C301.324 237.988 300.74 238.12 300.028 238.12ZM308.208 238.12C307.528 238.12 306.928 237.992 306.408 237.736C305.888 237.472 305.48 237.092 305.184 236.596C304.896 236.092 304.752 235.476 304.752 234.748V229.12H306.156V234.748C306.156 235.324 306.324 235.812 306.66 236.212C306.996 236.604 307.512 236.8 308.208 236.8C308.912 236.8 309.432 236.604 309.768 236.212C310.104 235.812 310.272 235.324 310.272 234.748V229.12H311.676V234.748C311.676 235.476 311.528 236.092 311.232 236.596C310.944 237.092 310.536 237.472 310.008 237.736C309.488 237.992 308.888 238.12 308.208 238.12ZM313.254 238V229.12H314.526L318.882 235.504V229.12H320.286V238H319.002L314.646 231.676V238H313.254Z" fill="#A3AED0"/>
<path d="M349.678 238.12C349.382 238.12 349.114 238.104 348.874 238.072C348.642 238.04 348.526 238.024 348.526 238.024V236.812C348.526 236.812 348.63 236.824 348.838 236.848C349.046 236.864 349.258 236.872 349.474 236.872C350.066 236.872 350.538 236.728 350.89 236.44C351.242 236.152 351.418 235.644 351.418 234.916V229.12H352.822V234.928C352.822 235.56 352.706 236.116 352.474 236.596C352.242 237.076 351.894 237.452 351.43 237.724C350.974 237.988 350.39 238.12 349.678 238.12ZM357.858 238.12C357.178 238.12 356.578 237.992 356.058 237.736C355.538 237.472 355.13 237.092 354.834 236.596C354.546 236.092 354.402 235.476 354.402 234.748V229.12H355.806V234.748C355.806 235.324 355.974 235.812 356.31 236.212C356.646 236.604 357.162 236.8 357.858 236.8C358.562 236.8 359.082 236.604 359.418 236.212C359.754 235.812 359.922 235.324 359.922 234.748V229.12H361.326V234.748C361.326 235.476 361.178 236.092 360.882 236.596C360.594 237.092 360.186 237.472 359.658 237.736C359.138 237.992 358.538 238.12 357.858 238.12ZM362.904 238V229.12H364.308V236.776H368.796V238H362.904Z" fill="#A3AED0"/>
<path d="M396.954 238L400.05 229.12H401.85L404.958 238H403.482L402.798 236.008H399.114L398.43 238H396.954ZM399.534 234.76H402.378L400.962 230.62L399.534 234.76ZM409.567 238.12C408.887 238.12 408.287 237.992 407.767 237.736C407.247 237.472 406.839 237.092 406.543 236.596C406.255 236.092 406.111 235.476 406.111 234.748V229.12H407.515V234.748C407.515 235.324 407.683 235.812 408.019 236.212C408.355 236.604 408.871 236.8 409.567 236.8C410.271 236.8 410.791 236.604 411.127 236.212C411.463 235.812 411.631 235.324 411.631 234.748V229.12H413.035V234.748C413.035 235.476 412.887 236.092 412.591 236.596C412.303 237.092 411.895 237.472 411.367 237.736C410.847 237.992 410.247 238.12 409.567 238.12ZM418.633 238.12C417.897 238.12 417.257 237.992 416.713 237.736C416.177 237.48 415.729 237.136 415.369 236.704C415.009 236.264 414.741 235.776 414.565 235.24C414.389 234.696 414.301 234.14 414.301 233.572C414.301 233.004 414.389 232.448 414.565 231.904C414.741 231.36 415.009 230.872 415.369 230.44C415.737 230 416.193 229.652 416.737 229.396C417.289 229.132 417.933 229 418.669 229C419.245 229 419.737 229.072 420.145 229.216C420.553 229.36 420.897 229.548 421.177 229.78C421.457 230.004 421.681 230.244 421.849 230.5C422.017 230.756 422.145 231 422.233 231.232C422.321 231.464 422.381 231.652 422.413 231.796C422.445 231.94 422.461 232.012 422.461 232.012H421.057C421.057 232.012 421.041 231.952 421.009 231.832C420.977 231.712 420.913 231.568 420.817 231.4C420.729 231.224 420.597 231.048 420.421 230.872C420.245 230.696 420.013 230.552 419.725 230.44C419.445 230.32 419.097 230.26 418.681 230.26C418.185 230.26 417.749 230.356 417.373 230.548C417.005 230.732 416.697 230.98 416.449 231.292C416.209 231.604 416.029 231.956 415.909 232.348C415.789 232.74 415.729 233.14 415.729 233.548C415.729 233.964 415.789 234.372 415.909 234.772C416.037 235.164 416.221 235.52 416.461 235.84C416.709 236.152 417.013 236.4 417.373 236.584C417.741 236.768 418.169 236.86 418.657 236.86C419.417 236.86 420.021 236.644 420.469 236.212C420.917 235.78 421.165 235.196 421.213 234.46H418.681V233.332H422.569V233.968C422.569 234.88 422.393 235.644 422.041 236.26C421.697 236.876 421.225 237.34 420.625 237.652C420.033 237.964 419.369 238.12 418.633 238.12Z" fill="#A3AED0"/>
<path d="M453.468 238.12C452.94 238.12 452.484 238.052 452.1 237.916C451.724 237.78 451.412 237.608 451.164 237.4C450.916 237.184 450.716 236.956 450.564 236.716C450.42 236.476 450.312 236.252 450.24 236.044C450.168 235.828 450.12 235.652 450.096 235.516C450.072 235.38 450.06 235.312 450.06 235.312H451.488C451.488 235.312 451.5 235.368 451.524 235.48C451.548 235.584 451.596 235.716 451.668 235.876C451.74 236.028 451.848 236.184 451.992 236.344C452.144 236.496 452.34 236.628 452.58 236.74C452.828 236.844 453.14 236.896 453.516 236.896C454.076 236.896 454.512 236.764 454.824 236.5C455.144 236.236 455.304 235.9 455.304 235.492C455.304 235.14 455.184 234.868 454.944 234.676C454.712 234.476 454.368 234.324 453.912 234.22L452.736 233.944C452.296 233.848 451.888 233.708 451.512 233.524C451.144 233.332 450.844 233.076 450.612 232.756C450.388 232.436 450.276 232.032 450.276 231.544C450.276 231.016 450.404 230.564 450.66 230.188C450.924 229.804 451.284 229.512 451.74 229.312C452.204 229.104 452.732 229 453.324 229C453.9 229 454.376 229.088 454.752 229.264C455.128 229.432 455.428 229.64 455.652 229.888C455.876 230.136 456.04 230.388 456.144 230.644C456.256 230.892 456.328 231.104 456.36 231.28C456.392 231.448 456.408 231.532 456.408 231.532H455.04C455.04 231.532 455.024 231.468 454.992 231.34C454.96 231.204 454.884 231.048 454.764 230.872C454.652 230.696 454.476 230.544 454.236 230.416C454.004 230.28 453.688 230.212 453.288 230.212C452.736 230.212 452.324 230.34 452.052 230.596C451.78 230.852 451.644 231.136 451.644 231.448C451.644 231.752 451.76 231.996 451.992 232.18C452.224 232.356 452.536 232.488 452.928 232.576L454.188 232.876C454.652 232.98 455.072 233.136 455.448 233.344C455.832 233.552 456.136 233.828 456.36 234.172C456.584 234.508 456.696 234.92 456.696 235.408C456.696 235.904 456.572 236.36 456.324 236.776C456.084 237.184 455.724 237.512 455.244 237.76C454.764 238 454.172 238.12 453.468 238.12ZM457.879 238V229.12H463.675V230.344H459.283V232.876H463.123V234.088H459.283V236.776H463.735V238H457.879ZM465.162 238V229.12H468.498C469.194 229.12 469.774 229.264 470.238 229.552C470.702 229.832 471.05 230.196 471.282 230.644C471.514 231.084 471.63 231.548 471.63 232.036C471.63 232.524 471.514 232.992 471.282 233.44C471.05 233.888 470.702 234.256 470.238 234.544C469.774 234.824 469.194 234.964 468.498 234.964H466.566V238H465.162ZM468.498 230.344H466.566V233.74H468.498C468.882 233.74 469.202 233.66 469.458 233.5C469.714 233.332 469.906 233.12 470.034 232.864C470.162 232.6 470.226 232.328 470.226 232.048C470.226 231.76 470.162 231.488 470.034 231.232C469.906 230.968 469.714 230.756 469.458 230.596C469.202 230.428 468.882 230.344 468.498 230.344Z" fill="#A3AED0"/>
<path d="M503.264 238.12C502.552 238.12 501.924 237.992 501.38 237.736C500.836 237.472 500.38 237.124 500.012 236.692C499.644 236.252 499.368 235.76 499.184 235.216C499 234.672 498.908 234.116 498.908 233.548C498.908 232.98 499 232.428 499.184 231.892C499.368 231.348 499.644 230.86 500.012 230.428C500.38 229.996 500.836 229.652 501.38 229.396C501.924 229.132 502.552 229 503.264 229C503.984 229 504.616 229.132 505.16 229.396C505.704 229.652 506.16 229.996 506.528 230.428C506.896 230.86 507.172 231.348 507.356 231.892C507.54 232.428 507.632 232.98 507.632 233.548C507.632 234.116 507.54 234.672 507.356 235.216C507.172 235.76 506.896 236.252 506.528 236.692C506.16 237.124 505.704 237.472 505.16 237.736C504.616 237.992 503.984 238.12 503.264 238.12ZM503.264 236.836C503.904 236.836 504.44 236.68 504.872 236.368C505.304 236.048 505.632 235.64 505.856 235.144C506.08 234.64 506.192 234.108 506.192 233.548C506.192 233.132 506.128 232.732 506 232.348C505.872 231.956 505.684 231.604 505.436 231.292C505.196 230.98 504.892 230.736 504.524 230.56C504.164 230.376 503.744 230.284 503.264 230.284C502.792 230.284 502.372 230.376 502.004 230.56C501.644 230.736 501.34 230.98 501.092 231.292C500.852 231.604 500.668 231.956 500.54 232.348C500.412 232.732 500.348 233.132 500.348 233.548C500.348 234.108 500.46 234.64 500.684 235.144C500.908 235.64 501.236 236.048 501.668 236.368C502.1 236.68 502.632 236.836 503.264 236.836ZM512.866 238.12C512.154 238.12 511.53 237.992 510.994 237.736C510.466 237.472 510.022 237.124 509.662 236.692C509.31 236.252 509.042 235.764 508.858 235.228C508.682 234.684 508.594 234.128 508.594 233.56C508.594 232.992 508.682 232.436 508.858 231.892C509.042 231.348 509.31 230.86 509.662 230.428C510.022 229.988 510.466 229.64 510.994 229.384C511.53 229.128 512.154 229 512.866 229C513.45 229 513.95 229.076 514.366 229.228C514.79 229.38 515.142 229.576 515.422 229.816C515.71 230.048 515.938 230.296 516.106 230.56C516.282 230.824 516.41 231.076 516.49 231.316C516.578 231.556 516.638 231.752 516.67 231.904C516.702 232.048 516.718 232.12 516.718 232.12H515.314C515.314 232.12 515.298 232.06 515.266 231.94C515.242 231.812 515.182 231.656 515.086 231.472C514.998 231.288 514.862 231.108 514.678 230.932C514.502 230.748 514.266 230.596 513.97 230.476C513.682 230.348 513.318 230.284 512.878 230.284C512.406 230.284 511.99 230.376 511.63 230.56C511.278 230.744 510.982 230.992 510.742 231.304C510.502 231.616 510.322 231.968 510.202 232.36C510.09 232.752 510.034 233.152 510.034 233.56C510.034 233.968 510.09 234.368 510.202 234.76C510.322 235.144 510.502 235.496 510.742 235.816C510.982 236.128 511.278 236.376 511.63 236.56C511.99 236.744 512.406 236.836 512.878 236.836C513.318 236.836 513.682 236.776 513.97 236.656C514.266 236.528 514.502 236.372 514.678 236.188C514.862 236.004 514.998 235.82 515.086 235.636C515.182 235.452 515.242 235.3 515.266 235.18C515.298 235.052 515.314 234.988 515.314 234.988H516.718C516.718 234.988 516.702 235.064 516.67 235.216C516.638 235.368 516.578 235.564 516.49 235.804C516.41 236.036 516.282 236.288 516.106 236.56C515.938 236.824 515.71 237.076 515.422 237.316C515.142 237.548 514.79 237.74 514.366 237.892C513.95 238.044 513.45 238.12 512.866 238.12ZM519.62 238V230.344H516.86V229.12H523.772V230.344H521.012V238H519.62Z" fill="#A3AED0"/>
<path d="M551.363 238V229.12H552.635L556.991 235.504V229.12H558.395V238H557.111L552.755 231.676V238H551.363ZM564.026 238.12C563.314 238.12 562.686 237.992 562.142 237.736C561.598 237.472 561.142 237.124 560.774 236.692C560.406 236.252 560.13 235.76 559.946 235.216C559.762 234.672 559.67 234.116 559.67 233.548C559.67 232.98 559.762 232.428 559.946 231.892C560.13 231.348 560.406 230.86 560.774 230.428C561.142 229.996 561.598 229.652 562.142 229.396C562.686 229.132 563.314 229 564.026 229C564.746 229 565.378 229.132 565.922 229.396C566.466 229.652 566.922 229.996 567.29 230.428C567.658 230.86 567.934 231.348 568.118 231.892C568.302 232.428 568.394 232.98 568.394 233.548C568.394 234.116 568.302 234.672 568.118 235.216C567.934 235.76 567.658 236.252 567.29 236.692C566.922 237.124 566.466 237.472 565.922 237.736C565.378 237.992 564.746 238.12 564.026 238.12ZM564.026 236.836C564.666 236.836 565.202 236.68 565.634 236.368C566.066 236.048 566.394 235.64 566.618 235.144C566.842 234.64 566.954 234.108 566.954 233.548C566.954 233.132 566.89 232.732 566.762 232.348C566.634 231.956 566.446 231.604 566.198 231.292C565.958 230.98 565.654 230.736 565.286 230.56C564.926 230.376 564.506 230.284 564.026 230.284C563.554 230.284 563.134 230.376 562.766 230.56C562.406 230.736 562.102 230.98 561.854 231.292C561.614 231.604 561.43 231.956 561.302 232.348C561.174 232.732 561.11 233.132 561.11 233.548C561.11 234.108 561.222 234.64 561.446 235.144C561.67 235.64 561.998 236.048 562.43 236.368C562.862 236.68 563.394 236.836 564.026 236.836ZM571.929 238L568.833 229.12H570.309L572.841 236.5L575.361 229.12H576.837L573.729 238H571.929Z" fill="#A3AED0"/>
<path d="M604.63 238V229.12H607.666C608.378 229.12 609.002 229.248 609.538 229.504C610.074 229.752 610.518 230.088 610.87 230.512C611.23 230.936 611.498 231.412 611.674 231.94C611.858 232.468 611.95 233.008 611.95 233.56C611.95 234.112 611.858 234.652 611.674 235.18C611.498 235.708 611.23 236.184 610.87 236.608C610.518 237.032 610.074 237.372 609.538 237.628C609.002 237.876 608.378 238 607.666 238H604.63ZM607.606 230.344H606.034V236.764H607.606C608.102 236.764 608.534 236.676 608.902 236.5C609.27 236.316 609.574 236.072 609.814 235.768C610.054 235.456 610.234 235.112 610.354 234.736C610.482 234.352 610.546 233.96 610.546 233.56C610.546 233.16 610.482 232.768 610.354 232.384C610.234 232 610.054 231.656 609.814 231.352C609.574 231.048 609.27 230.804 608.902 230.62C608.534 230.436 608.102 230.344 607.606 230.344ZM613.226 238V229.12H619.022V230.344H614.63V232.876H618.47V234.088H614.63V236.776H619.082V238H613.226ZM624.423 238.12C623.711 238.12 623.087 237.992 622.551 237.736C622.023 237.472 621.579 237.124 621.219 236.692C620.867 236.252 620.599 235.764 620.415 235.228C620.239 234.684 620.151 234.128 620.151 233.56C620.151 232.992 620.239 232.436 620.415 231.892C620.599 231.348 620.867 230.86 621.219 230.428C621.579 229.988 622.023 229.64 622.551 229.384C623.087 229.128 623.711 229 624.423 229C625.007 229 625.507 229.076 625.923 229.228C626.347 229.38 626.699 229.576 626.979 229.816C627.267 230.048 627.495 230.296 627.663 230.56C627.839 230.824 627.967 231.076 628.047 231.316C628.135 231.556 628.195 231.752 628.227 231.904C628.259 232.048 628.275 232.12 628.275 232.12H626.871C626.871 232.12 626.855 232.06 626.823 231.94C626.799 231.812 626.739 231.656 626.643 231.472C626.555 231.288 626.419 231.108 626.235 230.932C626.059 230.748 625.823 230.596 625.527 230.476C625.239 230.348 624.875 230.284 624.435 230.284C623.963 230.284 623.547 230.376 623.187 230.56C622.835 230.744 622.539 230.992 622.299 231.304C622.059 231.616 621.879 231.968 621.759 232.36C621.647 232.752 621.591 233.152 621.591 233.56C621.591 233.968 621.647 234.368 621.759 234.76C621.879 235.144 622.059 235.496 622.299 235.816C622.539 236.128 622.835 236.376 623.187 236.56C623.547 236.744 623.963 236.836 624.435 236.836C624.875 236.836 625.239 236.776 625.527 236.656C625.823 236.528 626.059 236.372 626.235 236.188C626.419 236.004 626.555 235.82 626.643 235.636C626.739 235.452 626.799 235.3 626.823 235.18C626.855 235.052 626.871 234.988 626.871 234.988H628.275C628.275 234.988 628.259 235.064 628.227 235.216C628.195 235.368 628.135 235.564 628.047 235.804C627.967 236.036 627.839 236.288 627.663 236.56C627.495 236.824 627.267 237.076 626.979 237.316C626.699 237.548 626.347 237.74 625.923 237.892C625.507 238.044 625.007 238.12 624.423 238.12Z" fill="#A3AED0"/>
<path opacity="0.2" d="M650 216L32 216" stroke="#A3AED0"/>
<path opacity="0.2" d="M36 0L36 221" stroke="#A3AED0"/>
<path d="M5.20337 12.12C4.58737 12.12 4.03937 12.012 3.55937 11.796C3.08737 11.572 2.71537 11.268 2.44337 10.884C2.17137 10.5 2.03537 10.056 2.03537 9.552C2.03537 9.12 2.11137 8.764 2.26337 8.484C2.42337 8.196 2.60337 7.972 2.80337 7.812C3.01137 7.644 3.19137 7.524 3.34337 7.452C3.50337 7.38 3.58337 7.344 3.58337 7.344V7.272C3.58337 7.272 3.51537 7.244 3.37937 7.188C3.24337 7.124 3.08737 7.02 2.91137 6.876C2.74337 6.732 2.59137 6.54 2.45537 6.3C2.32737 6.06 2.26337 5.764 2.26337 5.412C2.26337 4.94 2.38737 4.524 2.63537 4.164C2.88337 3.804 3.22737 3.52 3.66737 3.312C4.11537 3.104 4.62737 3 5.20337 3C5.78737 3 6.29937 3.104 6.73937 3.312C7.18737 3.52 7.53537 3.804 7.78337 4.164C8.03137 4.524 8.15537 4.936 8.15537 5.4C8.15537 5.76 8.08737 6.06 7.95137 6.3C7.82337 6.54 7.67137 6.732 7.49537 6.876C7.31937 7.02 7.16337 7.124 7.02737 7.188C6.89937 7.244 6.83537 7.272 6.83537 7.272V7.344C6.83537 7.344 6.91137 7.38 7.06337 7.452C7.22337 7.524 7.40337 7.644 7.60337 7.812C7.81137 7.972 7.99137 8.196 8.14337 8.484C8.30337 8.764 8.38337 9.12 8.38337 9.552C8.38337 10.056 8.24737 10.5 7.97537 10.884C7.70338 11.268 7.32738 11.572 6.84737 11.796C6.37537 12.012 5.82737 12.12 5.20337 12.12ZM5.20337 6.804C5.72337 6.804 6.12337 6.668 6.40337 6.396C6.68337 6.116 6.82337 5.804 6.82337 5.46C6.82337 5.1 6.68337 4.784 6.40337 4.512C6.12337 4.232 5.72337 4.092 5.20337 4.092C4.69137 4.092 4.29537 4.232 4.01537 4.512C3.73537 4.784 3.59537 5.1 3.59537 5.46C3.59537 5.804 3.73537 6.116 4.01537 6.396C4.29537 6.668 4.69137 6.804 5.20337 6.804ZM5.20337 11.004C5.61137 11.004 5.95137 10.928 6.22337 10.776C6.49537 10.616 6.69937 10.416 6.83537 10.176C6.97937 9.928 7.05137 9.672 7.05137 9.408C7.05137 9.152 6.98337 8.908 6.84737 8.676C6.71137 8.436 6.50737 8.24 6.23537 8.088C5.96337 7.936 5.61937 7.86 5.20337 7.86C4.79537 7.86 4.45537 7.936 4.18337 8.088C3.91137 8.24 3.70737 8.436 3.57137 8.676C3.43537 8.908 3.36737 9.152 3.36737 9.408C3.36737 9.672 3.43537 9.928 3.57137 10.176C3.71537 10.416 3.92337 10.616 4.19537 10.776C4.46737 10.928 4.80337 11.004 5.20337 11.004ZM12.9377 12.108C12.3698 12.108 11.8658 11.988 11.4257 11.748C10.9937 11.508 10.6297 11.176 10.3337 10.752C10.0377 10.328 9.81375 9.844 9.66175 9.3C9.50975 8.748 9.43375 8.164 9.43375 7.548C9.43375 6.932 9.50975 6.352 9.66175 5.808C9.81375 5.256 10.0377 4.768 10.3337 4.344C10.6297 3.92 10.9937 3.588 11.4257 3.348C11.8658 3.108 12.3698 2.988 12.9377 2.988C13.5057 2.988 14.0057 3.108 14.4377 3.348C14.8777 3.588 15.2457 3.92 15.5417 4.344C15.8377 4.768 16.0617 5.256 16.2137 5.808C16.3657 6.352 16.4417 6.932 16.4417 7.548C16.4417 8.164 16.3657 8.748 16.2137 9.3C16.0617 9.844 15.8377 10.328 15.5417 10.752C15.2457 11.176 14.8777 11.508 14.4377 11.748C14.0057 11.988 13.5057 12.108 12.9377 12.108ZM12.9377 10.848C13.5297 10.848 14.0217 10.572 14.4138 10.02C14.8057 9.46 15.0017 8.636 15.0017 7.548C15.0017 6.468 14.8057 5.652 14.4138 5.1C14.0217 4.548 13.5297 4.272 12.9377 4.272C12.3457 4.272 11.8537 4.548 11.4617 5.1C11.0697 5.652 10.8737 6.468 10.8737 7.548C10.8737 8.628 11.0657 9.448 11.4497 10.008C11.8417 10.568 12.3377 10.848 12.9377 10.848ZM20.9009 12.108C20.3329 12.108 19.8289 11.988 19.3889 11.748C18.9569 11.508 18.5929 11.176 18.2969 10.752C18.0009 10.328 17.7769 9.844 17.6249 9.3C17.4729 8.748 17.3969 8.164 17.3969 7.548C17.3969 6.932 17.4729 6.352 17.6249 5.808C17.7769 5.256 18.0009 4.768 18.2969 4.344C18.5929 3.92 18.9569 3.588 19.3889 3.348C19.8289 3.108 20.3329 2.988 20.9009 2.988C21.4689 2.988 21.9689 3.108 22.4009 3.348C22.8409 3.588 23.2089 3.92 23.5049 4.344C23.8009 4.768 24.0249 5.256 24.1769 5.808C24.3289 6.352 24.4049 6.932 24.4049 7.548C24.4049 8.164 24.3289 8.748 24.1769 9.3C24.0249 9.844 23.8009 10.328 23.5049 10.752C23.2089 11.176 22.8409 11.508 22.4009 11.748C21.9689 11.988 21.4689 12.108 20.9009 12.108ZM20.9009 10.848C21.4929 10.848 21.9849 10.572 22.3769 10.02C22.7689 9.46 22.9649 8.636 22.9649 7.548C22.9649 6.468 22.7689 5.652 22.3769 5.1C21.9849 4.548 21.4929 4.272 20.9009 4.272C20.3089 4.272 19.8169 4.548 19.4249 5.1C19.0329 5.652 18.8369 6.468 18.8369 7.548C18.8369 8.628 19.0289 9.448 19.4129 10.008C19.8049 10.568 20.3009 10.848 20.9009 10.848Z" fill="#A3AED0"/>
<path d="M4.4815 38C4.5135 37.248 4.6135 36.532 4.7815 35.852C4.9495 35.172 5.1575 34.544 5.4055 33.968C5.6615 33.384 5.9295 32.856 6.2095 32.384C6.4895 31.912 6.7575 31.504 7.0135 31.16C7.2695 30.816 7.4775 30.548 7.6375 30.356H3.0055V29.12H9.2215V30.14C9.2215 30.14 9.1455 30.228 8.9935 30.404C8.8415 30.572 8.6415 30.82 8.3935 31.148C8.1535 31.476 7.8935 31.872 7.6135 32.336C7.3335 32.8 7.0655 33.324 6.8095 33.908C6.5615 34.492 6.3495 35.128 6.1735 35.816C5.9975 36.496 5.8975 37.224 5.8735 38H4.4815ZM12.9377 38.108C12.3698 38.108 11.8658 37.988 11.4257 37.748C10.9937 37.508 10.6297 37.176 10.3337 36.752C10.0377 36.328 9.81375 35.844 9.66175 35.3C9.50975 34.748 9.43375 34.164 9.43375 33.548C9.43375 32.932 9.50975 32.352 9.66175 31.808C9.81375 31.256 10.0377 30.768 10.3337 30.344C10.6297 29.92 10.9937 29.588 11.4257 29.348C11.8658 29.108 12.3698 28.988 12.9377 28.988C13.5057 28.988 14.0057 29.108 14.4377 29.348C14.8777 29.588 15.2457 29.92 15.5417 30.344C15.8377 30.768 16.0617 31.256 16.2137 31.808C16.3657 32.352 16.4417 32.932 16.4417 33.548C16.4417 34.164 16.3657 34.748 16.2137 35.3C16.0617 35.844 15.8377 36.328 15.5417 36.752C15.2457 37.176 14.8777 37.508 14.4377 37.748C14.0057 37.988 13.5057 38.108 12.9377 38.108ZM12.9377 36.848C13.5297 36.848 14.0217 36.572 14.4138 36.02C14.8057 35.46 15.0017 34.636 15.0017 33.548C15.0017 32.468 14.8057 31.652 14.4138 31.1C14.0217 30.548 13.5297 30.272 12.9377 30.272C12.3457 30.272 11.8537 30.548 11.4617 31.1C11.0697 31.652 10.8737 32.468 10.8737 33.548C10.8737 34.628 11.0657 35.448 11.4497 36.008C11.8417 36.568 12.3377 36.848 12.9377 36.848ZM20.9009 38.108C20.3329 38.108 19.8289 37.988 19.3889 37.748C18.9569 37.508 18.5929 37.176 18.2969 36.752C18.0009 36.328 17.7769 35.844 17.6249 35.3C17.4729 34.748 17.3969 34.164 17.3969 33.548C17.3969 32.932 17.4729 32.352 17.6249 31.808C17.7769 31.256 18.0009 30.768 18.2969 30.344C18.5929 29.92 18.9569 29.588 19.3889 29.348C19.8289 29.108 20.3329 28.988 20.9009 28.988C21.4689 28.988 21.9689 29.108 22.4009 29.348C22.8409 29.588 23.2089 29.92 23.5049 30.344C23.8009 30.768 24.0249 31.256 24.1769 31.808C24.3289 32.352 24.4049 32.932 24.4049 33.548C24.4049 34.164 24.3289 34.748 24.1769 35.3C24.0249 35.844 23.8009 36.328 23.5049 36.752C23.2089 37.176 22.8409 37.508 22.4009 37.748C21.9689 37.988 21.4689 38.108 20.9009 38.108ZM20.9009 36.848C21.4929 36.848 21.9849 36.572 22.3769 36.02C22.7689 35.46 22.9649 34.636 22.9649 33.548C22.9649 32.468 22.7689 31.652 22.3769 31.1C21.9849 30.548 21.4929 30.272 20.9009 30.272C20.3089 30.272 19.8169 30.548 19.4249 31.1C19.0329 31.652 18.8369 32.468 18.8369 33.548C18.8369 34.628 19.0289 35.448 19.4129 36.008C19.8049 36.568 20.3009 36.848 20.9009 36.848Z" fill="#A3AED0"/>
<path d="M5.09547 64.12C4.51147 64.12 4.00347 64.012 3.57147 63.796C3.13947 63.58 2.78347 63.284 2.50347 62.908C2.22347 62.524 2.01547 62.088 1.87947 61.6C1.74347 61.112 1.67547 60.6 1.67547 60.064C1.67547 59.616 1.72347 59.156 1.81947 58.684C1.92347 58.212 2.08347 57.756 2.29947 57.316C2.52347 56.876 2.81147 56.484 3.16347 56.14C3.51547 55.788 3.93947 55.512 4.43547 55.312C4.93147 55.104 5.51147 55 6.17547 55C6.54347 55 6.86347 55.028 7.13547 55.084C7.40747 55.14 7.54347 55.168 7.54347 55.168V56.428C7.54347 56.428 7.47147 56.416 7.32747 56.392C7.19147 56.368 7.01547 56.344 6.79947 56.32C6.59147 56.288 6.37947 56.272 6.16347 56.272C5.60347 56.272 5.13147 56.372 4.74747 56.572C4.36347 56.772 4.05547 57.028 3.82347 57.34C3.59147 57.644 3.41947 57.964 3.30747 58.3C3.20347 58.636 3.14347 58.944 3.12747 59.224C3.19147 59.112 3.30747 58.972 3.47547 58.804C3.64347 58.636 3.87547 58.488 4.17147 58.36C4.46747 58.224 4.84747 58.156 5.31147 58.156C5.95947 58.156 6.49947 58.3 6.93147 58.588C7.36347 58.868 7.68747 59.232 7.90347 59.68C8.12747 60.12 8.23947 60.584 8.23947 61.072C8.23947 61.456 8.17147 61.828 8.03547 62.188C7.90747 62.548 7.71147 62.876 7.44747 63.172C7.19147 63.46 6.86747 63.692 6.47547 63.868C6.08347 64.036 5.62347 64.12 5.09547 64.12ZM5.08347 62.944C5.39547 62.944 5.68747 62.876 5.95947 62.74C6.23147 62.596 6.45147 62.388 6.61947 62.116C6.78747 61.844 6.87147 61.512 6.87147 61.12C6.87147 60.728 6.78747 60.396 6.61947 60.124C6.45147 59.852 6.23147 59.648 5.95947 59.512C5.68747 59.368 5.39547 59.296 5.08347 59.296C4.77147 59.296 4.47947 59.368 4.20747 59.512C3.93547 59.648 3.71547 59.852 3.54747 60.124C3.37947 60.396 3.29547 60.728 3.29547 61.12C3.29547 61.512 3.37947 61.844 3.54747 62.116C3.71547 62.388 3.93547 62.596 4.20747 62.74C4.47947 62.876 4.77147 62.944 5.08347 62.944ZM12.9377 64.108C12.3698 64.108 11.8658 63.988 11.4257 63.748C10.9937 63.508 10.6297 63.176 10.3337 62.752C10.0377 62.328 9.81375 61.844 9.66175 61.3C9.50975 60.748 9.43375 60.164 9.43375 59.548C9.43375 58.932 9.50975 58.352 9.66175 57.808C9.81375 57.256 10.0377 56.768 10.3337 56.344C10.6297 55.92 10.9937 55.588 11.4257 55.348C11.8658 55.108 12.3698 54.988 12.9377 54.988C13.5057 54.988 14.0057 55.108 14.4377 55.348C14.8777 55.588 15.2457 55.92 15.5417 56.344C15.8377 56.768 16.0617 57.256 16.2137 57.808C16.3657 58.352 16.4417 58.932 16.4417 59.548C16.4417 60.164 16.3657 60.748 16.2137 61.3C16.0617 61.844 15.8377 62.328 15.5417 62.752C15.2457 63.176 14.8777 63.508 14.4377 63.748C14.0057 63.988 13.5057 64.108 12.9377 64.108ZM12.9377 62.848C13.5297 62.848 14.0217 62.572 14.4138 62.02C14.8057 61.46 15.0017 60.636 15.0017 59.548C15.0017 58.468 14.8057 57.652 14.4138 57.1C14.0217 56.548 13.5297 56.272 12.9377 56.272C12.3457 56.272 11.8537 56.548 11.4617 57.1C11.0697 57.652 10.8737 58.468 10.8737 59.548C10.8737 60.628 11.0657 61.448 11.4497 62.008C11.8417 62.568 12.3377 62.848 12.9377 62.848ZM20.9009 64.108C20.3329 64.108 19.8289 63.988 19.3889 63.748C18.9569 63.508 18.5929 63.176 18.2969 62.752C18.0009 62.328 17.7769 61.844 17.6249 61.3C17.4729 60.748 17.3969 60.164 17.3969 59.548C17.3969 58.932 17.4729 58.352 17.6249 57.808C17.7769 57.256 18.0009 56.768 18.2969 56.344C18.5929 55.92 18.9569 55.588 19.3889 55.348C19.8289 55.108 20.3329 54.988 20.9009 54.988C21.4689 54.988 21.9689 55.108 22.4009 55.348C22.8409 55.588 23.2089 55.92 23.5049 56.344C23.8009 56.768 24.0249 57.256 24.1769 57.808C24.3289 58.352 24.4049 58.932 24.4049 59.548C24.4049 60.164 24.3289 60.748 24.1769 61.3C24.0249 61.844 23.8009 62.328 23.5049 62.752C23.2089 63.176 22.8409 63.508 22.4009 63.748C21.9689 63.988 21.4689 64.108 20.9009 64.108ZM20.9009 62.848C21.4929 62.848 21.9849 62.572 22.3769 62.02C22.7689 61.46 22.9649 60.636 22.9649 59.548C22.9649 58.468 22.7689 57.652 22.3769 57.1C21.9849 56.548 21.4929 56.272 20.9009 56.272C20.3089 56.272 19.8169 56.548 19.4249 57.1C19.0329 57.652 18.8369 58.468 18.8369 59.548C18.8369 60.628 19.0289 61.448 19.4129 62.008C19.8049 62.568 20.3009 62.848 20.9009 62.848Z" fill="#A3AED0"/>
<path d="M5.02984 90.12C4.46184 90.12 3.98584 90.04 3.60184 89.88C3.22584 89.712 2.91784 89.504 2.67784 89.256C2.44584 89 2.26584 88.74 2.13784 88.476C2.01784 88.212 1.93384 87.976 1.88584 87.768C1.84584 87.56 1.82584 87.42 1.82584 87.348H3.13384C3.13384 87.348 3.14184 87.404 3.15784 87.516C3.18184 87.62 3.22184 87.752 3.27784 87.912C3.34184 88.072 3.44184 88.232 3.57784 88.392C3.71384 88.544 3.89784 88.676 4.12984 88.788C4.36184 88.892 4.65784 88.944 5.01784 88.944C5.44984 88.944 5.80584 88.852 6.08584 88.668C6.37384 88.484 6.58584 88.248 6.72184 87.96C6.86584 87.672 6.93784 87.368 6.93784 87.048C6.93784 86.728 6.86584 86.42 6.72184 86.124C6.58584 85.82 6.37784 85.576 6.09784 85.392C5.81784 85.2 5.47384 85.104 5.06584 85.104C4.74584 85.104 4.47784 85.156 4.26184 85.26C4.05384 85.364 3.88584 85.484 3.75784 85.62C3.63784 85.748 3.54984 85.864 3.49384 85.968C3.44584 86.072 3.42184 86.124 3.42184 86.124H2.04184L2.77384 81.12H7.69384V82.356H3.76984L3.43384 84.72H3.46984C3.54184 84.64 3.64984 84.544 3.79384 84.432C3.93784 84.312 4.12984 84.208 4.36984 84.12C4.61784 84.024 4.93384 83.976 5.31784 83.976C5.96584 83.976 6.50984 84.124 6.94984 84.42C7.39784 84.708 7.73384 85.088 7.95784 85.56C8.18984 86.024 8.30584 86.512 8.30584 87.024C8.30584 87.408 8.23784 87.784 8.10184 88.152C7.96584 88.52 7.76184 88.852 7.48984 89.148C7.22584 89.444 6.88584 89.68 6.46984 89.856C6.06184 90.032 5.58184 90.12 5.02984 90.12ZM12.9377 90.108C12.3698 90.108 11.8658 89.988 11.4257 89.748C10.9937 89.508 10.6297 89.176 10.3337 88.752C10.0377 88.328 9.81375 87.844 9.66175 87.3C9.50975 86.748 9.43375 86.164 9.43375 85.548C9.43375 84.932 9.50975 84.352 9.66175 83.808C9.81375 83.256 10.0377 82.768 10.3337 82.344C10.6297 81.92 10.9937 81.588 11.4257 81.348C11.8658 81.108 12.3698 80.988 12.9377 80.988C13.5057 80.988 14.0057 81.108 14.4377 81.348C14.8777 81.588 15.2457 81.92 15.5417 82.344C15.8377 82.768 16.0617 83.256 16.2137 83.808C16.3657 84.352 16.4417 84.932 16.4417 85.548C16.4417 86.164 16.3657 86.748 16.2137 87.3C16.0617 87.844 15.8377 88.328 15.5417 88.752C15.2457 89.176 14.8777 89.508 14.4377 89.748C14.0057 89.988 13.5057 90.108 12.9377 90.108ZM12.9377 88.848C13.5297 88.848 14.0217 88.572 14.4138 88.02C14.8057 87.46 15.0017 86.636 15.0017 85.548C15.0017 84.468 14.8057 83.652 14.4138 83.1C14.0217 82.548 13.5297 82.272 12.9377 82.272C12.3457 82.272 11.8537 82.548 11.4617 83.1C11.0697 83.652 10.8737 84.468 10.8737 85.548C10.8737 86.628 11.0657 87.448 11.4497 88.008C11.8417 88.568 12.3377 88.848 12.9377 88.848ZM20.9009 90.108C20.3329 90.108 19.8289 89.988 19.3889 89.748C18.9569 89.508 18.5929 89.176 18.2969 88.752C18.0009 88.328 17.7769 87.844 17.6249 87.3C17.4729 86.748 17.3969 86.164 17.3969 85.548C17.3969 84.932 17.4729 84.352 17.6249 83.808C17.7769 83.256 18.0009 82.768 18.2969 82.344C18.5929 81.92 18.9569 81.588 19.3889 81.348C19.8289 81.108 20.3329 80.988 20.9009 80.988C21.4689 80.988 21.9689 81.108 22.4009 81.348C22.8409 81.588 23.2089 81.92 23.5049 82.344C23.8009 82.768 24.0249 83.256 24.1769 83.808C24.3289 84.352 24.4049 84.932 24.4049 85.548C24.4049 86.164 24.3289 86.748 24.1769 87.3C24.0249 87.844 23.8009 88.328 23.5049 88.752C23.2089 89.176 22.8409 89.508 22.4009 89.748C21.9689 89.988 21.4689 90.108 20.9009 90.108ZM20.9009 88.848C21.4929 88.848 21.9849 88.572 22.3769 88.02C22.7689 87.46 22.9649 86.636 22.9649 85.548C22.9649 84.468 22.7689 83.652 22.3769 83.1C21.9849 82.548 21.4929 82.272 20.9009 82.272C20.3089 82.272 19.8169 82.548 19.4249 83.1C19.0329 83.652 18.8369 84.468 18.8369 85.548C18.8369 86.628 19.0289 87.448 19.4129 88.008C19.8049 88.568 20.3009 88.848 20.9009 88.848Z" fill="#A3AED0"/>
<path d="M5.45106 116V114.02L1.13106 114.008V112.76L5.13906 107.12H6.85506V112.82H8.34306V114.02H6.85506V116H5.45106ZM2.54706 112.82H5.45106V108.704L2.54706 112.82ZM12.9377 116.108C12.3698 116.108 11.8658 115.988 11.4257 115.748C10.9937 115.508 10.6297 115.176 10.3337 114.752C10.0377 114.328 9.81375 113.844 9.66175 113.3C9.50975 112.748 9.43375 112.164 9.43375 111.548C9.43375 110.932 9.50975 110.352 9.66175 109.808C9.81375 109.256 10.0377 108.768 10.3337 108.344C10.6297 107.92 10.9937 107.588 11.4257 107.348C11.8658 107.108 12.3698 106.988 12.9377 106.988C13.5057 106.988 14.0057 107.108 14.4377 107.348C14.8777 107.588 15.2457 107.92 15.5417 108.344C15.8377 108.768 16.0617 109.256 16.2137 109.808C16.3657 110.352 16.4417 110.932 16.4417 111.548C16.4417 112.164 16.3657 112.748 16.2137 113.3C16.0617 113.844 15.8377 114.328 15.5417 114.752C15.2457 115.176 14.8777 115.508 14.4377 115.748C14.0057 115.988 13.5057 116.108 12.9377 116.108ZM12.9377 114.848C13.5297 114.848 14.0217 114.572 14.4138 114.02C14.8057 113.46 15.0017 112.636 15.0017 111.548C15.0017 110.468 14.8057 109.652 14.4138 109.1C14.0217 108.548 13.5297 108.272 12.9377 108.272C12.3457 108.272 11.8537 108.548 11.4617 109.1C11.0697 109.652 10.8737 110.468 10.8737 111.548C10.8737 112.628 11.0657 113.448 11.4497 114.008C11.8417 114.568 12.3377 114.848 12.9377 114.848ZM20.9009 116.108C20.3329 116.108 19.8289 115.988 19.3889 115.748C18.9569 115.508 18.5929 115.176 18.2969 114.752C18.0009 114.328 17.7769 113.844 17.6249 113.3C17.4729 112.748 17.3969 112.164 17.3969 111.548C17.3969 110.932 17.4729 110.352 17.6249 109.808C17.7769 109.256 18.0009 108.768 18.2969 108.344C18.5929 107.92 18.9569 107.588 19.3889 107.348C19.8289 107.108 20.3329 106.988 20.9009 106.988C21.4689 106.988 21.9689 107.108 22.4009 107.348C22.8409 107.588 23.2089 107.92 23.5049 108.344C23.8009 108.768 24.0249 109.256 24.1769 109.808C24.3289 110.352 24.4049 110.932 24.4049 111.548C24.4049 112.164 24.3289 112.748 24.1769 113.3C24.0249 113.844 23.8009 114.328 23.5049 114.752C23.2089 115.176 22.8409 115.508 22.4009 115.748C21.9689 115.988 21.4689 116.108 20.9009 116.108ZM20.9009 114.848C21.4929 114.848 21.9849 114.572 22.3769 114.02C22.7689 113.46 22.9649 112.636 22.9649 111.548C22.9649 110.468 22.7689 109.652 22.3769 109.1C21.9849 108.548 21.4929 108.272 20.9009 108.272C20.3089 108.272 19.8169 108.548 19.4249 109.1C19.0329 109.652 18.8369 110.468 18.8369 111.548C18.8369 112.628 19.0289 113.448 19.4129 114.008C19.8049 114.568 20.3009 114.848 20.9009 114.848Z" fill="#A3AED0"/>
<path d="M5.15875 142.12C4.49475 142.12 3.92675 141.992 3.45475 141.736C2.98275 141.48 2.62275 141.14 2.37475 140.716C2.12675 140.292 2.00275 139.824 2.00275 139.312H3.32275C3.32275 139.808 3.49475 140.204 3.83875 140.5C4.18275 140.796 4.62275 140.944 5.15875 140.944C5.47875 140.944 5.77075 140.884 6.03475 140.764C6.30675 140.644 6.52275 140.468 6.68275 140.236C6.84275 140.004 6.92275 139.724 6.92275 139.396C6.92275 138.972 6.77875 138.632 6.49075 138.376C6.20275 138.12 5.81075 137.992 5.31475 137.992H4.11475V136.9H5.31475C5.73075 136.9 6.07875 136.78 6.35875 136.54C6.64675 136.292 6.79075 135.972 6.79075 135.58C6.79075 135.292 6.71475 135.044 6.56275 134.836C6.41875 134.62 6.22275 134.456 5.97475 134.344C5.72675 134.224 5.45475 134.164 5.15875 134.164C4.67875 134.164 4.27475 134.32 3.94675 134.632C3.62675 134.936 3.46675 135.332 3.46675 135.82H2.17075C2.17075 135.316 2.29075 134.852 2.53075 134.428C2.77075 133.996 3.11475 133.652 3.56275 133.396C4.01875 133.132 4.55875 133 5.18275 133C5.68675 133 6.16275 133.1 6.61075 133.3C7.06675 133.492 7.43475 133.772 7.71475 134.14C8.00275 134.508 8.14675 134.948 8.14675 135.46C8.14675 135.956 8.01475 136.368 7.75075 136.696C7.49475 137.024 7.19075 137.256 6.83875 137.392V137.452C7.25475 137.596 7.60275 137.836 7.88275 138.172C8.17075 138.508 8.31475 138.936 8.31475 139.456C8.31475 140.016 8.16675 140.496 7.87075 140.896C7.58275 141.288 7.19875 141.592 6.71875 141.808C6.23875 142.016 5.71875 142.12 5.15875 142.12ZM12.9377 142.108C12.3698 142.108 11.8658 141.988 11.4257 141.748C10.9937 141.508 10.6297 141.176 10.3337 140.752C10.0377 140.328 9.81375 139.844 9.66175 139.3C9.50975 138.748 9.43375 138.164 9.43375 137.548C9.43375 136.932 9.50975 136.352 9.66175 135.808C9.81375 135.256 10.0377 134.768 10.3337 134.344C10.6297 133.92 10.9937 133.588 11.4257 133.348C11.8658 133.108 12.3698 132.988 12.9377 132.988C13.5057 132.988 14.0057 133.108 14.4377 133.348C14.8777 133.588 15.2457 133.92 15.5417 134.344C15.8377 134.768 16.0617 135.256 16.2137 135.808C16.3657 136.352 16.4417 136.932 16.4417 137.548C16.4417 138.164 16.3657 138.748 16.2137 139.3C16.0617 139.844 15.8377 140.328 15.5417 140.752C15.2457 141.176 14.8777 141.508 14.4377 141.748C14.0057 141.988 13.5057 142.108 12.9377 142.108ZM12.9377 140.848C13.5297 140.848 14.0217 140.572 14.4138 140.02C14.8057 139.46 15.0017 138.636 15.0017 137.548C15.0017 136.468 14.8057 135.652 14.4138 135.1C14.0217 134.548 13.5297 134.272 12.9377 134.272C12.3457 134.272 11.8537 134.548 11.4617 135.1C11.0697 135.652 10.8737 136.468 10.8737 137.548C10.8737 138.628 11.0657 139.448 11.4497 140.008C11.8417 140.568 12.3377 140.848 12.9377 140.848ZM20.9009 142.108C20.3329 142.108 19.8289 141.988 19.3889 141.748C18.9569 141.508 18.5929 141.176 18.2969 140.752C18.0009 140.328 17.7769 139.844 17.6249 139.3C17.4729 138.748 17.3969 138.164 17.3969 137.548C17.3969 136.932 17.4729 136.352 17.6249 135.808C17.7769 135.256 18.0009 134.768 18.2969 134.344C18.5929 133.92 18.9569 133.588 19.3889 133.348C19.8289 133.108 20.3329 132.988 20.9009 132.988C21.4689 132.988 21.9689 133.108 22.4009 133.348C22.8409 133.588 23.2089 133.92 23.5049 134.344C23.8009 134.768 24.0249 135.256 24.1769 135.808C24.3289 136.352 24.4049 136.932 24.4049 137.548C24.4049 138.164 24.3289 138.748 24.1769 139.3C24.0249 139.844 23.8009 140.328 23.5049 140.752C23.2089 141.176 22.8409 141.508 22.4009 141.748C21.9689 141.988 21.4689 142.108 20.9009 142.108ZM20.9009 140.848C21.4929 140.848 21.9849 140.572 22.3769 140.02C22.7689 139.46 22.9649 138.636 22.9649 137.548C22.9649 136.468 22.7689 135.652 22.3769 135.1C21.9849 134.548 21.4929 134.272 20.9009 134.272C20.3089 134.272 19.8169 134.548 19.4249 135.1C19.0329 135.652 18.8369 136.468 18.8369 137.548C18.8369 138.628 19.0289 139.448 19.4129 140.008C19.8049 140.568 20.3009 140.848 20.9009 140.848Z" fill="#A3AED0"/>
<path d="M2.08647 168V167.028L3.89847 165.384C4.47447 164.872 4.97447 164.428 5.39847 164.052C5.82247 163.668 6.15047 163.304 6.38247 162.96C6.62247 162.608 6.74247 162.224 6.74247 161.808C6.74247 161.48 6.66247 161.2 6.50247 160.968C6.34247 160.736 6.13847 160.56 5.89047 160.44C5.64247 160.312 5.38247 160.248 5.11047 160.248C4.78247 160.248 4.51047 160.304 4.29447 160.416C4.08647 160.52 3.91847 160.656 3.79047 160.824C3.67047 160.984 3.58247 161.152 3.52647 161.328C3.47047 161.496 3.43447 161.648 3.41847 161.784C3.40247 161.912 3.39447 161.992 3.39447 162.024H2.05047C2.05047 161.936 2.06647 161.776 2.09847 161.544C2.13847 161.312 2.21447 161.056 2.32647 160.776C2.44647 160.488 2.61847 160.208 2.84247 159.936C3.07447 159.664 3.37447 159.44 3.74247 159.264C4.11847 159.088 4.58647 159 5.14647 159C5.68247 159 6.17847 159.108 6.63447 159.324C7.09047 159.54 7.45447 159.856 7.72647 160.272C8.00647 160.68 8.14647 161.176 8.14647 161.76C8.14647 162.296 8.01047 162.784 7.73847 163.224C7.47447 163.656 7.11447 164.084 6.65847 164.508C6.21047 164.924 5.71047 165.372 5.15847 165.852L4.16247 166.752H8.31447V168H2.08647ZM12.9377 168.108C12.3698 168.108 11.8658 167.988 11.4257 167.748C10.9937 167.508 10.6297 167.176 10.3337 166.752C10.0377 166.328 9.81375 165.844 9.66175 165.3C9.50975 164.748 9.43375 164.164 9.43375 163.548C9.43375 162.932 9.50975 162.352 9.66175 161.808C9.81375 161.256 10.0377 160.768 10.3337 160.344C10.6297 159.92 10.9937 159.588 11.4257 159.348C11.8658 159.108 12.3698 158.988 12.9377 158.988C13.5057 158.988 14.0057 159.108 14.4377 159.348C14.8777 159.588 15.2457 159.92 15.5417 160.344C15.8377 160.768 16.0617 161.256 16.2137 161.808C16.3657 162.352 16.4417 162.932 16.4417 163.548C16.4417 164.164 16.3657 164.748 16.2137 165.3C16.0617 165.844 15.8377 166.328 15.5417 166.752C15.2457 167.176 14.8777 167.508 14.4377 167.748C14.0057 167.988 13.5057 168.108 12.9377 168.108ZM12.9377 166.848C13.5297 166.848 14.0217 166.572 14.4138 166.02C14.8057 165.46 15.0017 164.636 15.0017 163.548C15.0017 162.468 14.8057 161.652 14.4138 161.1C14.0217 160.548 13.5297 160.272 12.9377 160.272C12.3457 160.272 11.8537 160.548 11.4617 161.1C11.0697 161.652 10.8737 162.468 10.8737 163.548C10.8737 164.628 11.0657 165.448 11.4497 166.008C11.8417 166.568 12.3377 166.848 12.9377 166.848ZM20.9009 168.108C20.3329 168.108 19.8289 167.988 19.3889 167.748C18.9569 167.508 18.5929 167.176 18.2969 166.752C18.0009 166.328 17.7769 165.844 17.6249 165.3C17.4729 164.748 17.3969 164.164 17.3969 163.548C17.3969 162.932 17.4729 162.352 17.6249 161.808C17.7769 161.256 18.0009 160.768 18.2969 160.344C18.5929 159.92 18.9569 159.588 19.3889 159.348C19.8289 159.108 20.3329 158.988 20.9009 158.988C21.4689 158.988 21.9689 159.108 22.4009 159.348C22.8409 159.588 23.2089 159.92 23.5049 160.344C23.8009 160.768 24.0249 161.256 24.1769 161.808C24.3289 162.352 24.4049 162.932 24.4049 163.548C24.4049 164.164 24.3289 164.748 24.1769 165.3C24.0249 165.844 23.8009 166.328 23.5049 166.752C23.2089 167.176 22.8409 167.508 22.4009 167.748C21.9689 167.988 21.4689 168.108 20.9009 168.108ZM20.9009 166.848C21.4929 166.848 21.9849 166.572 22.3769 166.02C22.7689 165.46 22.9649 164.636 22.9649 163.548C22.9649 162.468 22.7689 161.652 22.3769 161.1C21.9849 160.548 21.4929 160.272 20.9009 160.272C20.3089 160.272 19.8169 160.548 19.4249 161.1C19.0329 161.652 18.8369 162.468 18.8369 163.548C18.8369 164.628 19.0289 165.448 19.4129 166.008C19.8049 166.568 20.3009 166.848 20.9009 166.848Z" fill="#A3AED0"/>
<path d="M7.82106 185.12V194H6.44106V187.292L4.76106 187.304V186.476L5.04906 186.392C5.49706 186.256 5.85706 186.104 6.12906 185.936C6.40906 185.768 6.67306 185.536 6.92106 185.24L7.02906 185.12H7.82106ZM12.9377 194.108C12.3698 194.108 11.8658 193.988 11.4257 193.748C10.9937 193.508 10.6297 193.176 10.3337 192.752C10.0377 192.328 9.81375 191.844 9.66175 191.3C9.50975 190.748 9.43375 190.164 9.43375 189.548C9.43375 188.932 9.50975 188.352 9.66175 187.808C9.81375 187.256 10.0377 186.768 10.3337 186.344C10.6297 185.92 10.9937 185.588 11.4257 185.348C11.8658 185.108 12.3698 184.988 12.9377 184.988C13.5057 184.988 14.0057 185.108 14.4377 185.348C14.8777 185.588 15.2457 185.92 15.5417 186.344C15.8377 186.768 16.0617 187.256 16.2137 187.808C16.3657 188.352 16.4417 188.932 16.4417 189.548C16.4417 190.164 16.3657 190.748 16.2137 191.3C16.0617 191.844 15.8377 192.328 15.5417 192.752C15.2457 193.176 14.8777 193.508 14.4377 193.748C14.0057 193.988 13.5057 194.108 12.9377 194.108ZM12.9377 192.848C13.5297 192.848 14.0217 192.572 14.4138 192.02C14.8057 191.46 15.0017 190.636 15.0017 189.548C15.0017 188.468 14.8057 187.652 14.4138 187.1C14.0217 186.548 13.5297 186.272 12.9377 186.272C12.3457 186.272 11.8537 186.548 11.4617 187.1C11.0697 187.652 10.8737 188.468 10.8737 189.548C10.8737 190.628 11.0657 191.448 11.4497 192.008C11.8417 192.568 12.3377 192.848 12.9377 192.848ZM20.9009 194.108C20.3329 194.108 19.8289 193.988 19.3889 193.748C18.9569 193.508 18.5929 193.176 18.2969 192.752C18.0009 192.328 17.7769 191.844 17.6249 191.3C17.4729 190.748 17.3969 190.164 17.3969 189.548C17.3969 188.932 17.4729 188.352 17.6249 187.808C17.7769 187.256 18.0009 186.768 18.2969 186.344C18.5929 185.92 18.9569 185.588 19.3889 185.348C19.8289 185.108 20.3329 184.988 20.9009 184.988C21.4689 184.988 21.9689 185.108 22.4009 185.348C22.8409 185.588 23.2089 185.92 23.5049 186.344C23.8009 186.768 24.0249 187.256 24.1769 187.808C24.3289 188.352 24.4049 188.932 24.4049 189.548C24.4049 190.164 24.3289 190.748 24.1769 191.3C24.0249 191.844 23.8009 192.328 23.5049 192.752C23.2089 193.176 22.8409 193.508 22.4009 193.748C21.9689 193.988 21.4689 194.108 20.9009 194.108ZM20.9009 192.848C21.4929 192.848 21.9849 192.572 22.3769 192.02C22.7689 191.46 22.9649 190.636 22.9649 189.548C22.9649 188.468 22.7689 187.652 22.3769 187.1C21.9849 186.548 21.4929 186.272 20.9009 186.272C20.3089 186.272 19.8169 186.548 19.4249 187.1C19.0329 187.652 18.8369 188.468 18.8369 189.548C18.8369 190.628 19.0289 191.448 19.4129 192.008C19.8049 192.568 20.3009 192.848 20.9009 192.848Z" fill="#A3AED0"/>
<path d="M20.9009 220.108C20.3329 220.108 19.8289 219.988 19.3889 219.748C18.9569 219.508 18.5929 219.176 18.2969 218.752C18.0009 218.328 17.7769 217.844 17.6249 217.3C17.4729 216.748 17.3969 216.164 17.3969 215.548C17.3969 214.932 17.4729 214.352 17.6249 213.808C17.7769 213.256 18.0009 212.768 18.2969 212.344C18.5929 211.92 18.9569 211.588 19.3889 211.348C19.8289 211.108 20.3329 210.988 20.9009 210.988C21.4689 210.988 21.9689 211.108 22.4009 211.348C22.8409 211.588 23.2089 211.92 23.5049 212.344C23.8009 212.768 24.0249 213.256 24.1769 213.808C24.3289 214.352 24.4049 214.932 24.4049 215.548C24.4049 216.164 24.3289 216.748 24.1769 217.3C24.0249 217.844 23.8009 218.328 23.5049 218.752C23.2089 219.176 22.8409 219.508 22.4009 219.748C21.9689 219.988 21.4689 220.108 20.9009 220.108ZM20.9009 218.848C21.4929 218.848 21.9849 218.572 22.3769 218.02C22.7689 217.46 22.9649 216.636 22.9649 215.548C22.9649 214.468 22.7689 213.652 22.3769 213.1C21.9849 212.548 21.4929 212.272 20.9009 212.272C20.3089 212.272 19.8169 212.548 19.4249 213.1C19.0329 213.652 18.8369 214.468 18.8369 215.548C18.8369 216.628 19.0289 217.448 19.4129 218.008C19.8049 218.568 20.3009 218.848 20.9009 218.848Z" fill="#A3AED0"/>
</svg>
