<svg width="18" height="18" viewBox="0 0 18 18" fill="none" xmlns="http://www.w3.org/2000/svg">
<path d="M15.7785 3.33912L16.4385 3.99912L17.499 2.93862L15.1087 0.547622L14.0475 1.60887L14.7165 2.27712L13.9305 3.15012C12.7138 2.23485 11.2662 1.67672 9.74998 1.53837V0.00012207H8.24998V1.53837C6.73378 1.67672 5.28614 2.23485 4.06948 3.15012L3.28348 2.27712L3.99898 1.56162L2.93848 0.501122L0.500977 2.93862L1.56148 3.99912L2.22148 3.33912L2.95498 4.15437C1.86222 5.33096 1.13658 6.80087 0.867036 8.38385C0.597494 9.96682 0.795771 11.5941 1.43755 13.066C2.07933 14.5379 3.13672 15.7906 4.48004 16.6703C5.82336 17.5501 7.39421 18.0187 8.99998 18.0187C10.6057 18.0187 12.1766 17.5501 13.5199 16.6703C14.8632 15.7906 15.9206 14.5379 16.5624 13.066C17.2042 11.5941 17.4025 9.96682 17.1329 8.38385C16.8634 6.80087 16.1377 5.33096 15.045 4.15437L15.7785 3.33912ZM8.99998 11.2501C8.67006 11.2512 8.34903 11.1432 8.08688 10.9429C7.82474 10.7426 7.63619 10.4612 7.55061 10.1426C7.46503 9.82395 7.48721 9.48596 7.6137 9.18125C7.7402 8.87654 7.9639 8.62221 8.24998 8.45787V4.50012H9.74998V8.45787C10.0361 8.62221 10.2598 8.87654 10.3863 9.18125C10.5127 9.48596 10.5349 9.82395 10.4493 10.1426C10.3638 10.4612 10.1752 10.7426 9.91307 10.9429C9.65092 11.1432 9.3299 11.2512 8.99998 11.2501V11.2501Z" fill="#5177FF"/>
</svg>
