<svg width="70" height="70" viewBox="0 0 70 70" fill="none" xmlns="http://www.w3.org/2000/svg">
<circle cx="35" cy="35" r="35" fill="#4CCE82"/>
<g clip-path="url(#clip0_2407_1031)">
<path d="M41.5001 46.0001H41.4671C40.9561 45.9921 40.4701 45.7751 40.1221 45.4001L37.9541 43.1381L39.4001 41.7561L41.5061 43.9561L45.5871 39.8741L47.0001 41.2851L42.8391 45.4471C42.4851 45.8031 42.0021 46.0031 41.5001 46.0001Z" fill="white"/>
<path d="M35.0168 23.0007C28.3998 22.9807 23.0198 28.3367 22.9998 34.9637C22.9798 41.5907 28.3268 46.9807 34.9428 47.0007C36.0398 47.0037 37.1328 46.8567 38.1898 46.5617C36.2218 43.9037 36.7788 40.1507 39.4328 38.1797C41.5488 36.6087 44.4418 36.6087 46.5578 38.1797C48.3288 31.8127 44.6118 25.2137 38.2558 23.4397C37.2018 23.1457 36.1118 22.9977 35.0168 23.0007ZM36.0168 34.4147L32.7238 37.7077L31.3098 36.2937L34.0168 33.5867V29.0007H36.0168V34.4147Z" fill="white"/>
</g>
<defs>
<clipPath id="clip0_2407_1031">
<rect width="24" height="24" fill="white" transform="translate(23 23)"/>
</clipPath>
</defs>
</svg>
