<svg width="70" height="70" viewBox="0 0 70 70" fill="none" xmlns="http://www.w3.org/2000/svg">
<circle cx="35" cy="35" r="35" fill="#FC9A54"/>
<g clip-path="url(#clip0_2407_1014)">
<path d="M37.4136 35.9998L44.1586 42.7448C45.7699 40.8428 46.7458 38.4843 46.9496 35.9998H37.4136Z" fill="white"/>
<path d="M34.2927 35.707L33.9997 35.414V23.05C32.1155 23.2044 30.2944 23.8018 28.6849 24.7935C27.0754 25.7852 25.7229 27.1432 24.7378 28.7567C23.7526 30.3703 23.1627 32.1937 23.0159 34.0785C22.8692 35.9634 23.1699 37.8562 23.8934 39.6027C24.617 41.3493 25.743 42.9002 27.1796 44.129C28.6163 45.3579 30.323 46.2299 32.1606 46.6741C33.9982 47.1182 35.9147 47.1219 37.754 46.6848C39.5933 46.2478 41.3033 45.3823 42.7447 44.159L34.2927 35.707Z" fill="white"/>
<path d="M36.0002 34H46.9502C46.7142 31.1749 45.4847 28.5248 43.4801 26.5202C41.4755 24.5155 38.8254 23.2861 36.0002 23.05V34Z" fill="white"/>
</g>
<defs>
<clipPath id="clip0_2407_1014">
<rect width="24" height="24" fill="white" transform="translate(23 23)"/>
</clipPath>
</defs>
</svg>
