<svg width="70" height="70" viewBox="0 0 70 70" fill="none" xmlns="http://www.w3.org/2000/svg">
<circle cx="35" cy="35" r="35" fill="#5177FF"/>
<g clip-path="url(#clip0_2405_4908)">
<path d="M28.521 42.8996H33.843L37.362 46.4146C37.5511 46.6048 37.776 46.7557 38.0236 46.8586C38.2712 46.9616 38.5368 47.0146 38.805 47.0146C38.9815 47.0143 39.1572 46.9918 39.328 46.9476C39.6732 46.8605 39.9894 46.6839 40.2447 46.4356C40.4999 46.1874 40.6853 45.8763 40.782 45.5336L46.989 24.4246L28.521 42.8996Z" fill="white"/>
<path d="M27.087 41.5001L45.572 23.0121L24.478 29.2331C24.1346 29.3308 23.8226 29.5166 23.5731 29.772C23.3236 30.0275 23.1452 30.3437 23.0557 30.6894C22.9661 31.0351 22.9685 31.3982 23.0626 31.7426C23.1567 32.0871 23.3392 32.401 23.592 32.6531L27.087 36.1451V41.5001Z" fill="white"/>
</g>
<defs>
<clipPath id="clip0_2405_4908">
<rect width="24" height="24" fill="white" transform="translate(23 23)"/>
</clipPath>
</defs>
</svg>
