<svg width="24" height="24" viewBox="0 0 24 24" fill="none" xmlns="http://www.w3.org/2000/svg">
<g clip-path="url(#clip0_2406_479)">
<path d="M7 14C4.79 14 3 12.21 3 10C3 7.79 4.79 6 7 6C9.21 6 11 7.79 11 10C11 12.21 9.21 14 7 14ZM14 24H0V19C0 17.35 1.35 16 3 16H11C12.65 16 14 17.35 14 19V24ZM21 0H8C6.35 0 5 1.35 5 3V4.35C5.63 4.13 6.3 4 7 4C9.74 4 12.05 5.84 12.77 8.35L15 10.58L18.59 6.99H16V4.99H20C21.1 4.99 22 5.89 22 6.99V10.99H20V8.4L15 13.4L12.85 11.25C12.62 12.31 12.11 13.26 11.41 14.03C13.64 14.21 15.46 15.84 15.9 17.99H24V3C24 1.35 22.65 0 21 0Z" fill="#A3AED0"/>
</g>
<defs>
<clipPath id="clip0_2406_479">
<rect width="24" height="24" fill="white"/>
</clipPath>
</defs>
</svg>
