<svg width="24" height="24" viewBox="0 0 24 24" fill="none" xmlns="http://www.w3.org/2000/svg">
<g clip-path="url(#clip0_2485_10275)">
<path d="M3 6C3 2.691 5.691 0 9 0C12.309 0 15 2.691 15 6C15 9.309 12.309 12 9 12C5.691 12 3 9.309 3 6ZM21.724 18.567L23.565 19.627L22.567 21.36L20.727 20.3C20.021 21.096 19.081 21.678 18.001 21.898V23.999H16.001V21.898C14.921 21.678 13.98 21.096 13.275 20.3L11.435 21.36L10.437 19.627L12.278 18.567C12.113 18.071 12.002 17.551 12.002 17C12.002 16.449 12.113 15.929 12.278 15.433L10.437 14.373L11.435 12.64L13.275 13.7C13.981 12.904 14.921 12.322 16.001 12.102V10.001H18.001V12.102C19.081 12.322 20.022 12.904 20.727 13.7L22.567 12.64L23.565 14.373L21.724 15.433C21.889 15.929 22 16.449 22 17C22 17.551 21.889 18.071 21.724 18.567ZM18.5 17C18.5 16.173 17.827 15.5 17 15.5C16.173 15.5 15.5 16.173 15.5 17C15.5 17.827 16.173 18.5 17 18.5C17.827 18.5 18.5 17.827 18.5 17ZM8 17C8 15.946 8.19 14.94 8.523 14H5C2.243 14 0 16.243 0 19V24H11.349C9.308 22.35 8 19.829 8 17Z" fill="#A3AED0"/>
</g>
<defs>
<clipPath id="clip0_2485_10275">
<rect width="24" height="24" fill="white"/>
</clipPath>
</defs>
</svg>
