<svg width="630" height="232" viewBox="0 0 630 232" fill="none" xmlns="http://www.w3.org/2000/svg">
<path d="M11.6681 220.12V229H10.2881V222.292L8.60809 222.304V221.476L8.89609 221.392C9.34409 221.256 9.70409 221.104 9.97609 220.936C10.2561 220.768 10.5201 220.536 10.7681 220.24L10.8761 220.12H11.6681ZM16.7848 229.108C16.2168 229.108 15.7128 228.988 15.2728 228.748C14.8408 228.508 14.4768 228.176 14.1808 227.752C13.8848 227.328 13.6608 226.844 13.5088 226.3C13.3568 225.748 13.2808 225.164 13.2808 224.548C13.2808 223.932 13.3568 223.352 13.5088 222.808C13.6608 222.256 13.8848 221.768 14.1808 221.344C14.4768 220.92 14.8408 220.588 15.2728 220.348C15.7128 220.108 16.2168 219.988 16.7848 219.988C17.3528 219.988 17.8528 220.108 18.2848 220.348C18.7248 220.588 19.0928 220.92 19.3888 221.344C19.6848 221.768 19.9088 222.256 20.0608 222.808C20.2128 223.352 20.2888 223.932 20.2888 224.548C20.2888 225.164 20.2128 225.748 20.0608 226.3C19.9088 226.844 19.6848 227.328 19.3888 227.752C19.0928 228.176 18.7248 228.508 18.2848 228.748C17.8528 228.988 17.3528 229.108 16.7848 229.108ZM16.7848 227.848C17.3768 227.848 17.8688 227.572 18.2608 227.02C18.6528 226.46 18.8488 225.636 18.8488 224.548C18.8488 223.468 18.6528 222.652 18.2608 222.1C17.8688 221.548 17.3768 221.272 16.7848 221.272C16.1928 221.272 15.7008 221.548 15.3088 222.1C14.9168 222.652 14.7208 223.468 14.7208 224.548C14.7208 225.628 14.9128 226.448 15.2968 227.008C15.6888 227.568 16.1848 227.848 16.7848 227.848Z" fill="#A3AED0"/>
<path d="M70.8673 220.12V229H69.4873V222.292L67.8073 222.304V221.476L68.0953 221.392C68.5433 221.256 68.9033 221.104 69.1753 220.936C69.4553 220.768 69.7193 220.536 69.9673 220.24L70.0753 220.12H70.8673ZM75.432 220.12V229H74.052V222.292L72.372 222.304V221.476L72.66 221.392C73.108 221.256 73.468 221.104 73.74 220.936C74.02 220.768 74.284 220.536 74.532 220.24L74.64 220.12H75.432Z" fill="#A3AED0"/>
<path d="M126.838 220.12V229H125.458V222.292L123.778 222.304V221.476L124.066 221.392C124.514 221.256 124.874 221.104 125.146 220.936C125.426 220.768 125.69 220.536 125.938 220.24L126.046 220.12H126.838ZM128.727 229V228.028L130.539 226.384C131.115 225.872 131.615 225.428 132.039 225.052C132.463 224.668 132.791 224.304 133.023 223.96C133.263 223.608 133.383 223.224 133.383 222.808C133.383 222.48 133.303 222.2 133.143 221.968C132.983 221.736 132.779 221.56 132.531 221.44C132.283 221.312 132.023 221.248 131.751 221.248C131.423 221.248 131.151 221.304 130.935 221.416C130.727 221.52 130.559 221.656 130.431 221.824C130.311 221.984 130.223 222.152 130.167 222.328C130.111 222.496 130.075 222.648 130.059 222.784C130.043 222.912 130.035 222.992 130.035 223.024H128.691C128.691 222.936 128.707 222.776 128.739 222.544C128.779 222.312 128.855 222.056 128.967 221.776C129.087 221.488 129.259 221.208 129.483 220.936C129.715 220.664 130.015 220.44 130.383 220.264C130.759 220.088 131.227 220 131.787 220C132.323 220 132.819 220.108 133.275 220.324C133.731 220.54 134.095 220.856 134.367 221.272C134.647 221.68 134.787 222.176 134.787 222.76C134.787 223.296 134.651 223.784 134.379 224.224C134.115 224.656 133.755 225.084 133.299 225.508C132.851 225.924 132.351 226.372 131.799 226.852L130.803 227.752H134.955V229H128.727Z" fill="#A3AED0"/>
<path d="M185.768 220.12V229H184.388V222.292L182.708 222.304V221.476L182.996 221.392C183.444 221.256 183.804 221.104 184.076 220.936C184.356 220.768 184.62 220.536 184.868 220.24L184.976 220.12H185.768ZM190.74 229.12C190.076 229.12 189.508 228.992 189.036 228.736C188.564 228.48 188.204 228.14 187.956 227.716C187.708 227.292 187.584 226.824 187.584 226.312H188.904C188.904 226.808 189.076 227.204 189.42 227.5C189.764 227.796 190.204 227.944 190.74 227.944C191.06 227.944 191.352 227.884 191.616 227.764C191.888 227.644 192.104 227.468 192.264 227.236C192.424 227.004 192.504 226.724 192.504 226.396C192.504 225.972 192.36 225.632 192.072 225.376C191.784 225.12 191.392 224.992 190.896 224.992H189.696V223.9H190.896C191.312 223.9 191.66 223.78 191.94 223.54C192.228 223.292 192.372 222.972 192.372 222.58C192.372 222.292 192.296 222.044 192.144 221.836C192 221.62 191.804 221.456 191.556 221.344C191.308 221.224 191.036 221.164 190.74 221.164C190.26 221.164 189.856 221.32 189.528 221.632C189.208 221.936 189.048 222.332 189.048 222.82H187.752C187.752 222.316 187.872 221.852 188.112 221.428C188.352 220.996 188.696 220.652 189.144 220.396C189.6 220.132 190.14 220 190.764 220C191.268 220 191.744 220.1 192.192 220.3C192.648 220.492 193.016 220.772 193.296 221.14C193.584 221.508 193.728 221.948 193.728 222.46C193.728 222.956 193.596 223.368 193.332 223.696C193.076 224.024 192.772 224.256 192.42 224.392V224.452C192.836 224.596 193.184 224.836 193.464 225.172C193.752 225.508 193.896 225.936 193.896 226.456C193.896 227.016 193.748 227.496 193.452 227.896C193.164 228.288 192.78 228.592 192.3 228.808C191.82 229.016 191.3 229.12 190.74 229.12Z" fill="#A3AED0"/>
<path d="M244.992 220.12V229H243.612V222.292L241.932 222.304V221.476L242.22 221.392C242.668 221.256 243.028 221.104 243.3 220.936C243.58 220.768 243.844 220.536 244.092 220.24L244.2 220.12H244.992ZM250.937 229V227.02L246.617 227.008V225.76L250.625 220.12H252.341V225.82H253.829V227.02H252.341V229H250.937ZM248.033 225.82H250.937V221.704L248.033 225.82Z" fill="#A3AED0"/>
<path d="M304.768 220.12V229H303.388V222.292L301.708 222.304V221.476L301.996 221.392C302.444 221.256 302.804 221.104 303.076 220.936C303.356 220.768 303.62 220.536 303.868 220.24L303.976 220.12H304.768ZM309.74 229.12C309.172 229.12 308.696 229.04 308.312 228.88C307.936 228.712 307.628 228.504 307.388 228.256C307.156 228 306.976 227.74 306.848 227.476C306.728 227.212 306.644 226.976 306.596 226.768C306.556 226.56 306.536 226.42 306.536 226.348H307.844C307.844 226.348 307.852 226.404 307.868 226.516C307.892 226.62 307.932 226.752 307.988 226.912C308.052 227.072 308.152 227.232 308.288 227.392C308.424 227.544 308.608 227.676 308.84 227.788C309.072 227.892 309.368 227.944 309.728 227.944C310.16 227.944 310.516 227.852 310.796 227.668C311.084 227.484 311.296 227.248 311.432 226.96C311.576 226.672 311.648 226.368 311.648 226.048C311.648 225.728 311.576 225.42 311.432 225.124C311.296 224.82 311.088 224.576 310.808 224.392C310.528 224.2 310.184 224.104 309.776 224.104C309.456 224.104 309.188 224.156 308.972 224.26C308.764 224.364 308.596 224.484 308.468 224.62C308.348 224.748 308.26 224.864 308.204 224.968C308.156 225.072 308.132 225.124 308.132 225.124H306.752L307.484 220.12H312.404V221.356H308.48L308.144 223.72H308.18C308.252 223.64 308.36 223.544 308.504 223.432C308.648 223.312 308.84 223.208 309.08 223.12C309.328 223.024 309.644 222.976 310.028 222.976C310.676 222.976 311.22 223.124 311.66 223.42C312.108 223.708 312.444 224.088 312.668 224.56C312.9 225.024 313.016 225.512 313.016 226.024C313.016 226.408 312.948 226.784 312.812 227.152C312.676 227.52 312.472 227.852 312.2 228.148C311.936 228.444 311.596 228.68 311.18 228.856C310.772 229.032 310.292 229.12 309.74 229.12Z" fill="#A3AED0"/>
<path d="M368.651 220.12V229H367.271V222.292L365.591 222.304V221.476L365.879 221.392C366.327 221.256 366.687 221.104 366.959 220.936C367.239 220.768 367.503 220.536 367.751 220.24L367.859 220.12H368.651ZM373.923 229.12C373.339 229.12 372.831 229.012 372.399 228.796C371.967 228.58 371.611 228.284 371.331 227.908C371.051 227.524 370.843 227.088 370.707 226.6C370.571 226.112 370.503 225.6 370.503 225.064C370.503 224.616 370.551 224.156 370.647 223.684C370.751 223.212 370.911 222.756 371.127 222.316C371.351 221.876 371.639 221.484 371.991 221.14C372.343 220.788 372.767 220.512 373.263 220.312C373.759 220.104 374.339 220 375.003 220C375.371 220 375.691 220.028 375.963 220.084C376.235 220.14 376.371 220.168 376.371 220.168V221.428C376.371 221.428 376.299 221.416 376.155 221.392C376.019 221.368 375.843 221.344 375.627 221.32C375.419 221.288 375.207 221.272 374.991 221.272C374.431 221.272 373.959 221.372 373.575 221.572C373.191 221.772 372.883 222.028 372.651 222.34C372.419 222.644 372.247 222.964 372.135 223.3C372.031 223.636 371.971 223.944 371.955 224.224C372.019 224.112 372.135 223.972 372.303 223.804C372.471 223.636 372.703 223.488 372.999 223.36C373.295 223.224 373.675 223.156 374.139 223.156C374.787 223.156 375.327 223.3 375.759 223.588C376.191 223.868 376.515 224.232 376.731 224.68C376.955 225.12 377.067 225.584 377.067 226.072C377.067 226.456 376.999 226.828 376.863 227.188C376.735 227.548 376.539 227.876 376.275 228.172C376.019 228.46 375.695 228.692 375.303 228.868C374.911 229.036 374.451 229.12 373.923 229.12ZM373.911 227.944C374.223 227.944 374.515 227.876 374.787 227.74C375.059 227.596 375.279 227.388 375.447 227.116C375.615 226.844 375.699 226.512 375.699 226.12C375.699 225.728 375.615 225.396 375.447 225.124C375.279 224.852 375.059 224.648 374.787 224.512C374.515 224.368 374.223 224.296 373.911 224.296C373.599 224.296 373.307 224.368 373.035 224.512C372.763 224.648 372.543 224.852 372.375 225.124C372.207 225.396 372.123 225.728 372.123 226.12C372.123 226.512 372.207 226.844 372.375 227.116C372.543 227.388 372.763 227.596 373.035 227.74C373.307 227.876 373.599 227.944 373.911 227.944Z" fill="#A3AED0"/>
<path d="M432.701 220.12V229H431.321V222.292L429.641 222.304V221.476L429.929 221.392C430.377 221.256 430.737 221.104 431.009 220.936C431.289 220.768 431.553 220.536 431.801 220.24L431.909 220.12H432.701ZM435.778 229C435.81 228.248 435.91 227.532 436.078 226.852C436.246 226.172 436.454 225.544 436.702 224.968C436.958 224.384 437.226 223.856 437.506 223.384C437.786 222.912 438.054 222.504 438.31 222.16C438.566 221.816 438.774 221.548 438.934 221.356H434.302V220.12H440.518V221.14C440.518 221.14 440.442 221.228 440.29 221.404C440.138 221.572 439.938 221.82 439.69 222.148C439.45 222.476 439.19 222.872 438.91 223.336C438.63 223.8 438.362 224.324 438.106 224.908C437.858 225.492 437.646 226.128 437.47 226.816C437.294 227.496 437.194 228.224 437.17 229H435.778Z" fill="#A3AED0"/>
<path d="M490.902 220.12V229H489.522V222.292L487.842 222.304V221.476L488.13 221.392C488.578 221.256 488.938 221.104 489.21 220.936C489.49 220.768 489.754 220.536 490.002 220.24L490.11 220.12H490.902ZM495.779 229.12C495.163 229.12 494.615 229.012 494.135 228.796C493.663 228.572 493.291 228.268 493.019 227.884C492.747 227.5 492.611 227.056 492.611 226.552C492.611 226.12 492.687 225.764 492.839 225.484C492.999 225.196 493.179 224.972 493.379 224.812C493.587 224.644 493.767 224.524 493.919 224.452C494.079 224.38 494.159 224.344 494.159 224.344V224.272C494.159 224.272 494.091 224.244 493.955 224.188C493.819 224.124 493.663 224.02 493.487 223.876C493.319 223.732 493.167 223.54 493.031 223.3C492.903 223.06 492.839 222.764 492.839 222.412C492.839 221.94 492.963 221.524 493.211 221.164C493.459 220.804 493.803 220.52 494.243 220.312C494.691 220.104 495.203 220 495.779 220C496.363 220 496.875 220.104 497.315 220.312C497.763 220.52 498.111 220.804 498.359 221.164C498.607 221.524 498.731 221.936 498.731 222.4C498.731 222.76 498.663 223.06 498.527 223.3C498.399 223.54 498.247 223.732 498.071 223.876C497.895 224.02 497.739 224.124 497.603 224.188C497.475 224.244 497.411 224.272 497.411 224.272V224.344C497.411 224.344 497.487 224.38 497.639 224.452C497.799 224.524 497.979 224.644 498.179 224.812C498.387 224.972 498.567 225.196 498.719 225.484C498.879 225.764 498.959 226.12 498.959 226.552C498.959 227.056 498.823 227.5 498.551 227.884C498.279 228.268 497.903 228.572 497.423 228.796C496.951 229.012 496.403 229.12 495.779 229.12ZM495.779 223.804C496.299 223.804 496.699 223.668 496.979 223.396C497.259 223.116 497.399 222.804 497.399 222.46C497.399 222.1 497.259 221.784 496.979 221.512C496.699 221.232 496.299 221.092 495.779 221.092C495.267 221.092 494.871 221.232 494.591 221.512C494.311 221.784 494.171 222.1 494.171 222.46C494.171 222.804 494.311 223.116 494.591 223.396C494.871 223.668 495.267 223.804 495.779 223.804ZM495.779 228.004C496.187 228.004 496.527 227.928 496.799 227.776C497.071 227.616 497.275 227.416 497.411 227.176C497.555 226.928 497.627 226.672 497.627 226.408C497.627 226.152 497.559 225.908 497.423 225.676C497.287 225.436 497.083 225.24 496.811 225.088C496.539 224.936 496.195 224.86 495.779 224.86C495.371 224.86 495.031 224.936 494.759 225.088C494.487 225.24 494.283 225.436 494.147 225.676C494.011 225.908 493.943 226.152 493.943 226.408C493.943 226.672 494.011 226.928 494.147 227.176C494.291 227.416 494.499 227.616 494.771 227.776C495.043 227.928 495.379 228.004 495.779 228.004Z" fill="#A3AED0"/>
<path d="M549.651 220.12V229H548.271V222.292L546.591 222.304V221.476L546.879 221.392C547.327 221.256 547.687 221.104 547.959 220.936C548.239 220.768 548.503 220.536 548.751 220.24L548.859 220.12H549.651ZM554.635 220C555.227 220 555.735 220.108 556.159 220.324C556.591 220.54 556.947 220.84 557.227 221.224C557.507 221.6 557.715 222.032 557.851 222.52C557.995 223.008 558.067 223.52 558.067 224.056C558.067 224.504 558.015 224.964 557.911 225.436C557.807 225.908 557.647 226.364 557.431 226.804C557.215 227.244 556.931 227.64 556.579 227.992C556.227 228.336 555.799 228.612 555.295 228.82C554.799 229.02 554.219 229.12 553.555 229.12C553.187 229.12 552.867 229.092 552.595 229.036C552.323 228.98 552.187 228.952 552.187 228.952V227.692C552.187 227.692 552.255 227.704 552.391 227.728C552.535 227.752 552.715 227.78 552.931 227.812C553.147 227.836 553.363 227.848 553.579 227.848C554.139 227.848 554.607 227.748 554.983 227.548C555.367 227.348 555.675 227.096 555.907 226.792C556.139 226.48 556.311 226.156 556.423 225.82C556.535 225.484 556.599 225.176 556.615 224.896C556.543 225.008 556.423 225.148 556.255 225.316C556.095 225.484 555.863 225.636 555.559 225.772C555.263 225.9 554.887 225.964 554.431 225.964C553.783 225.964 553.239 225.824 552.799 225.544C552.367 225.256 552.043 224.892 551.827 224.452C551.611 224.004 551.503 223.536 551.503 223.048C551.503 222.664 551.567 222.292 551.695 221.932C551.831 221.572 552.027 221.248 552.283 220.96C552.547 220.664 552.875 220.432 553.267 220.264C553.659 220.088 554.115 220 554.635 220ZM554.659 221.176C554.347 221.176 554.051 221.248 553.771 221.392C553.499 221.528 553.279 221.732 553.111 222.004C552.943 222.276 552.859 222.608 552.859 223C552.859 223.392 552.943 223.724 553.111 223.996C553.279 224.268 553.499 224.476 553.771 224.62C554.051 224.756 554.347 224.824 554.659 224.824C554.971 224.824 555.263 224.756 555.535 224.62C555.807 224.476 556.027 224.268 556.195 223.996C556.363 223.724 556.447 223.392 556.447 223C556.447 222.608 556.363 222.276 556.195 222.004C556.027 221.732 555.807 221.528 555.535 221.392C555.263 221.248 554.971 221.176 554.659 221.176Z" fill="#A3AED0"/>
<path d="M605.963 229V228.028L607.775 226.384C608.351 225.872 608.851 225.428 609.275 225.052C609.699 224.668 610.027 224.304 610.259 223.96C610.499 223.608 610.619 223.224 610.619 222.808C610.619 222.48 610.539 222.2 610.379 221.968C610.219 221.736 610.015 221.56 609.767 221.44C609.519 221.312 609.259 221.248 608.987 221.248C608.659 221.248 608.387 221.304 608.171 221.416C607.963 221.52 607.795 221.656 607.667 221.824C607.547 221.984 607.459 222.152 607.403 222.328C607.347 222.496 607.311 222.648 607.295 222.784C607.279 222.912 607.271 222.992 607.271 223.024H605.927C605.927 222.936 605.943 222.776 605.975 222.544C606.015 222.312 606.091 222.056 606.203 221.776C606.323 221.488 606.495 221.208 606.719 220.936C606.951 220.664 607.251 220.44 607.619 220.264C607.995 220.088 608.463 220 609.023 220C609.559 220 610.055 220.108 610.511 220.324C610.967 220.54 611.331 220.856 611.603 221.272C611.883 221.68 612.023 222.176 612.023 222.76C612.023 223.296 611.887 223.784 611.615 224.224C611.351 224.656 610.991 225.084 610.535 225.508C610.087 225.924 609.587 226.372 609.035 226.852L608.039 227.752H612.191V229H605.963ZM616.814 229.108C616.246 229.108 615.742 228.988 615.302 228.748C614.87 228.508 614.506 228.176 614.21 227.752C613.914 227.328 613.69 226.844 613.538 226.3C613.386 225.748 613.31 225.164 613.31 224.548C613.31 223.932 613.386 223.352 613.538 222.808C613.69 222.256 613.914 221.768 614.21 221.344C614.506 220.92 614.87 220.588 615.302 220.348C615.742 220.108 616.246 219.988 616.814 219.988C617.382 219.988 617.882 220.108 618.314 220.348C618.754 220.588 619.122 220.92 619.418 221.344C619.714 221.768 619.938 222.256 620.09 222.808C620.242 223.352 620.318 223.932 620.318 224.548C620.318 225.164 620.242 225.748 620.09 226.3C619.938 226.844 619.714 227.328 619.418 227.752C619.122 228.176 618.754 228.508 618.314 228.748C617.882 228.988 617.382 229.108 616.814 229.108ZM616.814 227.848C617.406 227.848 617.898 227.572 618.29 227.02C618.682 226.46 618.878 225.636 618.878 224.548C618.878 223.468 618.682 222.652 618.29 222.1C617.898 221.548 617.406 221.272 616.814 221.272C616.222 221.272 615.73 221.548 615.338 222.1C614.946 222.652 614.75 223.468 614.75 224.548C614.75 225.628 614.942 226.448 615.326 227.008C615.718 227.568 616.214 227.848 616.814 227.848Z" fill="#A3AED0"/>
<path d="M7.99999 4C7.99999 1.79086 6.20913 -9.65642e-08 3.99999 0C1.79085 9.65642e-08 -8.88252e-06 1.79086 -8.78596e-06 4L7.99999 4ZM8 205L7.99999 4L-8.78596e-06 4L0 205L8 205Z" fill="#5177FF"/>
<path d="M30 64C30 61.7909 28.2091 60 26 60C23.7909 60 22 61.7909 22 64L30 64ZM30 205L30 64L22 64L22 205L30 205Z" fill="#4CCE82"/>
<path d="M19 133C19 130.791 17.2091 129 15 129C12.7909 129 11 130.791 11 133L19 133ZM19 205L19 133L11 133L11 205L19 205Z" fill="#A3AED0"/>
<path d="M68 64C68 61.7909 66.2091 60 64 60C61.7909 60 60 61.7909 60 64L68 64ZM68 205L68 64L60 64L60 205L68 205Z" fill="#5177FF"/>
<path d="M90 106.09C90 103.88 88.2091 102.09 86 102.09C83.7909 102.09 82 103.88 82 106.09L90 106.09ZM90 205L90 106.09L82 106.09L82 205L90 205Z" fill="#4CCE82"/>
<path d="M79 154.493C79 152.283 77.2091 150.493 75 150.493C72.7909 150.493 71 152.283 71 154.493L79 154.493ZM79 205L79 154.493L71 154.493L71 205L79 205Z" fill="#A3AED0"/>
<path d="M128 32C128 29.7909 126.209 28 124 28C121.791 28 120 29.7909 120 32L128 32ZM128 205L128 32L120 32L120 205L128 205Z" fill="#5177FF"/>
<path d="M150 83.6418C150 81.4326 148.209 79.6418 146 79.6418C143.791 79.6418 142 81.4326 142 83.6418L150 83.6418ZM150 205L150 83.6418L142 83.6418L142 205L150 205Z" fill="#4CCE82"/>
<path d="M139 143.03C139 140.821 137.209 139.03 135 139.03C132.791 139.03 131 140.821 131 143.03L139 143.03ZM139 205L139 143.03L131 143.03L131 205L139 205Z" fill="#A3AED0"/>
<path d="M188 130C188 127.791 186.209 126 184 126C181.791 126 180 127.791 180 130L188 130ZM188 205L188 130L180 130L180 205L188 205Z" fill="#5177FF"/>
<path d="M210 152.388C210 150.179 208.209 148.388 206 148.388C203.791 148.388 202 150.179 202 152.388L210 152.388ZM210 205L210 152.388L202 152.388L202 205L210 205Z" fill="#4CCE82"/>
<path d="M199 178.134C199 175.925 197.209 174.134 195 174.134C192.791 174.134 191 175.925 191 178.134L199 178.134ZM199 205L199 178.134L191 178.134L191 205L199 205Z" fill="#A3AED0"/>
<path d="M248 53C248 50.7909 246.209 49 244 49C241.791 49 240 50.7909 240 53L248 53ZM248 205L248 53L240 53L240 205L248 205Z" fill="#5177FF"/>
<path d="M270 98C270 95.7909 268.209 94 266 94C263.791 94 262 95.7909 262 98L270 98ZM270 205L270 98L262 98L262 205L270 205Z" fill="#4CCE82"/>
<path d="M259 151C259 148.791 257.209 147 255 147C252.791 147 251 148.791 251 151L259 151ZM259 205L259 151L251 151L251 205L259 205Z" fill="#A3AED0"/>
<path d="M308 4C308 1.79086 306.209 -9.65642e-08 304 0C301.791 9.65642e-08 300 1.79086 300 4L308 4ZM308 205L308 4L300 4L300 205L308 205Z" fill="#5177FF"/>
<path d="M330 64C330 61.7909 328.209 60 326 60C323.791 60 322 61.7909 322 64L330 64ZM330 205L330 64L322 64L322 205L330 205Z" fill="#4CCE82"/>
<path d="M319 133C319 130.791 317.209 129 315 129C312.791 129 311 130.791 311 133L319 133ZM319 205L319 133L311 133L311 205L319 205Z" fill="#A3AED0"/>
<path d="M368 111C368 108.791 366.209 107 364 107C361.791 107 360 108.791 360 111L368 111ZM368 205L368 111L360 111L360 205L368 205Z" fill="#5177FF"/>
<path d="M390 139C390 136.791 388.209 135 386 135C383.791 135 382 136.791 382 139L390 139ZM390 205L390 139L382 139L382 205L390 205Z" fill="#4CCE82"/>
<path d="M379 171C379 168.791 377.209 167 375 167C372.791 167 371 168.791 371 171L379 171ZM379 205L379 171L371 171L371 205L379 205Z" fill="#A3AED0"/>
<path d="M428 53C428 50.7909 426.209 49 424 49C421.791 49 420 50.7909 420 53L428 53ZM428 205L428 53L420 53L420 205L428 205Z" fill="#5177FF"/>
<path d="M450 98C450 95.7909 448.209 94 446 94C443.791 94 442 95.7909 442 98L450 98ZM450 205L450 98L442 98L442 205L450 205Z" fill="#4CCE82"/>
<path d="M439 151C439 148.791 437.209 147 435 147C432.791 147 431 148.791 431 151L439 151ZM439 205L439 151L431 151L431 205L439 205Z" fill="#A3AED0"/>
<path d="M488 98C488 95.7909 486.209 94 484 94C481.791 94 480 95.7909 480 98L488 98ZM488 205L488 98L480 98L480 205L488 205Z" fill="#5177FF"/>
<path d="M510 130C510 127.791 508.209 126 506 126C503.791 126 502 127.791 502 130L510 130ZM510 205L510 130L502 130L502 205L510 205Z" fill="#4CCE82"/>
<path d="M499 167C499 164.791 497.209 163 495 163C492.791 163 491 164.791 491 167L499 167ZM499 205L499 167L491 167L491 205L499 205Z" fill="#A3AED0"/>
<path d="M548 4C548 1.79086 546.209 -9.65642e-08 544 0C541.791 9.65642e-08 540 1.79086 540 4L548 4ZM548 205L548 4L540 4L540 205L548 205Z" fill="#5177FF"/>
<path d="M570 64C570 61.7909 568.209 60 566 60C563.791 60 562 61.7909 562 64L570 64ZM570 205L570 64L562 64L562 205L570 205Z" fill="#4CCE82"/>
<path d="M559 133C559 130.791 557.209 129 555 129C552.791 129 551 130.791 551 133L559 133ZM559 205L559 133L551 133L551 205L559 205Z" fill="#A3AED0"/>
<path d="M608 53C608 50.7909 606.209 49 604 49C601.791 49 600 50.7909 600 53L608 53ZM608 205L608 53L600 53L600 205L608 205Z" fill="#5177FF"/>
<path d="M630 98C630 95.7909 628.209 94 626 94C623.791 94 622 95.7909 622 98L630 98ZM630 205L630 98L622 98L622 205L630 205Z" fill="#4CCE82"/>
<path d="M619 151C619 148.791 617.209 147 615 147C612.791 147 611 148.791 611 151L619 151ZM619 205L619 151L611 151L611 205L619 205Z" fill="#A3AED0"/>
</svg>
